<?xml version="1.0" encoding="UTF-8" standalone="no"?>
<!-- Created with Inkscape (http://www.inkscape.org/) -->

<svg
   xmlns:dc="http://purl.org/dc/elements/1.1/"
   xmlns:cc="http://creativecommons.org/ns#"
   xmlns:rdf="http://www.w3.org/1999/02/22-rdf-syntax-ns#"
   xmlns:svg="http://www.w3.org/2000/svg"
   xmlns="http://www.w3.org/2000/svg"
   xmlns:xlink="http://www.w3.org/1999/xlink"
   xmlns:sodipodi="http://sodipodi.sourceforge.net/DTD/sodipodi-0.dtd"
   xmlns:inkscape="http://www.inkscape.org/namespaces/inkscape"
   width="270"
   height="44.645462"
   id="svg6832"
   version="1.1"
   inkscape:version="0.48.3.1 r9886"
   sodipodi:docname="logo_planet-work.svg"
   inkscape:export-filename="/home/users/f.vanniere/aptana workspace/planet-work.com/docroot/images/design/logo_planet-work.png"
   inkscape:export-xdpi="90"
   inkscape:export-ydpi="90">
  <defs
     id="defs6834">
    <linearGradient
       inkscape:collect="always"
       xlink:href="#SVGID_1_"
       id="linearGradient9381"
       gradientUnits="userSpaceOnUse"
       gradientTransform="matrix(-0.7439,0.6682,0.6682,0.7439,6179.4355,5435)"
       x1="770.83893"
       y1="-7734.6147"
       x2="788.19598"
       y2="-7715.811" />
    <linearGradient
       gradientTransform="matrix(-0.7439,0.6682,0.6682,0.7439,6179.4355,5435)"
       y2="-7715.811"
       x2="788.19598"
       y1="-7734.6147"
       x1="770.83893"
       gradientUnits="userSpaceOnUse"
       id="SVGID_1_">
      <stop
         id="stop250"
         style="stop-color:#B6B5B6"
         offset="0.1333" />
      <stop
         id="stop252"
         style="stop-color:#EAE9E9"
         offset="0.4485" />
      <stop
         id="stop254"
         style="stop-color:#929191"
         offset="0.7697" />
    </linearGradient>
    <radialGradient
       inkscape:collect="always"
       xlink:href="#SVGID_2_"
       id="radialGradient9383"
       gradientUnits="userSpaceOnUse"
       gradientTransform="matrix(-0.7439,0.6682,0.6682,0.7439,6179.4375,5435)"
       cx="780.13281"
       cy="-7728.3481"
       r="24.6429" />
    <radialGradient
       gradientUnits="userSpaceOnUse"
       gradientTransform="matrix(-0.7439,0.6682,0.6682,0.7439,6179.4375,5435)"
       r="24.6429"
       cy="-7728.3481"
       cx="780.13281"
       id="SVGID_2_">
      <stop
         id="stop259"
         style="stop-color:#FFFFFF"
         offset="0.2688" />
      <stop
         id="stop261"
         style="stop-color:#EAE9E9"
         offset="0.4485" />
      <stop
         id="stop263"
         style="stop-color:#B6B5B6"
         offset="1" />
    </radialGradient>
    <radialGradient
       inkscape:collect="always"
       xlink:href="#SVGID_3_"
       id="radialGradient9385"
       gradientUnits="userSpaceOnUse"
       gradientTransform="matrix(0.4202,0.7059,-0.5469,0.3279,6820.5078,5015.5479)"
       cx="-9012.1328"
       cy="4712.876"
       r="14.9124" />
    <radialGradient
       gradientUnits="userSpaceOnUse"
       gradientTransform="matrix(0.4202,0.7059,-0.5469,0.3279,6820.5078,5015.5479)"
       r="14.9124"
       cy="4712.876"
       cx="-9012.1328"
       id="SVGID_3_">
      <stop
         id="stop268"
         style="stop-color:#FFFFFF"
         offset="0.1939" />
      <stop
         id="stop270"
         style="stop-color:#FFFFFF;stop-opacity:0"
         offset="0.9879" />
    </radialGradient>
    <radialGradient
       inkscape:collect="always"
       xlink:href="#SVGID_4_"
       id="radialGradient9387"
       gradientUnits="userSpaceOnUse"
       gradientTransform="matrix(-0.6771,0.6688,0.6861,0.8367,6233.3789,6188.1611)"
       cx="707.60449"
       cy="-7736.1431"
       r="15.0862" />
    <radialGradient
       gradientUnits="userSpaceOnUse"
       gradientTransform="matrix(-0.6771,0.6688,0.6861,0.8367,6233.3789,6188.1611)"
       r="15.0862"
       cy="-7736.1431"
       cx="707.60449"
       id="SVGID_4_">
      <stop
         id="stop275"
         style="stop-color:#FFFFFF;stop-opacity:0.95"
         offset="0" />
      <stop
         id="stop277"
         style="stop-color:#FFFFFF;stop-opacity:0"
         offset="0.9879" />
    </radialGradient>
    <radialGradient
       inkscape:collect="always"
       xlink:href="#SVGID_5_"
       id="radialGradient9389"
       gradientUnits="userSpaceOnUse"
       gradientTransform="matrix(0.9844,-0.1762,0.1762,0.9844,-30.3336,77.3048)"
       cx="419.39749"
       cy="220.5947"
       r="8.2177" />
    <radialGradient
       gradientUnits="userSpaceOnUse"
       gradientTransform="matrix(0.9844,-0.1762,0.1762,0.9844,-30.3336,77.3048)"
       r="8.2177"
       cy="220.5947"
       cx="419.39749"
       id="SVGID_5_">
      <stop
         id="stop282"
         style="stop-color:#FFFFFF"
         offset="0" />
      <stop
         id="stop284"
         style="stop-color:#FFFFFF;stop-opacity:0"
         offset="0.9879" />
    </radialGradient>
    <radialGradient
       inkscape:collect="always"
       xlink:href="#SVGID_6_"
       id="radialGradient9391"
       gradientUnits="userSpaceOnUse"
       gradientTransform="matrix(0.4314,-0.3514,0.2522,0.3094,130.3559,278.5508)"
       cx="502.73239"
       cy="299.69241"
       r="21.9806" />
    <radialGradient
       gradientUnits="userSpaceOnUse"
       gradientTransform="matrix(0.4314,-0.3514,0.2522,0.3094,130.3559,278.5508)"
       r="21.9806"
       cy="299.69241"
       cx="502.73239"
       id="SVGID_6_">
      <stop
         id="stop289"
         style="stop-color:#FFFFFF"
         offset="0" />
      <stop
         id="stop291"
         style="stop-color:#FFFFFF;stop-opacity:0"
         offset="1" />
    </radialGradient>
    <radialGradient
       inkscape:collect="always"
       xlink:href="#SVGID_7_"
       id="radialGradient9393"
       gradientUnits="userSpaceOnUse"
       cx="434.83401"
       cy="192.9785"
       r="1.8184" />
    <radialGradient
       gradientUnits="userSpaceOnUse"
       r="1.8184"
       cy="192.9785"
       cx="434.83401"
       id="SVGID_7_">
      <stop
         id="stop296"
         style="stop-color:#FFFFFF;stop-opacity:0.5941"
         offset="0.099" />
      <stop
         id="stop298"
         style="stop-color:#FFFFFF;stop-opacity:0"
         offset="1" />
    </radialGradient>
    <linearGradient
       inkscape:collect="always"
       xlink:href="#SVGID_8_"
       id="linearGradient9395"
       gradientUnits="userSpaceOnUse"
       gradientTransform="matrix(1.0606768,0,0,1.0606768,-18.781092,-134.0755)"
       x1="446.25879"
       y1="185.7397"
       x2="411.25891"
       y2="222.7397" />
    <linearGradient
       y2="222.7397"
       x2="411.25891"
       y1="185.7397"
       x1="446.25879"
       gradientUnits="userSpaceOnUse"
       id="SVGID_8_">
      <stop
         id="stop383"
         style="stop-color:#FFFFFF"
         offset="0" />
      <stop
         id="stop385"
         style="stop-color:#6E6F71"
         offset="0.4785" />
      <stop
         id="stop387"
         style="stop-color:#FFFFFF"
         offset="0.9839" />
    </linearGradient>
    <radialGradient
       inkscape:collect="always"
       xlink:href="#SVGID_9_"
       id="radialGradient9397"
       gradientUnits="userSpaceOnUse"
       gradientTransform="matrix(1.0606768,0,0,1.0606768,-18.781092,-134.0755)"
       cx="441.54001"
       cy="204.4868"
       r="30.084801" />
    <radialGradient
       gradientUnits="userSpaceOnUse"
       r="30.084801"
       cy="204.4868"
       cx="441.54001"
       id="SVGID_9_">
      <stop
         id="stop392"
         style="stop-color:#267DBD"
         offset="0" />
      <stop
         id="stop394"
         style="stop-color:#2B2864"
         offset="0.7525" />
    </radialGradient>
    <linearGradient
       inkscape:collect="always"
       xlink:href="#SVGID_10_"
       id="linearGradient9399"
       gradientUnits="userSpaceOnUse"
       gradientTransform="matrix(1.0606768,0,0,1.0606768,-18.781092,-134.0755)"
       x1="451.40231"
       y1="191.5381"
       x2="433.4928"
       y2="228.8497" />
    <linearGradient
       y2="228.8497"
       x2="433.4928"
       y1="191.5381"
       x1="451.40231"
       gradientUnits="userSpaceOnUse"
       id="SVGID_10_">
      <stop
         id="stop399"
         style="stop-color:#FFFFFF"
         offset="0" />
      <stop
         id="stop401"
         style="stop-color:#6E6F71"
         offset="0.4785" />
      <stop
         id="stop403"
         style="stop-color:#FFFFFF"
         offset="0.9839" />
    </linearGradient>
    <radialGradient
       inkscape:collect="always"
       xlink:href="#SVGID_11_"
       id="radialGradient9401"
       gradientUnits="userSpaceOnUse"
       gradientTransform="matrix(1.0117796,-0.31830911,0.24904691,0.77132417,-223.83643,-561.79321)"
       cx="412.11429"
       cy="1028.9668"
       r="25.7999" />
    <radialGradient
       gradientUnits="userSpaceOnUse"
       gradientTransform="matrix(0.9539,-0.3001,0.2348,0.7272,-193.325,-403.2498)"
       r="25.7999"
       cy="1028.9668"
       cx="412.11429"
       id="SVGID_11_">
      <stop
         id="stop408"
         style="stop-color:#267DBD"
         offset="0" />
      <stop
         id="stop410"
         style="stop-color:#2B2864"
         offset="0.7525" />
    </radialGradient>
    <linearGradient
       inkscape:collect="always"
       xlink:href="#SVGID_1_"
       id="linearGradient10898"
       gradientUnits="userSpaceOnUse"
       gradientTransform="matrix(-0.7439,0.6682,0.6682,0.7439,6179.4355,5435)"
       x1="770.83893"
       y1="-7734.6147"
       x2="788.19598"
       y2="-7715.811" />
    <radialGradient
       inkscape:collect="always"
       xlink:href="#SVGID_2_"
       id="radialGradient10900"
       gradientUnits="userSpaceOnUse"
       gradientTransform="matrix(-0.7439,0.6682,0.6682,0.7439,6179.4375,5435)"
       cx="780.13281"
       cy="-7728.3481"
       r="24.6429" />
    <radialGradient
       inkscape:collect="always"
       xlink:href="#SVGID_3_"
       id="radialGradient10902"
       gradientUnits="userSpaceOnUse"
       gradientTransform="matrix(0.4202,0.7059,-0.5469,0.3279,6820.5078,5015.5479)"
       cx="-9012.1328"
       cy="4712.876"
       r="14.9124" />
    <radialGradient
       inkscape:collect="always"
       xlink:href="#SVGID_4_"
       id="radialGradient10904"
       gradientUnits="userSpaceOnUse"
       gradientTransform="matrix(-0.6771,0.6688,0.6861,0.8367,6233.3789,6188.1611)"
       cx="707.60449"
       cy="-7736.1431"
       r="15.0862" />
    <radialGradient
       inkscape:collect="always"
       xlink:href="#SVGID_5_"
       id="radialGradient10906"
       gradientUnits="userSpaceOnUse"
       gradientTransform="matrix(0.9844,-0.1762,0.1762,0.9844,-30.3336,77.3048)"
       cx="419.39749"
       cy="220.5947"
       r="8.2177" />
    <radialGradient
       inkscape:collect="always"
       xlink:href="#SVGID_6_"
       id="radialGradient10908"
       gradientUnits="userSpaceOnUse"
       gradientTransform="matrix(0.4314,-0.3514,0.2522,0.3094,130.3559,278.5508)"
       cx="502.73239"
       cy="299.69241"
       r="21.9806" />
    <radialGradient
       inkscape:collect="always"
       xlink:href="#SVGID_7_"
       id="radialGradient10910"
       gradientUnits="userSpaceOnUse"
       cx="434.83401"
       cy="192.9785"
       r="1.8184" />
    <linearGradient
       inkscape:collect="always"
       xlink:href="#SVGID_8_"
       id="linearGradient10912"
       gradientUnits="userSpaceOnUse"
       gradientTransform="matrix(1.0606768,0,0,1.0606768,-18.781092,-134.0755)"
       x1="446.25879"
       y1="185.7397"
       x2="411.25891"
       y2="222.7397" />
    <radialGradient
       inkscape:collect="always"
       xlink:href="#SVGID_9_"
       id="radialGradient10914"
       gradientUnits="userSpaceOnUse"
       gradientTransform="matrix(1.0606768,0,0,1.0606768,-18.781092,-134.0755)"
       cx="441.54001"
       cy="204.4868"
       r="30.084801" />
    <linearGradient
       inkscape:collect="always"
       xlink:href="#SVGID_10_"
       id="linearGradient10916"
       gradientUnits="userSpaceOnUse"
       gradientTransform="matrix(1.0606768,0,0,1.0606768,-18.781092,-134.0755)"
       x1="451.40231"
       y1="191.5381"
       x2="433.4928"
       y2="228.8497" />
    <radialGradient
       inkscape:collect="always"
       xlink:href="#SVGID_11_"
       id="radialGradient10918"
       gradientUnits="userSpaceOnUse"
       gradientTransform="matrix(1.0117796,-0.31830911,0.24904691,0.77132417,-223.83643,-561.79321)"
       cx="412.11429"
       cy="1028.9668"
       r="25.7999" />
  </defs>
  <sodipodi:namedview
     id="base"
     pagecolor="#ffffff"
     bordercolor="#666666"
     borderopacity="1.0"
     inkscape:pageopacity="0.0"
     inkscape:pageshadow="2"
     inkscape:zoom="1.645031"
     inkscape:cx="181.3982"
     inkscape:cy="3.4592826"
     inkscape:document-units="px"
     inkscape:current-layer="layer1"
     showgrid="false"
     inkscape:window-width="1419"
     inkscape:window-height="679"
     inkscape:window-x="2487"
     inkscape:window-y="39"
     inkscape:window-maximized="0"
     fit-margin-top="0"
     fit-margin-left="0"
     fit-margin-right="0"
     fit-margin-bottom="0" />
  <metadata
     id="metadata6837">
    <rdf:RDF>
      <cc:Work
         rdf:about="">
        <dc:format>image/svg+xml</dc:format>
        <dc:type
           rdf:resource="http://purl.org/dc/dcmitype/StillImage" />
        <dc:title />
      </cc:Work>
    </rdf:RDF>
  </metadata>
  <g
     inkscape:label="Calque 1"
     inkscape:groupmode="layer"
     id="layer1"
     transform="translate(-3.3891925,-979.76186)">
    <g
       id="g10843"
       transform="matrix(0.77829431,0,0,0.77764405,0.75140326,227.78306)">
      <path
         d="m 35.899221,978.36301 c -1.056975,-1.69684 -2.392753,-3.01006 -4.009519,-3.93964 -1.613127,-0.93614 -3.390041,-1.56436 -5.338022,-1.8963 -1.947981,-0.33267 -3.810793,-0.49791 -5.589891,-0.49791 -0.911388,0 -15.1063182,0.54086 -16.017706,0.62166 l -1.230955,7.01303 17.685428,-0.059 c 0.743232,0 1.508302,0.0852 2.297395,0.24896 0.784725,0.16525 1.501751,0.4637 2.138703,0.90047 0.647143,0.43458 1.1618,1.04315 1.554891,1.83151 0.393818,0.78691 0.591819,1.78274 0.591819,2.98021 0,1.9458 -0.284627,3.56038 -0.842232,4.84302 -0.558334,1.28482 -1.27172,2.31923 -2.140887,3.10687 -0.869167,0.78618 -1.822047,1.34524 -2.857185,1.67718 -1.03441,0.33122 -2.04771,0.49646 -3.041355,0.49646 -1.325588,0 -2.258814,-0.0626 -2.795309,-0.18781 l 2.24571,-12.6728 H 9.4857332 l -6.0965407,34.59418 c 0.8698947,0.1252 1.6851932,0.2067 2.454631,0.2504 0.7628864,0.042 1.4573463,0.06 2.0775558,0.06 0.7068347,0 1.4296842,-0.019 2.1736437,-0.06 0.746144,-0.044 1.531597,-0.1252 2.361454,-0.2504 l 2.482294,-14.342 c 0.373435,0.039 0.767254,0.071 1.180727,0.092 0.414928,0.02 0.950696,0.031 1.61531,0.031 3.101047,0 5.878157,-0.4564 8.322597,-1.3663 2.442984,-0.9078 4.511076,-2.181 6.209372,-3.81742 1.696844,-1.63715 2.986029,-3.5713 3.87849,-5.80827 0.890278,-2.23188 1.338695,-4.65812 1.338695,-7.26271 -6.87e-4,-2.69413 -0.530677,-4.88961 -1.584741,-6.58572 z"
         id="path360"
         inkscape:connector-curvature="0"
         style="fill:#2b2864" />
      <path
         d="m 43.257296,984.07738 c 0.453509,-2.19621 0.776716,-4.1078 0.963068,-5.74567 0.184897,-1.63424 0.277349,-3.01006 0.277349,-4.13037 0,-0.45132 -0.008,-0.83349 -0.03054,-1.14651 -0.02038,-0.31083 -0.05168,-0.65297 -0.09026,-1.02567 0.70101,-0.12303 1.509028,-0.21693 2.421145,-0.27662 0.907745,-0.0641 1.693197,-0.0954 2.357085,-0.0954 1.19965,0 2.524516,0.12302 3.976766,0.37198 0.203825,0.62166 0.307189,1.40857 0.307189,2.36145 0,0.86917 -0.08152,1.86281 -0.246046,2.98094 -0.168151,1.11812 -0.371976,2.33816 -0.625304,3.6601 l -4.779685,24.96779 c -0.120837,0.7032 -0.184169,1.2827 -0.184169,1.7376 0,0.6647 0.09099,1.1801 0.275886,1.5535 0.192179,0.372 0.426579,0.6631 0.717029,0.8662 0.289722,0.2097 0.622394,0.3444 0.99437,0.4055 0.371982,0.062 0.747603,0.093 1.116669,0.093 0.165248,0 0.476808,-0.031 0.933227,-0.093 0.453509,-0.061 0.86844,-0.1521 1.241144,-0.2788 0.206742,0.7032 0.384357,1.4705 0.528494,2.2974 0.14413,0.8284 0.217654,1.6772 0.217654,2.5449 0,0.3327 -0.0095,0.6457 -0.0313,0.9332 -0.02258,0.2883 -0.05168,0.5991 -0.09245,0.9289 -0.62166,0.2497 -1.428958,0.4448 -2.421145,0.5918 -0.99437,0.1427 -2.092839,0.2162 -3.29395,0.2162 -2.812049,0 -5.025732,-0.693 -6.641775,-2.0783 -1.613127,-1.3896 -2.4226,-3.572 -2.4226,-6.5544 0,-0.5794 0.04077,-1.1866 0.124481,-1.8308 0.08225,-0.6406 0.187079,-1.3132 0.307917,-2.0171 l 4.099793,-21.23786 z"
         id="path362"
         inkscape:connector-curvature="0"
         style="fill:#2b2864" />
      <path
         d="m 84.741436,1003.5142 c -0.458608,2.6083 -0.788369,4.9159 -0.995832,6.9228 -0.210379,2.0099 -0.31156,3.5742 -0.31156,4.6887 0,0.4579 0,0.8386 0,1.1509 0,0.3094 0.02038,0.6522 0.06259,1.022 -1.367807,0.2497 -2.71305,0.3749 -4.037188,0.3749 -1.155974,0 -2.442256,-0.1252 -3.849368,-0.3749 -0.08371,-0.3298 -0.163793,-0.7236 -0.245319,-1.1785 -0.08299,-0.4586 -0.126664,-1.1378 -0.126664,-2.0499 0,-0.3713 0,-0.7651 0,-1.1786 0,-0.4142 0.04365,-0.8917 0.126664,-1.4297 -1.205476,1.9036 -2.731978,3.5022 -4.594788,4.7797 -1.863545,1.2849 -4.037916,1.9313 -6.523848,1.9313 -2.731978,0 -4.781147,-0.8743 -6.146766,-2.6141 -1.364898,-1.7376 -2.050624,-4.0357 -2.050624,-6.8907 0,-3.1083 0.465883,-6.1082 1.397655,-9.00469 0.931766,-2.89577 2.31632,-5.46396 4.160936,-7.70093 1.839517,-2.23552 4.128906,-4.02627 6.863794,-5.37442 2.729796,-1.34233 5.915283,-2.01495 9.560833,-2.01495 1.821316,0 3.521068,0.1252 5.091973,0.37489 1.576005,0.24532 3.125072,0.59764 4.655938,1.05406 l -3.03844,17.51214 z m -6.397911,-11.55099 c -0.37271,-0.0815 -0.733774,-0.13322 -1.089011,-0.1536 -0.34941,-0.0226 -0.693728,-0.032 -1.024945,-0.032 -1.98583,0 -3.673935,0.49646 -5.062133,1.49083 -1.383092,0.99292 -2.533246,2.23334 -3.443907,3.7249 -0.912117,1.49229 -1.573816,3.09516 -1.987285,4.81026 -0.41275,1.7194 -0.620212,3.2859 -0.620212,4.6887 0,3.0646 1.015481,4.5955 3.040629,4.5955 1.990202,0 3.828992,-1.2077 5.529471,-3.6339 1.693925,-2.4226 2.939441,-5.8221 3.727076,-10.21306 l 0.930317,-5.2776 z"
         id="path364"
         inkscape:connector-curvature="0"
         style="fill:#2b2864" />
      <path
         d="m 93.24456,999.10362 c 0.452781,-2.60531 0.794189,-4.91654 1.02349,-6.92349 0.224208,-2.00621 0.341408,-3.56911 0.341408,-4.68869 0,-0.45642 0,-0.83714 0,-1.14651 0,-0.31229 -0.01819,-0.65516 -0.06039,-1.02641 1.364171,-0.24459 2.73344,-0.36979 4.099059,-0.36979 0.618029,0 1.240423,0.0291 1.863543,0.0903 0.61657,0.0641 1.28046,0.15505 1.98511,0.28026 0.083,0.32976 0.16525,0.72576 0.24895,1.18073 0.0815,0.45642 0.12375,1.13996 0.12375,2.04771 0,0.36979 -0.008,0.74469 -0.0313,1.11812 -0.0196,0.37271 -0.0706,0.82913 -0.15358,1.36563 0.49937,-0.86771 1.11521,-1.69757 1.86354,-2.48375 0.74323,-0.78473 1.59347,-1.469 2.54197,-2.04771 0.95507,-0.57945 1.97929,-1.03587 3.07703,-1.36636 1.09556,-0.33339 2.20641,-0.49791 3.32161,-0.49791 2.48302,0 4.41717,0.62967 5.80827,1.8963 1.38237,1.26153 2.07756,3.36092 2.07756,6.30255 0,0.61875 -0.04,1.28336 -0.12229,1.98656 -0.0859,0.70465 -0.18999,1.44861 -0.31156,2.23697 l -3.60188,20.36637 c -1.57454,0.2505 -3.0843,0.3735 -4.53217,0.3735 -1.45007,0 -2.87758,-0.123 -4.28324,-0.3735 l 3.47375,-19.68574 c 0.16815,-0.82621 0.25114,-1.61458 0.25114,-2.35999 0,-1.2397 -0.27079,-2.10886 -0.80802,-2.60532 -0.53722,-0.49864 -1.30593,-0.74469 -2.2952,-0.74469 -0.58236,0 -1.23241,0.14413 -1.95817,0.43459 -0.72503,0.28899 -1.45953,0.89974 -2.20349,1.83005 -0.7447,0.93177 -1.47118,2.24717 -2.17583,3.94473 -0.70101,1.69539 -1.30448,3.93447 -1.79875,6.70797 l -2.299587,12.4799 c -1.614582,0.2504 -3.121427,0.3734 -4.535094,0.3734 -1.443521,0 -2.873933,-0.123 -4.280318,-0.3734 l 3.350728,-18.32234 z"
         id="path366"
         inkscape:connector-curvature="0"
         style="fill:#781240" />
      <path
         d="m 133.54724,1005.2533 c 0.24969,1.9887 0.90848,3.4687 1.98366,4.4376 1.07954,0.9769 2.65117,1.4609 4.72436,1.4609 1.65389,0 3.11196,-0.1747 4.37495,-0.5277 1.26371,-0.3502 2.59804,-0.816 4.00588,-1.3962 0.66243,0.8298 1.10575,1.8322 1.33651,3.0144 0.22566,1.1749 0.33922,2.4292 0.33922,3.7533 -0.70465,0.3334 -1.51994,0.6326 -2.45317,0.9012 -0.93323,0.2693 -1.89411,0.495 -2.88485,0.6835 -0.99583,0.1857 -1.98583,0.3298 -2.98239,0.4324 -0.99437,0.1063 -1.88392,0.1609 -2.66938,0.1609 -2.52597,0 -4.6916,-0.3145 -6.49108,-0.9354 -1.79803,-0.6217 -3.29104,-1.501 -4.47104,-2.6388 -1.17709,-1.1363 -2.05063,-2.5245 -2.60823,-4.1624 -0.55834,-1.635 -0.83786,-3.4446 -0.83786,-5.4319 0,-2.5275 0.4324,-5.00975 1.30593,-7.45419 0.87062,-2.44152 2.10157,-4.6239 3.69505,-6.54641 1.59275,-1.92832 3.54,-3.4803 5.83521,-4.65885 2.29958,-1.18218 4.8765,-1.77109 7.73587,-1.77109 1.3649,0 2.63443,0.16525 3.81734,0.5001 1.17782,0.32831 2.20277,0.83568 3.07339,1.51486 0.86844,0.68718 1.55052,1.52286 2.04916,2.51869 0.49573,0.99291 0.74615,2.15253 0.74615,3.47812 0,1.86281 -0.43531,3.47812 -1.30448,4.84229 -0.86989,1.36781 -2.03242,2.52451 -3.48103,3.47668 -1.44789,0.955 -3.0945,1.7259 -4.93183,2.3301 -1.8468,0.5984 -3.76056,1.0461 -5.74713,1.3336 l -4.16021,0.6843 z m 3.54,-6.33385 c 1.57091,-0.25332 2.85209,-0.56998 3.84646,-0.96598 0.9951,-0.39236 1.78274,-0.82622 2.35927,-1.30157 0.5809,-0.47753 0.97618,-0.96234 1.18219,-1.4588 0.20673,-0.49719 0.31228,-0.99292 0.31228,-1.49156 0,-0.78618 -0.25842,-1.42823 -0.77744,-1.92469 -0.51902,-0.49864 -1.21057,-0.74614 -2.07974,-0.74614 -1.07517,0 -2.05936,0.24022 -2.95109,0.71557 -0.88882,0.47535 -1.66408,1.10793 -2.32869,1.89266 -0.66171,0.78691 -1.23242,1.68665 -1.70558,2.70213 -0.4768,1.01548 -0.83932,2.04043 -1.08682,3.07338 l 3.22916,-0.495 z"
         id="path368"
         inkscape:connector-curvature="0"
         style="fill:#781240" />
      <path
         d="m 159.87629,992.02727 h -4.78186 c 0,-1.1174 0.0815,-2.21587 0.24676,-3.29104 0.16743,-1.07809 0.47681,-2.2166 0.93032,-3.41771 h 4.78624 l 0.36979,-1.86572 c 0.20674,-1.03295 0.33049,-2.0135 0.37344,-2.94527 0.0422,-0.93104 0.0611,-1.7114 0.0611,-2.33015 1.07518,-0.70101 2.42333,-1.19892 4.03718,-1.4901 1.61458,-0.28972 3.10687,-0.43386 4.4725,-0.43386 0.20237,0.62021 0.30792,1.40712 0.30792,2.36 0,0.66025 -0.0517,1.37582 -0.15578,2.14234 -0.10264,0.76726 -0.23804,1.60439 -0.40328,2.5136 l -0.37271,2.04989 h 7.70166 c 0,1.2426 -0.10337,2.38257 -0.31302,3.4177 -0.206,1.0315 -0.49645,2.13143 -0.86771,3.29104 h -7.7002 l -2.17365,12.23171 c -0.0801,0.5816 -0.15505,1.1195 -0.21838,1.616 -0.0619,0.4965 -0.0939,0.974 -0.0939,1.4268 0,1.0788 0.25115,1.9261 0.74833,2.5492 0.49573,0.6188 1.42677,0.9289 2.79094,0.9289 0.70611,0 1.32632,-0.051 1.86281,-0.1558 0.53868,-0.1041 1.03733,-0.214 1.49229,-0.3407 0.53941,1.2004 0.80511,2.7764 0.80511,4.7186 0,0.3319 0,0.6595 0,0.9929 0,0.3334 -0.0182,0.6631 -0.0611,0.9929 -1.77691,0.538 -3.9127,0.808 -6.39427,0.808 -3.47812,0 -6.05504,-0.6391 -7.73296,-1.9232 -1.675,-1.2848 -2.51432,-3.4403 -2.51432,-6.4583 0,-0.6232 0.0408,-1.2637 0.12375,-1.9276 0.0815,-0.6603 0.18635,-1.3853 0.31229,-2.1715 l 2.36072,-13.28863 z"
         id="path370"
         inkscape:connector-curvature="0"
         style="fill:#781240" />
      <path
         d="m 193.28606,995.37727 c 0.0371,1.28628 -0.0509,2.5762 -0.26351,3.88286 -0.20965,1.30227 -0.49355,2.55437 -0.84587,3.75837 h -13.21731 c 0,-1.244 0.10047,-2.4867 0.29264,-3.7278 0.19582,-1.2426 0.46807,-2.54781 0.81967,-3.91343 h 13.21438 z"
         id="path372"
         inkscape:connector-curvature="0"
         style="fill:#781240" />
      <path
         d="m 200.24231,972.77457 c 1.48792,-0.2475 3.10396,-0.37271 4.84229,-0.37271 0.8284,0 1.61458,0.0131 2.35782,0.0313 0.74541,0.0211 1.49228,0.13685 2.23624,0.3414 l 0.12521,32.47874 12.85551,-32.47874 c 0.86989,-0.16597 1.64661,-0.26715 2.32943,-0.30865 0.68062,-0.0408 1.3962,-0.0641 2.1387,-0.0641 0.6253,0 1.26516,0.0233 1.92978,0.0641 0.65952,0.0415 1.34379,0.14341 2.04407,0.30865 l 1.49374,33.28384 11.73666,-33.28384 c 0.74251,-0.16597 1.5003,-0.26715 2.2661,-0.30865 0.76216,-0.0408 1.49883,-0.0641 2.20131,-0.0641 0.70974,0 1.44933,0.0313 2.23406,0.0961 0.79055,0.0626 1.51267,0.1536 2.17583,0.27662 l -18.00937,44.64857 c -0.78545,0.1252 -1.59202,0.2184 -2.42114,0.281 -0.82841,0.062 -1.6124,0.092 -2.35636,0.092 -1.53305,0 -3.19204,-0.123 -4.96968,-0.3734 l -1.61604,-28.74952 -12.04385,28.74952 -2.17656,0.1863 c -1.07736,0.1245 -2.11032,0.1871 -3.10323,0.1871 -1.20257,0 -2.54781,-0.123 -4.03573,-0.3734 l -2.23479,-44.64857 z"
         id="path374"
         inkscape:connector-curvature="0"
         style="fill:#781240" />
      <path
         d="m 298.45012,999.10362 c 0.45642,-2.60531 0.79637,-4.91654 1.02349,-6.92349 0.22785,-2.00621 0.34286,-3.56911 0.34286,-4.68869 0,-0.45642 0,-0.83714 0,-1.14651 0,-0.31229 -0.0189,-0.65516 -0.0611,-1.02641 1.36636,-0.24459 2.73053,-0.36979 4.09834,-0.36979 0.62021,0 1.23896,0.0291 1.86281,0.0903 0.62166,0.0641 1.28264,0.15505 1.98583,0.28026 0.0845,0.32976 0.16671,0.72576 0.24823,1.18073 0.0815,0.45642 0.12812,1.13996 0.12812,2.04771 0,0.36979 -0.0131,0.74469 -0.0335,1.11812 -0.0189,0.37271 -0.0721,0.82913 -0.15214,1.36563 0.41129,-0.74323 0.92667,-1.47628 1.55052,-2.20349 0.62167,-0.72212 1.31176,-1.37582 2.07828,-1.95672 0.76726,-0.57653 1.6175,-1.0446 2.54781,-1.3962 0.93032,-0.3516 1.95526,-0.52558 3.07484,-0.52558 0.86626,0 1.61095,0.10265 2.23334,0.30938 0.0422,0.16524 0.0626,0.32976 0.0626,0.49646 0,0.16524 0,0.35233 0,0.56052 0,1.15816 -0.14558,2.35927 -0.43531,3.59823 -0.28972,1.24333 -0.68281,2.27556 -1.18072,3.10687 -0.2446,-0.0437 -0.51539,-0.083 -0.80802,-0.12521 -0.28754,-0.04 -0.66316,-0.0611 -1.11594,-0.0611 -1.69757,0 -3.09449,0.28827 -4.19151,0.86772 -1.09847,0.58017 -1.99821,1.39692 -2.70141,2.45317 -0.70319,1.05552 -1.26298,2.33015 -1.67718,3.81807 -0.41566,1.4894 -0.78909,3.1462 -1.11376,4.9704 l -2.29958,12.4799 c -1.61822,0.2504 -3.12652,0.3735 -4.53509,0.3735 -1.44934,0 -2.87393,-0.1231 -4.28396,-0.3735 l 3.35219,-18.32019 z"
         id="path376"
         inkscape:connector-curvature="0"
         style="fill:#781240" />
      <path
         d="m 323.97115,984.07738 c 0.74469,-4.34802 1.11594,-7.6376 1.11594,-9.87604 0,-0.45132 -0.009,-0.83349 -0.032,-1.14651 -0.019,-0.31083 -0.0473,-0.65297 -0.0895,-1.02567 0.70174,-0.12303 1.50685,-0.21693 2.42115,-0.27662 0.90848,-0.0641 1.69611,-0.0954 2.35563,-0.0954 1.20402,0 2.52742,0.12302 3.97822,0.37198 0.20455,0.62166 0.31083,1.40857 0.31083,2.36145 0,1.82132 -0.24823,4.03573 -0.74468,6.64104 l -6.39428,36.39219 c -1.49374,0.2504 -3.00423,0.3735 -4.53436,0.3735 -1.41003,0 -2.81715,-0.1231 -4.225,-0.3735 l 5.83812,-33.34646 z"
         id="path378"
         inkscape:connector-curvature="0"
         style="fill:#781240" />
      <path
         d="m 331.11375,1000.5974 6.51948,-8.57013 c 1.19892,-1.57237 2.0084,-2.91906 2.42478,-4.03864 0.40838,-1.11813 0.63841,-2.0084 0.68209,-2.66938 0.8677,-0.16524 1.68228,-0.26715 2.45026,-0.31083 0.76725,-0.04 1.55999,-0.0597 2.39203,-0.0597 0.74323,0 1.53887,0.0291 2.39275,0.0903 0.84369,0.0641 1.62114,0.15505 2.32652,0.28026 -0.12303,1.07736 -0.50884,2.17291 -1.14943,3.29249 -0.64059,1.11594 -1.55999,2.52597 -2.76473,4.22281 l -6.26907,7.82612 6.02302,16.7631 c -0.8699,0.084 -1.667,0.1573 -2.38912,0.2184 -0.72722,0.063 -1.46389,0.092 -2.20712,0.092 -0.78765,0 -1.53161,-0.019 -2.23698,-0.06 -0.70465,-0.044 -1.46681,-0.1253 -2.2974,-0.2505 l -5.89708,-16.8264 z"
         id="path380"
         inkscape:connector-curvature="0"
         style="fill:#781240" />
      <g
         transform="matrix(0.68630253,0,0,0.68630253,-34.779371,936.46948)"
         id="g9149">
        <g
           id="g245"
           transform="matrix(1.0606768,0,0,1.0606768,-18.781092,-134.0755)">
          <g
             id="g247">
            <linearGradient
               gradientTransform="matrix(-0.7439,0.6682,0.6682,0.7439,6179.4355,5435)"
               y2="-7715.811"
               x2="788.19598"
               y1="-7734.6147"
               x1="770.83893"
               gradientUnits="userSpaceOnUse"
               id="linearGradient10435">
              <stop
                 id="stop10437"
                 style="stop-color:#B6B5B6"
                 offset="0.1333" />
              <stop
                 id="stop10439"
                 style="stop-color:#EAE9E9"
                 offset="0.4485" />
              <stop
                 id="stop10441"
                 style="stop-color:#929191"
                 offset="0.7697" />
            </linearGradient>
            <path
               inkscape:connector-curvature="0"
               style="fill:url(#linearGradient10898)"
               id="path256"
               d="m 418.82,228.448 c 9.283,10.336 25.187,11.185 35.518,1.903 10.338,-9.285 11.189,-25.189 1.906,-35.522 -9.285,-10.336 -25.19,-11.186 -35.524,-1.905 -10.333,9.285 -11.187,25.19 -1.9,35.524 z" />
            <radialGradient
               gradientUnits="userSpaceOnUse"
               gradientTransform="matrix(-0.7439,0.6682,0.6682,0.7439,6179.4375,5435)"
               r="24.6429"
               cy="-7728.3481"
               cx="780.13281"
               id="radialGradient10444">
              <stop
                 id="stop10446"
                 style="stop-color:#FFFFFF"
                 offset="0.2688" />
              <stop
                 id="stop10448"
                 style="stop-color:#EAE9E9"
                 offset="0.4485" />
              <stop
                 id="stop10450"
                 style="stop-color:#B6B5B6"
                 offset="1" />
            </radialGradient>
            <path
               inkscape:connector-curvature="0"
               style="fill:url(#radialGradient10900)"
               id="path265"
               d="m 453.999,229.969 c 10.106,-9.078 10.941,-24.69 1.865,-34.798 -9.083,-10.106 -24.691,-10.943 -34.8,-1.864 -10.11,9.08 -10.947,24.692 -1.864,34.797 9.08,10.111 24.691,10.947 34.799,1.865 z" />
            <radialGradient
               gradientUnits="userSpaceOnUse"
               gradientTransform="matrix(0.4202,0.7059,-0.5469,0.3279,6820.5078,5015.5479)"
               r="14.9124"
               cy="4712.876"
               cx="-9012.1328"
               id="radialGradient10453">
              <stop
                 id="stop10455"
                 style="stop-color:#FFFFFF"
                 offset="0.1939" />
              <stop
                 id="stop10457"
                 style="stop-color:#FFFFFF;stop-opacity:0"
                 offset="0.9879" />
            </radialGradient>
            <path
               inkscape:connector-curvature="0"
               style="fill:url(#radialGradient10902)"
               id="path272"
               d="m 458.666,210.694 c -2.814,1.689 -7.636,-1.193 -10.757,-6.437 -3.123,-5.247 -3.367,-10.87 -0.55,-12.557 2.819,-1.686 7.635,1.195 10.756,6.44 3.123,5.245 3.369,10.867 0.551,12.554 z" />
            <radialGradient
               gradientUnits="userSpaceOnUse"
               gradientTransform="matrix(-0.6771,0.6688,0.6861,0.8367,6233.3789,6188.1611)"
               r="15.0862"
               cy="-7736.1431"
               cx="707.60449"
               id="radialGradient10460">
              <stop
                 id="stop10462"
                 style="stop-color:#FFFFFF;stop-opacity:0.95"
                 offset="0" />
              <stop
                 id="stop10464"
                 style="stop-color:#FFFFFF;stop-opacity:0"
                 offset="0.9879" />
            </radialGradient>
            <path
               inkscape:connector-curvature="0"
               style="fill:url(#radialGradient10904)"
               id="path279"
               d="m 457.913,209.12 c -0.712,-10.796 -9.152,-19.934 -18.851,-20.414 -1.592,-0.08 -3.111,0.082 -4.546,0.451 2.003,-0.966 4.269,-1.453 6.703,-1.333 8.962,0.443 16.764,8.89 17.422,18.863 0.177,2.709 -0.194,5.248 -1.001,7.508 0.289,-1.611 0.389,-3.309 0.273,-5.075 z" />
            <radialGradient
               gradientUnits="userSpaceOnUse"
               gradientTransform="matrix(0.9844,-0.1762,0.1762,0.9844,-30.3336,77.3048)"
               r="8.2177"
               cy="220.5947"
               cx="419.39749"
               id="radialGradient10467">
              <stop
                 id="stop10469"
                 style="stop-color:#FFFFFF"
                 offset="0" />
              <stop
                 id="stop10471"
                 style="stop-color:#FFFFFF;stop-opacity:0"
                 offset="0.9879" />
            </radialGradient>
            <path
               inkscape:connector-curvature="0"
               style="fill:url(#radialGradient10906)"
               id="path286"
               d="m 417.823,218.628 c -0.596,0.131 -1.142,0.329 -1.64,0.598 0.434,1.248 1.054,2.5 1.832,3.688 0.458,-0.358 0.97,-0.63 1.523,-0.807 -0.693,-1.132 -1.274,-2.303 -1.715,-3.479 z m 5.138,9.327 c 1.822,1.215 3.628,1.875 5.251,2.016 -0.816,-0.365 -1.646,-0.82 -2.471,-1.373 -2.323,-1.548 -4.314,-3.628 -5.828,-5.91 -0.413,0.422 -0.757,0.905 -1.031,1.437 1.143,1.469 2.526,2.794 4.079,3.83 z m -5.585,-10.687 c -0.577,-2.049 -0.706,-4.07 -0.285,-5.848 0.062,-0.264 0.136,-0.517 0.222,-0.761 -0.771,0.688 -1.334,1.645 -1.617,2.857 -0.277,1.16 -0.27,2.441 -0.029,3.766 0.532,-0.071 1.103,-0.08 1.709,-0.014 z" />
          </g>
          <radialGradient
             gradientUnits="userSpaceOnUse"
             gradientTransform="matrix(0.4314,-0.3514,0.2522,0.3094,130.3559,278.5508)"
             r="21.9806"
             cy="299.69241"
             cx="502.73239"
             id="radialGradient10474">
            <stop
               id="stop10476"
               style="stop-color:#FFFFFF"
               offset="0" />
            <stop
               id="stop10478"
               style="stop-color:#FFFFFF;stop-opacity:0"
               offset="1" />
          </radialGradient>
          <path
             inkscape:connector-curvature="0"
             style="fill:url(#radialGradient10908)"
             id="path293"
             d="m 435.1,189.319 c 1.863,2.285 -0.875,7.598 -6.11,11.863 -5.237,4.268 -10.99,5.874 -12.853,3.589 -1.862,-2.286 0.874,-7.595 6.109,-11.862 5.236,-4.268 10.991,-5.873 12.854,-3.59 z" />
          <radialGradient
             gradientUnits="userSpaceOnUse"
             r="1.8184"
             cy="192.9785"
             cx="434.83401"
             id="radialGradient10481">
            <stop
               id="stop10483"
               style="stop-color:#FFFFFF;stop-opacity:0.5941"
               offset="0.099" />
            <stop
               id="stop10485"
               style="stop-color:#FFFFFF;stop-opacity:0"
               offset="1" />
          </radialGradient>
          <path
             inkscape:connector-curvature="0"
             style="fill:url(#radialGradient10910)"
             id="path300"
             d="m 436.652,192.981 c 0,1.002 -0.814,1.816 -1.818,1.816 -1.003,0 -1.817,-0.814 -1.817,-1.816 0,-1.006 0.814,-1.82 1.817,-1.82 1.004,0 1.818,0.814 1.818,1.82 z" />
          <path
             style="fill:#4d4d4d"
             inkscape:connector-curvature="0"
             id="path302"
             d="m 430.804,207.696 c -0.092,-0.364 -0.219,-0.515 -0.279,-0.337 -0.067,0.165 0.011,0.46 0.166,0.649 0.157,0.189 0.205,0.048 0.113,-0.312 z m 12.281,-8.547 c 0.631,0 1.533,-0.33 2.011,-0.745 l 0.733,-0.632 c 0.479,-0.413 1.085,-1.212 1.351,-1.787 l 0.114,-0.25 c 0.263,-0.573 0.777,-1.164 1.148,-1.322 0.364,-0.158 0.421,-0.735 0.122,-1.291 l -0.213,-0.399 c -0.307,-0.557 -1.052,-1.109 -1.671,-1.237 l -5.843,-1.212 c -0.622,-0.126 -1.547,0.062 -2.061,0.43 l -0.878,0.615 c -0.518,0.36 -0.858,0.897 -0.766,1.191 0.094,0.3 0.432,0.546 0.751,0.557 0.322,0.008 0.759,0.292 0.978,0.636 0.221,0.347 0.307,1.13 0.189,1.752 l -0.148,0.813 c -0.119,0.622 -0.11,1.628 0.012,2.25 l 0.094,0.477 c 0.123,0.619 0.458,1.223 0.751,1.35 0.286,0.124 0.785,-0.093 1.104,-0.48 0.319,-0.393 1.094,-0.715 1.729,-0.715 h 0.493 z m 4.095,7.028 c 0.327,0.118 0.671,0.042 0.765,-0.168 0.096,-0.212 0.051,-0.594 -0.097,-0.852 -0.149,-0.257 -0.265,-0.715 -0.259,-1.01 0.008,-0.296 -0.175,-0.422 -0.409,-0.281 -0.235,0.141 -0.33,0.512 -0.214,0.838 0.12,0.319 0.079,0.732 -0.086,0.917 -0.166,0.189 -0.029,0.436 0.3,0.556 z m -11.656,-13.055 c -0.303,-0.557 -0.109,-1.272 0.437,-1.594 l 2.148,-1.291 c 0.541,-0.328 0.507,-0.791 -0.076,-1.035 l -1.005,-0.419 c -0.588,-0.244 -1.573,-0.409 -2.204,-0.368 l -4.692,0.306 c -0.633,0.039 -0.984,0.007 -0.783,-0.065 0.199,-0.075 -0.123,0.031 -0.712,0.262 -2.662,1.043 -5.094,2.545 -7.203,4.403 -0.474,0.419 -0.691,0.869 -0.504,0.979 0.188,0.11 0.511,0.643 0.723,1.194 0.212,0.547 0.269,0.932 0.123,0.867 -0.138,-0.076 -0.221,0.109 -0.182,0.408 0.038,0.295 0.225,0.55 0.411,0.567 0.189,0.017 0.409,0.429 0.498,0.923 0.088,0.491 -0.029,1.298 -0.254,1.804 -0.229,0.501 -0.271,1.402 -0.102,2.009 l 0.71,2.508 c 0.173,0.607 0.511,1.178 0.754,1.27 0.241,0.096 0.533,0.454 0.652,0.811 0.115,0.351 0.524,1.041 0.911,1.542 l 0.444,0.574 c 0.387,0.5 0.864,0.938 1.068,0.976 0.205,0.041 0.403,0.37 0.441,0.734 0.037,0.371 0.332,0.752 0.651,0.852 0.32,0.103 0.5,0.43 0.4,0.725 -0.105,0.3 -0.345,0.674 -0.538,0.838 -0.198,0.168 -0.366,0.808 -0.377,1.446 l -0.021,1.485 c -0.011,0.628 0.186,1.35 0.438,1.611 0.252,0.26 0.219,0.924 -0.068,1.486 l -1.622,3.156 c -0.291,0.561 -0.696,1.502 -0.904,2.1 l -0.206,0.591 c -0.21,0.597 -0.227,1.565 -0.037,2.157 0.188,0.597 0.519,0.975 0.738,0.841 0.219,-0.134 0.321,-0.491 0.228,-0.793 -0.093,-0.31 0.043,-0.656 0.313,-0.77 0.264,-0.118 0.622,-0.495 0.691,-0.867 0.074,-0.371 0.486,-0.944 1.029,-1.266 l 5.382,-3.198 c 0.543,-0.324 1.173,-0.956 1.411,-1.409 0.234,-0.454 0.627,-0.968 0.877,-1.151 0.251,-0.181 0.17,-0.755 -0.175,-1.285 l -0.386,-0.584 c -0.349,-0.529 -0.835,-1.027 -1.088,-1.109 -0.248,-0.086 -0.375,-0.485 -0.278,-0.883 0.093,-0.399 -0.132,-0.821 -0.496,-0.948 -0.368,-0.127 -0.59,-0.487 -0.499,-0.81 0.095,-0.319 -0.185,-0.722 -0.626,-0.894 -0.438,-0.171 -0.96,-0.464 -1.162,-0.656 -0.203,-0.182 -0.672,-0.286 -1.048,-0.223 -0.378,0.062 -0.964,0.011 -1.308,-0.117 -0.347,-0.124 -0.568,-0.501 -0.498,-0.852 0.071,-0.339 -0.016,-0.691 -0.197,-0.776 -0.181,-0.085 -0.208,-0.381 -0.057,-0.652 0.147,-0.275 0.199,-0.582 0.112,-0.684 -0.083,-0.1 -0.34,-0.144 -0.563,-0.096 -0.231,0.045 -0.491,0.058 -0.587,0.024 -0.09,-0.028 -0.274,-0.289 -0.406,-0.581 -0.137,-0.288 0.031,-0.766 0.378,-1.064 0.348,-0.296 1.037,-0.396 1.551,-0.228 0.509,0.176 0.985,0.523 1.063,0.78 0.079,0.262 0.263,0.516 0.41,0.57 0.151,0.056 0.298,-0.185 0.327,-0.539 0.028,-0.351 0.418,-0.797 0.867,-0.993 0.445,-0.195 0.833,-0.54 0.862,-0.769 0.032,-0.227 0.229,-0.498 0.439,-0.608 0.215,-0.109 0.482,-0.151 0.6,-0.085 0.117,0.062 0.286,-0.117 0.384,-0.395 0.093,-0.282 0.669,-0.625 1.288,-0.763 l 1.451,-0.323 c 0.618,-0.14 0.969,-0.738 0.781,-1.346 l -0.436,-1.412 c -0.184,-0.605 -0.779,-1.35 -1.327,-1.667 l -0.538,-0.309 c -0.55,-0.314 -1.103,-0.245 -1.234,0.154 -0.137,0.402 -0.213,0.804 -0.175,0.91 0.041,0.104 -0.13,0.479 -0.382,0.839 -0.248,0.357 -0.575,0.243 -0.737,-0.258 -0.157,-0.505 -0.531,-1.085 -0.838,-1.305 -0.303,-0.224 -0.638,-0.584 -0.751,-0.808 -0.11,-0.229 0.101,-0.649 0.47,-0.941 0.366,-0.284 1.044,-0.329 1.503,-0.095 0.461,0.233 0.846,0.192 0.853,-0.099 0.007,-0.292 0.185,-0.75 0.395,-1.021 0.214,-0.274 0.554,-0.436 0.768,-0.356 0.213,0.079 0.192,0.47 -0.044,0.866 -0.234,0.402 0.01,0.993 0.553,1.326 l 0.119,0.075 c 0.538,0.333 1.367,0.374 1.857,0.089 0.483,-0.277 0.631,-0.962 0.333,-1.518 l -1.516,-2.78 z m -4.175,17.037 0.078,0.069 c 0.47,0.421 0.974,0.758 1.123,0.758 0.148,0 -0.098,-0.354 -0.552,-0.796 l -0.346,-0.334 c -0.453,-0.442 -0.897,-0.723 -0.99,-0.628 -0.095,0.092 0.214,0.512 0.687,0.931 z m -1.668,-2.096 c -0.335,-0.278 -0.684,-0.343 -0.777,-0.137 -0.096,0.202 0.101,0.529 0.438,0.731 0.337,0.207 0.688,0.271 0.78,0.144 0.094,-0.123 -0.102,-0.456 -0.441,-0.738 z m 31.398,-2.696 c -0.159,-0.615 -0.58,-1.199 -0.906,-1.316 -0.327,-0.12 -1.082,-0.068 -1.686,0.114 l -1.019,0.302 c -0.605,0.188 -1.202,0.048 -1.338,-0.306 -0.132,-0.354 0.035,-0.492 0.371,-0.31 0.339,0.18 0.83,0.138 1.108,-0.089 0.274,-0.226 0.068,-0.697 -0.452,-1.055 l -1.114,-0.755 c -0.524,-0.357 -1.461,-0.66 -2.092,-0.684 h -0.009 c -0.636,-0.027 -1.56,0.254 -2.074,0.622 l -1.176,0.849 c -0.515,0.374 -1.044,0.937 -1.185,1.264 -0.146,0.328 0.039,0.628 0.411,0.67 0.367,0.038 0.66,0.268 0.65,0.508 -0.005,0.243 0.26,0.45 0.598,0.457 0.334,0.011 0.697,-0.189 0.807,-0.439 0.112,-0.25 0.143,-0.58 0.071,-0.738 -0.071,-0.159 0.24,-0.546 0.696,-0.863 0.453,-0.323 0.897,-0.433 0.992,-0.244 0.097,0.189 -0.076,0.454 -0.383,0.595 -0.307,0.144 -0.553,0.473 -0.553,0.738 0,0.268 0.314,0.485 0.707,0.485 0.393,0 0.739,0.116 0.766,0.268 0.032,0.15 -0.41,0.295 -0.987,0.325 -0.581,0.032 -1.111,0.169 -1.184,0.296 -0.069,0.136 -0.525,0.147 -1.02,0.034 -0.494,-0.117 -0.932,-0.382 -0.979,-0.587 -0.044,-0.207 -0.231,-0.351 -0.411,-0.324 -0.181,0.021 -0.309,0.234 -0.283,0.468 0.023,0.233 -0.244,0.574 -0.6,0.752 -0.351,0.182 -0.769,0.303 -0.933,0.271 -0.169,-0.034 -0.548,0.045 -0.852,0.168 -0.303,0.127 -0.497,0.405 -0.429,0.626 0.07,0.22 0.02,0.528 -0.114,0.697 -0.132,0.162 -0.545,0.168 -0.919,0.014 -0.379,-0.162 -0.685,0.228 -0.685,0.859 v 0.011 c 0,0.631 0.465,0.922 1.039,0.652 l 0.628,-0.295 c 0.565,-0.272 1.087,-0.426 1.161,-0.351 0.068,0.079 0.313,0.054 0.538,-0.055 0.226,-0.11 0.56,0.075 0.751,0.412 0.19,0.333 0.324,0.904 0.3,1.261 -0.024,0.365 0.159,0.471 0.41,0.244 0.253,-0.23 0.354,-0.793 0.229,-1.265 -0.127,-0.47 -0.166,-0.89 -0.087,-0.938 0.08,-0.048 0.295,0.33 0.483,0.839 0.187,0.508 0.276,1.209 0.198,1.559 -0.079,0.354 0.017,0.869 0.21,1.15 0.198,0.286 0.436,0.169 0.527,-0.253 0.094,-0.423 0.3,-0.354 0.453,0.15 0.156,0.512 0.533,0.736 0.839,0.499 0.308,-0.23 0.462,-0.179 0.355,0.117 -0.111,0.295 -0.307,0.615 -0.441,0.708 -0.131,0.093 -0.641,0.007 -1.136,-0.195 -0.492,-0.204 -0.974,-0.529 -1.077,-0.725 -0.1,-0.195 -0.398,-0.254 -0.667,-0.127 -0.267,0.124 -0.75,0 -1.081,-0.285 -0.326,-0.282 -0.529,-0.594 -0.452,-0.694 0.079,-0.103 0.092,-0.36 0.03,-0.57 -0.061,-0.209 -0.511,-0.474 -0.993,-0.58 -0.489,-0.107 -1.35,0.017 -1.925,0.278 l -2.059,0.948 c -0.578,0.264 -1.2,0.965 -1.396,1.566 l -0.257,0.8 c -0.195,0.602 -0.143,1.501 0.113,2.013 0.261,0.508 0.943,1.112 1.532,1.346 l 0.231,0.089 c 0.585,0.233 1.249,0.711 1.486,1.057 0.237,0.354 0.293,0.674 0.128,0.712 -0.162,0.042 -0.162,0.528 0,1.097 0.165,0.563 0.209,1.273 0.1,1.589 -0.108,0.311 -0.34,0.685 -0.514,0.835 -0.17,0.148 -0.323,0.784 -0.341,1.412 l -0.076,2.625 c -0.019,0.629 0.316,1.284 0.747,1.457 0.43,0.172 1.209,0.027 1.739,-0.316 l 1.149,-0.756 c 0.528,-0.351 1.057,-0.855 1.184,-1.13 0.126,-0.275 0.451,-0.591 0.724,-0.712 0.275,-0.113 0.586,-0.525 0.694,-0.916 0.11,-0.392 0.162,-0.824 0.114,-0.965 -0.047,-0.145 0.313,-0.581 0.806,-0.977 l 2.393,-1.94 c 0.493,-0.396 0.553,-0.821 0.136,-0.949 -0.413,-0.123 -0.903,-0.463 -1.092,-0.762 -0.187,-0.299 -0.384,-1.052 -0.442,-1.684 l -0.083,-1.005 c -0.054,-0.633 -0.024,-1.323 0.07,-1.54 0.094,-0.22 0.29,-0.354 0.44,-0.299 0.151,0.052 0.314,0.607 0.374,1.24 l 0.219,2.429 c 0.056,0.631 0.581,1.119 1.169,1.085 0.586,-0.034 1.324,-0.226 1.647,-0.439 0.317,-0.212 0.47,-0.639 0.335,-0.952 -0.132,-0.316 -0.411,-0.563 -0.621,-0.553 -0.213,0.007 -0.454,-0.313 -0.541,-0.725 -0.083,-0.406 0.283,-0.471 0.827,-0.145 l 1.84,1.113 c 0.542,0.327 0.866,0.855 0.727,1.17 -0.142,0.324 -0.151,0.674 -0.016,0.784 0.135,0.109 0.225,0.711 0.203,1.343 l -0.007,0.179 c -0.021,0.635 0.14,1.147 0.36,1.147 0.217,0 0.614,-0.464 0.854,-1.048 1.167,-2.847 1.815,-5.96 1.815,-9.226 0.008,-2.15 -0.272,-4.231 -0.797,-6.216 z m -12.099,5.351 c 0.009,-0.243 -0.106,-0.325 -0.252,-0.189 -0.149,0.145 -0.157,0.34 -0.019,0.444 0.142,0.103 0.267,-0.011 0.271,-0.255 z m -3.221,-6 c -0.234,0.233 -0.323,0.583 -0.196,0.79 0.123,0.206 0.368,0.277 0.555,0.158 0.179,-0.116 0.268,-0.474 0.195,-0.793 -0.071,-0.32 -0.317,-0.393 -0.554,-0.155 z m 0.968,-4.06 c -0.143,-0.282 -0.672,-0.536 -1.177,-0.567 -0.513,-0.034 -0.842,0.368 -0.74,0.889 0.103,0.53 0.627,0.781 1.177,0.571 0.551,-0.21 0.881,-0.612 0.74,-0.893 z m 4.526,24.433 c -0.402,0.188 -0.896,0.574 -1.111,0.865 -0.208,0.292 -0.196,0.813 0.03,1.164 0.229,0.354 0.706,0.218 1.073,-0.302 l 0.413,-0.591 c 0.362,-0.515 0.581,-1.054 0.485,-1.205 -0.092,-0.148 -0.493,-0.118 -0.89,0.069 z" />
        </g>
        <path
           inkscape:connector-curvature="0"
           style="fill:url(#linearGradient10912)"
           id="path389"
           d="m 454.46532,65.300979 c -14.60022,7.064107 -28.76237,17.037651 -35.38206,28.706157 0.15168,2.173326 2.45017,8.669974 2.69412,9.063484 1.92195,-11.495616 18.38789,-25.352298 36.57108,-35.925124 -1.01825,-0.53246 -2.03544,-1.150835 -3.88314,-1.844517 z" />
        <path
           inkscape:connector-curvature="0"
           style="fill:url(#radialGradient10914)"
           id="path396"
           d="m 427.02031,112.89673 c -11.26863,-0.98325 -12.04293,-8.9956 -10.53465,-15.271626 7.58278,-22.584991 44.93239,-40.457395 66.70809,-44.882539 -31.67393,11.777756 -77.91201,43.938537 -56.17344,60.154165 z" />
        <path
           inkscape:connector-curvature="0"
           style="fill:url(#linearGradient10916)"
           id="path405"
           d="m 435.7274,115.36068 c 1.11583,-11.22514 9.99688,-28.095206 27.85444,-44.288559 -10.13371,12.5372 -21.8054,32.950989 -22.64651,45.614409 -0.97265,-0.17714 -3.27113,-0.70747 -5.20793,-1.32585 z" />
        <path
           inkscape:connector-curvature="0"
           style="fill:url(#radialGradient10918)"
           id="path412"
           d="m 447.01406,127.53937 c -20.6938,5.38506 -18.35925,-26.86694 14.65538,-56.804544 -15.09131,18.674276 -33.59482,54.814714 -14.65538,56.804544 z" />
        <g
           id="g414"
           transform="matrix(1.0606768,0,0,1.0606768,-18.781092,-134.0755)">
          <path
             style="fill:#781240"
             inkscape:connector-curvature="0"
             id="path416"
             d="m 456.739,191.139 c -0.601,0.843 -1.196,1.705 -1.793,2.584 4.651,4.528 7.548,10.849 7.548,17.854 0,13.771 -11.164,24.932 -24.934,24.932 -1.421,0 -2.811,-0.126 -4.168,-0.353 -0.073,1.124 -0.051,2.185 0.068,3.168 1.339,0.196 2.708,0.301 4.1,0.301 15.492,0 28.051,-12.557 28.051,-28.048 0,-8.067 -3.418,-15.323 -8.872,-20.438 z" />
          <path
             style="fill:#781240"
             inkscape:connector-curvature="0"
             id="path418"
             d="m 440.979,186.881 c 1.441,-0.783 2.893,-1.532 4.352,-2.254 -2.469,-0.711 -5.073,-1.099 -7.771,-1.099 -15.491,0 -28.048,12.557 -28.048,28.049 0,1.799 0.188,3.553 0.513,5.258 0.662,-1.901 1.536,-3.767 2.612,-5.592 0.179,-13.615 11.267,-24.598 24.923,-24.598 1.162,0 2.302,0.083 3.419,0.236 z" />
        </g>
        <path
           style="fill:#2b2864"
           inkscape:connector-curvature="0"
           id="path420"
           d="m 487.47782,49.986927 h 5.84964 v -5.507034 h -5.84964 v 5.507034 z m 20.72457,-4.356199 v 4.477116 h 4.75289 v -4.477116 h -4.75289 z m -6.98562,5.577038 h -4.74971 v 4.473935 h 4.74971 v -4.473935 z m -22.84592,16.183807 h 8.88953 v -8.370862 h -8.88953 v 8.370862 z" />
      </g>
    </g>
  </g>
</svg>
