<?xml version="1.0" encoding="UTF-8" standalone="no"?>
<svg
   xmlns:dc="http://purl.org/dc/elements/1.1/"
   xmlns:cc="http://creativecommons.org/ns#"
   xmlns:rdf="http://www.w3.org/1999/02/22-rdf-syntax-ns#"
   xmlns:svg="http://www.w3.org/2000/svg"
   xmlns="http://www.w3.org/2000/svg"
   viewBox="0 0 444 222.66667"
   height="222.66667"
   width="444"
   xml:space="preserve"
   id="svg2"
   version="1.1"><metadata
     id="metadata8"><rdf:RDF><cc:Work
         rdf:about=""><dc:format>image/svg+xml</dc:format><dc:type
           rdf:resource="http://purl.org/dc/dcmitype/StillImage" /><dc:title></dc:title></cc:Work></rdf:RDF></metadata><defs
     id="defs6"><clipPath
       id="clipPath18"
       clipPathUnits="userSpaceOnUse"><path
         id="path16"
         d="M 0,167 H 333 V 0 H 0 Z" /></clipPath><clipPath
       id="clipPath48"
       clipPathUnits="userSpaceOnUse"><path
         id="path46"
         d="m 15.468,160.847 c -0.017,-1.656 0.823,-3.117 2.108,-3.966 v 0 l 0.012,-0.032 C 10.885,151.963 6.773,143.756 6.773,134.456 v 0 l -0.014,-0.095 c 0.2,-5.763 2.038,-11.146 5.081,-15.67 v 0 l 0.012,-0.007 c 4.451,-6.421 7.184,-14.1 7.337,-22.384 v 0 c 1.534,16.282 17.833,29.02 31.916,29.02 v 0 c 0.182,0 0.361,-0.01 0.541,-0.013 v 0 c 0.028,-0.001 0.055,0 0.081,0.001 v 0 c 0.038,10e-4 0.078,0.002 0.117,0 v 0 l 0.106,0.01 c 0.084,-0.003 0.165,-0.008 0.247,-0.012 v 0 c 0.08,-0.004 0.157,-0.014 0.237,-0.018 v 0 c 2.624,-0.108 5.168,-0.532 7.593,-1.236 v 0 c 0.169,-0.045 0.335,-0.092 0.501,-0.141 v 0 c 0.072,-0.022 0.144,-0.044 0.216,-0.067 v 0 c 2.392,-0.707 4.682,-1.642 6.835,-2.797 v 0 l 0.245,-0.136 c 0.529,-0.237 1.13,-0.328 1.744,-0.238 v 0 c 1.235,0.185 2.194,1.063 2.544,2.18 v 0 l 0.073,0.266 c 0.983,3.28 2.849,6.322 5.544,8.739 v 0 l -0.01,0.027 c -5.936,0.173 -12.989,3.09 -16.59,8.37 v 0 l -0.037,0.029 -6.161,9.282 -0.018,0.035 c -4.734,7.02 -12.668,11.705 -21.71,11.962 v 0 l -0.301,0.002 c -3.621,0.038 -6.991,1.107 -9.833,2.918 v 0 l -0.581,0.377 c -0.67,0.386 -1.45,0.611 -2.281,0.62 v 0 c -0.018,0 -0.037,0.001 -0.055,0.001 v 0 c -2.564,0 -4.654,-2.063 -4.684,-4.634" /></clipPath><linearGradient
       id="linearGradient62"
       spreadMethod="pad"
       gradientTransform="matrix(50.74099,-139.40977,-139.40977,-50.74099,28.469727,168.80957)"
       gradientUnits="userSpaceOnUse"
       y2="0"
       x2="1"
       y1="0"
       x1="0"><stop
         id="stop54"
         offset="0"
         style="stop-opacity:1;stop-color:#2d2e82" /><stop
         id="stop56"
         offset="0.01944402"
         style="stop-opacity:1;stop-color:#2d2e82" /><stop
         id="stop58"
         offset="0.461655"
         style="stop-opacity:1;stop-color:#35a8e0" /><stop
         id="stop60"
         offset="1"
         style="stop-opacity:1;stop-color:#35a8e0" /></linearGradient><clipPath
       id="clipPath72"
       clipPathUnits="userSpaceOnUse"><path
         id="path70"
         d="m 55.227,81.137 c 0,-10.582 -5.323,-18.719 -14.373,-22.817 v 0 L 38.67,56.803 C 29.947,52.564 23.935,43.618 23.935,33.266 v 0 C 23.935,18.82 36.618,6.137 51.062,6.137 v 0 c 11.538,0 21.325,8.445 24.802,18.81 v 0 C 72.873,16.379 64.64,10.312 55.078,10.51 v 0 C 43.178,10.756 33.735,20.599 33.98,32.496 v 0 c 0.148,7.127 3.739,13.375 9.153,17.186 v 0 l 0.403,0.373 c 4.621,2.805 8.282,6.739 10.759,11.296 v 0 c 3.15,5.785 4.389,12.569 3.259,19.309 v 0 c -0.317,1.877 -0.815,3.751 -1.506,5.596 v 0 l -1.897,5.071 c 0.961,-3.131 1.076,-6.575 1.076,-10.19" /></clipPath><linearGradient
       id="linearGradient82"
       spreadMethod="pad"
       gradientTransform="matrix(-58.727699,49.27837,49.27837,58.727699,89.315918,13.967773)"
       gradientUnits="userSpaceOnUse"
       y2="0"
       x2="1"
       y1="0"
       x1="0"><stop
         id="stop78"
         offset="0"
         style="stop-opacity:1;stop-color:#2d2e82" /><stop
         id="stop80"
         offset="1"
         style="stop-opacity:1;stop-color:#35a8e0" /></linearGradient><clipPath
       id="clipPath92"
       clipPathUnits="userSpaceOnUse"><path
         id="path90"
         d="m 19.189,96.3 c 0.001,-0.029 0.003,-0.057 0.004,-0.087 v 0 l -0.006,0.071 -0.003,0.051 c -0.229,2.949 -2.696,5.272 -5.704,5.272 v 0 c -3.16,0 -5.722,-2.562 -5.722,-5.722 v 0 l 0.028,-1.709 c 0,-4.419 -1.257,-8.547 -3.433,-12.043 v 0 L 3.902,81.421 C 3.44,80.595 3.175,79.643 3.175,78.628 v 0 c 0,-3.159 2.562,-5.722 5.721,-5.722 v 0 c 2.057,0 3.859,1.084 4.868,2.711 v 0 l 0.051,0.075 c -0.802,-1.405 -1.679,-2.755 -2.623,-4.047 v 0 l -0.253,-0.37 C 6.739,64.906 5.015,56.526 5.015,49.194 v 0 C 5.015,24.79 21.281,4.074 45.653,2.856 v 0 c 7.387,-0.369 14.362,1.1 20.637,4.001 v 0 l 0.031,0.012 c 8.487,3.69 14.499,12.063 14.704,21.922 v 0 c 0.056,2.701 -0.328,5.31 -1.089,7.756 v 0 l -0.02,0.049 c -0.191,0.881 -1.062,1.438 -1.942,1.244 v 0 c -0.88,-0.192 -1.439,-1.061 -1.245,-1.943 v 0 l 0.006,-0.054 c 0.246,-1.373 0.359,-2.789 0.328,-4.236 v 0 C 77.037,30.348 76.897,29.12 76.665,27.923 v 0 c -0.007,-0.04 -0.008,-0.08 -0.017,-0.12 v 0 C 76.635,27.734 76.615,27.668 76.6,27.599 v 0 c -0.142,-0.671 -0.312,-1.327 -0.515,-1.973 v 0 c -10e-4,-0.003 -10e-4,-0.005 -0.002,-0.008 v 0 c -0.07,-0.225 -0.144,-0.448 -0.219,-0.671 v 0 C 72.387,14.582 62.6,7.111 51.062,7.111 v 0 c -14.444,0 -26.153,11.709 -26.153,26.155 v 0 c 0,10.352 6.012,19.298 14.735,23.537 v 0 l 1.21,0.542 c 9.05,4.098 15.347,13.21 15.347,23.792 v 0 c 0,3.615 -1.089,7.059 -2.05,10.19 v 0 l -9.35,25.009 c -0.086,0.299 -0.153,0.607 -0.2,0.921 v 0 c -0.572,3.837 2.076,7.408 5.911,7.98 v 0 c 0.382,0.056 0.76,0.075 1.134,0.07 v 0 c -0.18,0.003 -0.359,0.013 -0.541,0.013 v 0 c -16.682,0 -30.382,-12.738 -31.916,-29.02" /></clipPath><linearGradient
       id="linearGradient102"
       spreadMethod="pad"
       gradientTransform="matrix(-21.317242,-120.89606,-120.89606,21.317242,54.869141,125.53857)"
       gradientUnits="userSpaceOnUse"
       y2="0"
       x2="1"
       y1="0"
       x1="0"><stop
         id="stop98"
         offset="0"
         style="stop-opacity:1;stop-color:#2d2e82" /><stop
         id="stop100"
         offset="1"
         style="stop-opacity:1;stop-color:#35a8e0" /></linearGradient><clipPath
       id="clipPath112"
       clipPathUnits="userSpaceOnUse"><path
         id="path110"
         d="M 0,167 H 333 V 0 H 0 Z" /></clipPath></defs><g
     transform="matrix(1.3333333,0,0,-1.3333333,0,222.66667)"
     id="g10"><g
       id="g12"><g
         clip-path="url(#clipPath18)"
         id="g14"><g
           transform="translate(115.2813,90.6357)"
           id="g20"><path
             id="path22"
             style="fill:#2d2d82;fill-opacity:1;fill-rule:nonzero;stroke:none"
             d="M 0,0 C -0.258,-0.514 -0.555,-0.875 -0.893,-1.085 -1.231,-1.295 -1.634,-1.4 -2.101,-1.4 c -0.466,0 -0.992,0.18 -1.575,0.543 -0.583,0.361 -1.271,0.763 -2.064,1.207 -0.794,0.443 -1.721,0.845 -2.782,1.208 -1.063,0.361 -2.317,0.542 -3.763,0.542 -1.308,0 -2.444,-0.158 -3.413,-0.473 -0.968,-0.315 -1.784,-0.752 -2.449,-1.313 -0.665,-0.559 -1.162,-1.23 -1.489,-2.012 -0.326,-0.781 -0.489,-1.639 -0.489,-2.573 0,-1.189 0.332,-2.181 0.997,-2.974 0.665,-0.794 1.546,-1.47 2.643,-2.03 1.096,-0.56 2.344,-1.062 3.745,-1.505 1.399,-0.444 2.829,-0.916 4.287,-1.418 1.458,-0.502 2.888,-1.085 4.288,-1.75 1.399,-0.664 2.647,-1.505 3.745,-2.52 1.096,-1.014 1.978,-2.258 2.642,-3.727 0.665,-1.47 0.998,-3.255 0.998,-5.355 0,-2.287 -0.391,-4.428 -1.173,-6.423 -0.782,-1.995 -1.925,-3.733 -3.43,-5.215 -1.505,-1.482 -3.343,-2.648 -5.513,-3.5 -2.169,-0.851 -4.655,-1.277 -7.455,-1.277 -1.609,0 -3.197,0.157 -4.759,0.472 -1.564,0.315 -3.063,0.764 -4.497,1.347 -1.436,0.583 -2.778,1.284 -4.026,2.101 -1.249,0.816 -2.362,1.727 -3.343,2.73 l 2.731,4.515 c 0.256,0.326 0.565,0.6 0.928,0.822 0.361,0.222 0.763,0.332 1.207,0.332 0.583,0 1.213,-0.239 1.889,-0.716 0.677,-0.479 1.476,-1.01 2.398,-1.593 0.922,-0.584 2.007,-1.114 3.256,-1.593 1.247,-0.478 2.747,-0.718 4.497,-0.718 2.682,0 4.759,0.636 6.229,1.909 1.471,1.271 2.205,3.096 2.205,5.477 0,1.33 -0.332,2.415 -0.997,3.255 -0.665,0.84 -1.546,1.545 -2.642,2.117 -1.097,0.571 -2.345,1.056 -3.746,1.452 -1.399,0.397 -2.823,0.828 -4.269,1.295 -1.447,0.467 -2.87,1.028 -4.271,1.681 -1.399,0.652 -2.648,1.505 -3.745,2.555 -1.096,1.049 -1.977,2.362 -2.642,3.937 -0.665,1.575 -0.997,3.518 -0.997,5.827 0,1.844 0.367,3.641 1.102,5.391 0.736,1.75 1.808,3.302 3.22,4.655 1.412,1.353 3.144,2.438 5.197,3.255 2.054,0.816 4.399,1.225 7.035,1.225 2.987,0 5.741,-0.467 8.261,-1.401 2.52,-0.932 4.666,-2.239 6.44,-3.92 z" /></g><path
           id="path24"
           style="fill:#2d2d82;fill-opacity:1;fill-rule:nonzero;stroke:none"
           d="m 135.826,49.23 h -8.646 v 35.91 h 8.646 z m 1.295,46.375 c 0,-0.747 -0.152,-1.447 -0.455,-2.099 -0.304,-0.654 -0.706,-1.226 -1.208,-1.716 -0.502,-0.489 -1.091,-0.881 -1.767,-1.172 -0.677,-0.292 -1.4,-0.437 -2.17,-0.437 -0.747,0 -1.453,0.145 -2.118,0.437 -0.665,0.291 -1.242,0.683 -1.732,1.172 -0.49,0.49 -0.881,1.062 -1.173,1.716 -0.292,0.652 -0.437,1.352 -0.437,2.099 0,0.77 0.145,1.494 0.437,2.17 0.292,0.677 0.683,1.26 1.173,1.75 0.49,0.491 1.067,0.881 1.732,1.173 0.665,0.291 1.371,0.438 2.118,0.438 0.77,0 1.493,-0.147 2.17,-0.438 0.676,-0.292 1.265,-0.682 1.767,-1.173 0.502,-0.49 0.904,-1.073 1.208,-1.75 0.303,-0.676 0.455,-1.4 0.455,-2.17" /><path
           id="path26"
           style="fill:#2d2d82;fill-opacity:1;fill-rule:nonzero;stroke:none"
           d="m 156.195,49.23 h -8.646 v 52.01 h 8.646 z" /><path
           id="path28"
           style="fill:#2d2d82;fill-opacity:1;fill-rule:nonzero;stroke:none"
           d="m 176.565,49.23 h -8.646 v 35.91 h 8.646 z m 1.295,46.375 c 0,-0.747 -0.152,-1.447 -0.455,-2.099 -0.303,-0.654 -0.706,-1.226 -1.208,-1.716 -0.502,-0.489 -1.091,-0.881 -1.766,-1.172 -0.678,-0.292 -1.401,-0.437 -2.171,-0.437 -0.746,0 -1.452,0.145 -2.117,0.437 -0.665,0.291 -1.243,0.683 -1.733,1.172 -0.49,0.49 -0.881,1.062 -1.173,1.716 -0.292,0.652 -0.437,1.352 -0.437,2.099 0,0.77 0.145,1.494 0.437,2.17 0.292,0.677 0.683,1.26 1.173,1.75 0.49,0.491 1.068,0.881 1.733,1.173 0.665,0.291 1.371,0.438 2.117,0.438 0.77,0 1.493,-0.147 2.171,-0.438 0.675,-0.292 1.264,-0.682 1.766,-1.173 0.502,-0.49 0.905,-1.073 1.208,-1.75 0.303,-0.676 0.455,-1.4 0.455,-2.17" /><g
           transform="translate(212.9648,77.5459)"
           id="g30"><path
             id="path32"
             style="fill:#37aadc;fill-opacity:1;fill-rule:nonzero;stroke:none"
             d="m 0,0 c -0.258,-0.327 -0.508,-0.584 -0.753,-0.771 -0.245,-0.186 -0.601,-0.28 -1.067,-0.28 -0.444,0 -0.875,0.135 -1.295,0.404 -0.42,0.267 -0.922,0.571 -1.505,0.909 -0.584,0.338 -1.278,0.641 -2.083,0.91 -0.805,0.268 -1.803,0.402 -2.992,0.402 -1.518,0 -2.848,-0.274 -3.991,-0.822 -1.143,-0.549 -2.094,-1.336 -2.852,-2.362 -0.759,-1.028 -1.324,-2.27 -1.697,-3.728 -0.374,-1.459 -0.561,-3.109 -0.561,-4.952 0,-1.914 0.204,-3.617 0.613,-5.11 0.408,-1.494 0.997,-2.747 1.768,-3.763 0.769,-1.015 1.702,-1.785 2.8,-2.31 1.096,-0.525 2.333,-0.788 3.71,-0.788 1.376,0 2.49,0.169 3.343,0.508 0.85,0.338 1.568,0.712 2.152,1.12 0.583,0.408 1.09,0.781 1.522,1.12 0.432,0.338 0.915,0.507 1.452,0.507 0.701,0 1.225,-0.268 1.576,-0.805 l 2.485,-3.149 c -0.957,-1.12 -1.995,-2.06 -3.115,-2.818 -1.12,-0.758 -2.281,-1.365 -3.483,-1.82 -1.202,-0.455 -2.445,-0.775 -3.727,-0.963 -1.284,-0.186 -2.556,-0.28 -3.816,-0.28 -2.216,0 -4.304,0.415 -6.264,1.243 -1.96,0.828 -3.67,2.036 -5.128,3.622 -1.458,1.587 -2.613,3.53 -3.465,5.829 -0.852,2.297 -1.277,4.917 -1.277,7.857 0,2.636 0.379,5.08 1.137,7.332 0.758,2.252 1.872,4.2 3.342,5.845 1.471,1.645 3.29,2.934 5.46,3.868 2.171,0.932 4.667,1.399 7.49,1.399 2.684,0 5.034,-0.431 7.053,-1.295 C -1.15,5.996 0.664,4.76 2.274,3.149 Z" /></g><g
           transform="translate(237.8496,55.3555)"
           id="g34"><path
             id="path36"
             style="fill:#37aadc;fill-opacity:1;fill-rule:nonzero;stroke:none"
             d="m 0,0 c 2.986,0 5.197,1.003 6.632,3.01 1.435,2.007 2.153,4.946 2.153,8.82 0,3.873 -0.718,6.825 -2.153,8.855 C 5.197,22.715 2.986,23.73 0,23.73 c -3.034,0 -5.273,-1.021 -6.72,-3.062 -1.447,-2.043 -2.171,-4.988 -2.171,-8.838 0,-3.85 0.724,-6.784 2.171,-8.803 C -5.273,1.009 -3.034,0 0,0 m 0,30.345 c 2.683,0 5.115,-0.432 7.297,-1.295 2.182,-0.863 4.043,-2.088 5.583,-3.675 1.54,-1.587 2.729,-3.523 3.57,-5.81 0.84,-2.287 1.26,-4.842 1.26,-7.665 0,-2.847 -0.42,-5.414 -1.26,-7.7 C 15.609,1.913 14.42,-0.035 12.88,-1.645 11.34,-3.255 9.479,-4.492 7.297,-5.355 5.115,-6.218 2.683,-6.65 0,-6.65 c -2.684,0 -5.122,0.432 -7.315,1.295 -2.194,0.863 -4.066,2.1 -5.618,3.71 -1.551,1.61 -2.754,3.558 -3.605,5.845 -0.852,2.286 -1.277,4.853 -1.277,7.7 0,2.823 0.425,5.378 1.277,7.665 0.851,2.287 2.054,4.223 3.605,5.81 1.552,1.587 3.424,2.812 5.618,3.675 2.193,0.863 4.631,1.295 7.315,1.295" /></g><g
           transform="translate(263.7148,49.2305)"
           id="g38"><path
             id="path40"
             style="fill:#37aadc;fill-opacity:1;fill-rule:nonzero;stroke:none"
             d="m 0,0 v 35.91 h 5.285 c 1.12,0 1.855,-0.525 2.205,-1.575 l 0.56,-2.66 c 0.63,0.7 1.289,1.342 1.977,1.925 0.689,0.583 1.423,1.085 2.205,1.505 0.782,0.42 1.622,0.752 2.52,0.998 0.898,0.245 1.885,0.367 2.958,0.367 2.263,0 4.124,-0.613 5.582,-1.837 1.458,-1.226 2.55,-2.853 3.272,-4.883 0.561,1.19 1.261,2.211 2.101,3.063 0.84,0.851 1.762,1.545 2.765,2.082 1.003,0.537 2.07,0.933 3.203,1.19 1.131,0.257 2.268,0.385 3.412,0.385 1.983,0 3.745,-0.304 5.285,-0.91 1.54,-0.607 2.835,-1.494 3.885,-2.66 1.05,-1.167 1.848,-2.59 2.397,-4.27 0.548,-1.68 0.823,-3.605 0.823,-5.775 V 0 H 41.79 v 22.855 c 0,2.287 -0.502,4.007 -1.505,5.163 -1.004,1.155 -2.473,1.732 -4.41,1.732 -0.887,0 -1.71,-0.152 -2.468,-0.455 -0.759,-0.304 -1.424,-0.741 -1.995,-1.313 -0.571,-0.572 -1.02,-1.289 -1.348,-2.152 -0.326,-0.863 -0.489,-1.855 -0.489,-2.975 V 0 h -8.68 v 22.855 c 0,2.403 -0.485,4.153 -1.453,5.25 -0.968,1.096 -2.397,1.645 -4.287,1.645 -1.237,0 -2.397,-0.31 -3.482,-0.928 C 10.587,28.204 9.578,27.358 8.645,26.285 V 0 Z" /></g></g></g><g
       id="g42"><g
         clip-path="url(#clipPath48)"
         id="g44"><g
           id="g50"><g
             id="g52"><path
               id="path64"
               style="fill:url(#linearGradient62);stroke:none"
               d="m 15.468,160.847 c -0.017,-1.656 0.823,-3.117 2.108,-3.966 v 0 l 0.012,-0.032 C 10.885,151.963 6.773,143.756 6.773,134.456 v 0 l -0.014,-0.095 c 0.2,-5.763 2.038,-11.146 5.081,-15.67 v 0 l 0.012,-0.007 c 4.451,-6.421 7.184,-14.1 7.337,-22.384 v 0 c 1.534,16.282 17.833,29.02 31.916,29.02 v 0 c 0.182,0 0.361,-0.01 0.541,-0.013 v 0 c 0.028,-0.001 0.055,0 0.081,0.001 v 0 c 0.038,10e-4 0.078,0.002 0.117,0 v 0 l 0.106,0.01 c 0.084,-0.003 0.165,-0.008 0.247,-0.012 v 0 c 0.08,-0.004 0.157,-0.014 0.237,-0.018 v 0 c 2.624,-0.108 5.168,-0.532 7.593,-1.236 v 0 c 0.169,-0.045 0.335,-0.092 0.501,-0.141 v 0 c 0.072,-0.022 0.144,-0.044 0.216,-0.067 v 0 c 2.392,-0.707 4.682,-1.642 6.835,-2.797 v 0 l 0.245,-0.136 c 0.529,-0.237 1.13,-0.328 1.744,-0.238 v 0 c 1.235,0.185 2.194,1.063 2.544,2.18 v 0 l 0.073,0.266 c 0.983,3.28 2.849,6.322 5.544,8.739 v 0 l -0.01,0.027 c -5.936,0.173 -12.989,3.09 -16.59,8.37 v 0 l -0.037,0.029 -6.161,9.282 -0.018,0.035 c -4.734,7.02 -12.668,11.705 -21.71,11.962 v 0 l -0.301,0.002 c -3.621,0.038 -6.991,1.107 -9.833,2.918 v 0 l -0.581,0.377 c -0.67,0.386 -1.45,0.611 -2.281,0.62 v 0 c -0.018,0 -0.037,0.001 -0.055,0.001 v 0 c -2.564,0 -4.654,-2.063 -4.684,-4.634" /></g></g></g></g><g
       id="g66"><g
         clip-path="url(#clipPath72)"
         id="g68"><g
           id="g74"><g
             id="g76"><path
               id="path84"
               style="fill:url(#linearGradient82);stroke:none"
               d="m 55.227,81.137 c 0,-10.582 -5.323,-18.719 -14.373,-22.817 v 0 L 38.67,56.803 C 29.947,52.564 23.935,43.618 23.935,33.266 v 0 C 23.935,18.82 36.618,6.137 51.062,6.137 v 0 c 11.538,0 21.325,8.445 24.802,18.81 v 0 C 72.873,16.379 64.64,10.312 55.078,10.51 v 0 C 43.178,10.756 33.735,20.599 33.98,32.496 v 0 c 0.148,7.127 3.739,13.375 9.153,17.186 v 0 l 0.403,0.373 c 4.621,2.805 8.282,6.739 10.759,11.296 v 0 c 3.15,5.785 4.389,12.569 3.259,19.309 v 0 c -0.317,1.877 -0.815,3.751 -1.506,5.596 v 0 l -1.897,5.071 c 0.961,-3.131 1.076,-6.575 1.076,-10.19" /></g></g></g></g><g
       id="g86"><g
         clip-path="url(#clipPath92)"
         id="g88"><g
           id="g94"><g
             id="g96"><path
               id="path104"
               style="fill:url(#linearGradient102);stroke:none"
               d="m 19.189,96.3 c 0.001,-0.029 0.003,-0.057 0.004,-0.087 v 0 l -0.006,0.071 -0.003,0.051 c -0.229,2.949 -2.696,5.272 -5.704,5.272 v 0 c -3.16,0 -5.722,-2.562 -5.722,-5.722 v 0 l 0.028,-1.709 c 0,-4.419 -1.257,-8.547 -3.433,-12.043 v 0 L 3.902,81.421 C 3.44,80.595 3.175,79.643 3.175,78.628 v 0 c 0,-3.159 2.562,-5.722 5.721,-5.722 v 0 c 2.057,0 3.859,1.084 4.868,2.711 v 0 l 0.051,0.075 c -0.802,-1.405 -1.679,-2.755 -2.623,-4.047 v 0 l -0.253,-0.37 C 6.739,64.906 5.015,56.526 5.015,49.194 v 0 C 5.015,24.79 21.281,4.074 45.653,2.856 v 0 c 7.387,-0.369 14.362,1.1 20.637,4.001 v 0 l 0.031,0.012 c 8.487,3.69 14.499,12.063 14.704,21.922 v 0 c 0.056,2.701 -0.328,5.31 -1.089,7.756 v 0 l -0.02,0.049 c -0.191,0.881 -1.062,1.438 -1.942,1.244 v 0 c -0.88,-0.192 -1.439,-1.061 -1.245,-1.943 v 0 l 0.006,-0.054 c 0.246,-1.373 0.359,-2.789 0.328,-4.236 v 0 C 77.037,30.348 76.897,29.12 76.665,27.923 v 0 c -0.007,-0.04 -0.008,-0.08 -0.017,-0.12 v 0 C 76.635,27.734 76.615,27.668 76.6,27.599 v 0 c -0.142,-0.671 -0.312,-1.327 -0.515,-1.973 v 0 c -10e-4,-0.003 -10e-4,-0.005 -0.002,-0.008 v 0 c -0.07,-0.225 -0.144,-0.448 -0.219,-0.671 v 0 C 72.387,14.582 62.6,7.111 51.062,7.111 v 0 c -14.444,0 -26.153,11.709 -26.153,26.155 v 0 c 0,10.352 6.012,19.298 14.735,23.537 v 0 l 1.21,0.542 c 9.05,4.098 15.347,13.21 15.347,23.792 v 0 c 0,3.615 -1.089,7.059 -2.05,10.19 v 0 l -9.35,25.009 c -0.086,0.299 -0.153,0.607 -0.2,0.921 v 0 c -0.572,3.837 2.076,7.408 5.911,7.98 v 0 c 0.382,0.056 0.76,0.075 1.134,0.07 v 0 c -0.18,0.003 -0.359,0.013 -0.541,0.013 v 0 c -16.682,0 -30.382,-12.738 -31.916,-29.02" /></g></g></g></g><g
       id="g106"><g
         clip-path="url(#clipPath112)"
         id="g108"><g
           transform="translate(324.835,54.0703)"
           id="g114"><path
             id="path116"
             style="fill:#35a8e0;fill-opacity:1;fill-rule:nonzero;stroke:none"
             d="M 0,0 H 0.374 C 0.5,0 0.608,0.016 0.697,0.048 0.786,0.08 0.858,0.125 0.915,0.182 0.973,0.238 1.014,0.305 1.039,0.381 1.064,0.457 1.078,0.539 1.078,0.627 1.078,0.803 1.021,0.94 0.906,1.039 0.791,1.139 0.614,1.187 0.374,1.187 H 0 Z m 0,-0.641 v -1.482 h -0.93 v 4.007 h 1.304 c 0.289,0 0.536,-0.03 0.741,-0.09 C 1.319,1.734 1.486,1.651 1.615,1.546 1.744,1.439 1.839,1.313 1.897,1.169 1.956,1.023 1.985,0.866 1.985,0.695 1.985,0.565 1.968,0.442 1.933,0.327 1.898,0.212 1.847,0.104 1.777,0.007 1.709,-0.091 1.625,-0.179 1.524,-0.256 1.425,-0.333 1.31,-0.396 1.18,-0.445 1.242,-0.477 1.3,-0.516 1.354,-0.562 1.408,-0.606 1.455,-0.663 1.496,-0.729 L 2.349,-2.123 H 1.507 c -0.156,0 -0.268,0.059 -0.336,0.176 l -0.665,1.163 c -0.029,0.052 -0.064,0.089 -0.104,0.11 -0.039,0.023 -0.094,0.033 -0.166,0.033 z" /></g><g
           transform="translate(325.2812,58.625)"
           id="g118"><path
             id="path120"
             style="fill:#35a8e0;fill-opacity:1;fill-rule:nonzero;stroke:none"
             d="m 0,0 c -2.64,0 -4.781,-2.14 -4.781,-4.781 0,-2.642 2.141,-4.782 4.781,-4.782 2.641,0 4.781,2.14 4.781,4.782 C 4.781,-2.14 2.641,0 0,0 m 0,-1.4 c 1.864,0 3.381,-1.517 3.381,-3.381 0,-1.865 -1.517,-3.381 -3.381,-3.381 -1.864,0 -3.381,1.516 -3.381,3.381 0,1.864 1.517,3.381 3.381,3.381" /></g></g></g></g></svg>