<svg id="Calque_1" data-name="Calque 1" xmlns="http://www.w3.org/2000/svg" viewBox="0 0 2177.7 588.73"><defs><style>.cls-1{fill:#f49722;}.cls-2{fill:#eb5b28;}.cls-3{fill:#e52629;}.cls-4{fill:#ef7807;}</style></defs><title>MAXvector</title><path class="cls-1" d="M2237.92,124.46a38.37,38.37,0,0,0-28.68,0A35.5,35.5,0,0,0,2189.78,144a39.78,39.78,0,0,0,0,29.47,35.69,35.69,0,0,0,7.8,11.72,36.1,36.1,0,0,0,11.66,7.69,38.37,38.37,0,0,0,28.68,0,36.14,36.14,0,0,0,11.67-7.69,35.67,35.67,0,0,0,7.79-11.72,39.78,39.78,0,0,0,0-29.47,35.42,35.42,0,0,0-19.46-19.51ZM2253,158.71a33.34,33.34,0,0,1-2.22,12.22,29.28,29.28,0,0,1-6.17,9.74,28.56,28.56,0,0,1-9.35,6.42,30.66,30.66,0,0,1-23.35,0,28.46,28.46,0,0,1-9.35-6.42,29.3,29.3,0,0,1-6.18-9.74,34.77,34.77,0,0,1,0-24.45,29.51,29.51,0,0,1,6.18-9.74,28.39,28.39,0,0,1,9.35-6.41,30.54,30.54,0,0,1,23.35,0,28.49,28.49,0,0,1,9.35,6.41,29.38,29.38,0,0,1,6.17,9.74A33.35,33.35,0,0,1,2253,158.71Z" transform="translate(-82.51 -121.68)"/><path class="cls-1" d="M2230.17,161.62a8.23,8.23,0,0,1-1.81,4.46,6.23,6.23,0,0,1-4.19,1.89c-2.34,0-4.09-.66-5.35-2.51a12.54,12.54,0,0,1-1.92-7.26,14.11,14.11,0,0,1,1.74-7.39,5.71,5.71,0,0,1,5.33-2.74,5.52,5.52,0,0,1,4,1.4c1,.94,1.58,1.42,1.83,2.69l.07-.26h13.76a19.47,19.47,0,0,0-2.33-7.17,16,16,0,0,0-5.3-5.59,20.24,20.24,0,0,0-5.46-2.43,23.54,23.54,0,0,0-6.56-.86,22.39,22.39,0,0,0-8.8,1.73,20.54,20.54,0,0,0-6.87,4.72,21.6,21.6,0,0,0-4.46,7.12,24.38,24.38,0,0,0-1.6,8.89,25,25,0,0,0,1.55,8.89,20.5,20.5,0,0,0,4.41,7.07,20.83,20.83,0,0,0,6.87,4.66,22.63,22.63,0,0,0,8.9,1.7,24.4,24.4,0,0,0,8.25-1.25,18.36,18.36,0,0,0,6.29-3.87,18.68,18.68,0,0,0,3.82-5.28c1-2,1.61-6.11,1.81-8.51l0-2.33h-13.95Z" transform="translate(-82.51 -121.68)"/><path class="cls-2" d="M617,443.3h.55A104.24,104.24,0,0,1,721.66,339.18c56.32,0,102.22,45,104,100.87a265.47,265.47,0,0,1,77.8-186c1.08-1.08,2.28-2,3.38-3.07-48.07-46.31-113.27-75-185.14-75a266.17,266.17,0,0,0-185.95,75.7C585.75,300.36,617,368.2,617,443.3Z" transform="translate(-82.51 -121.68)"/><path class="cls-3" d="M535.71,251.76a266.19,266.19,0,0,0-186-75.7c-147.36,0-267.24,119.88-267.24,267.24V709.69H245.63V443.3a104.12,104.12,0,1,1,208.24,0V709.69H617V443.3C617,368.2,585.75,300.36,535.71,251.76Z" transform="translate(-82.51 -121.68)"/><path class="cls-4" d="M1018.76,369.43a103.33,103.33,0,0,1,146.1,0L1432,629.7l101.86-128.49-254-247.53a266.12,266.12,0,0,0-373-2.66c-1.1,1.06-2.3,2-3.38,3.07a266.42,266.42,0,0,0,374,379.49l0,0,61.47-59.17L1225.82,456.9l-60.94,58.65,0,0A103.22,103.22,0,0,1,988.59,443.3c0-1.35.07-2.69.11-4A102.88,102.88,0,0,1,1018.76,369.43Z" transform="translate(-82.51 -121.68)"/><path class="cls-1" d="M1920.3,516.93a104.13,104.13,0,0,1,147.25-147.26L2182.9,254.33A267,267,0,0,0,1807.54,252a266,266,0,0,0-372.06,3.13l-53.36,51.35L1495.24,424l53.86-51.84,1.11-1.09a103.3,103.3,0,1,1,0,146.09l-16.37-15.95L1432,629.7l3.32,3.23a266.4,266.4,0,0,0,373.14,2.48,267.2,267.2,0,0,0,374.46-3.14L2067.55,516.93A104.25,104.25,0,0,1,1920.3,516.93Z" transform="translate(-82.51 -121.68)"/></svg>