<svg width="727" height="129" viewBox="0 0 727 129" fill="none" xmlns="http://www.w3.org/2000/svg">
<g clip-path="url(#clip0_285_4542)">
<path d="M146.383 89.7874H132.516V113.834H107.098V23.3395H148.18C183.554 23.3395 188.111 47.3719 188.111 56.825C188.111 71.0649 180.746 80.4049 170.523 85.3966L189.909 113.841H162.694L146.39 89.7945L146.383 89.7874ZM162.434 56.818C162.434 52.5969 161.107 49.3162 158.453 46.9901C155.799 44.6639 151.86 43.4973 146.643 43.4973H132.523V69.9972H146.643C151.867 69.9972 155.799 68.8801 158.453 66.6388C161.107 64.3126 162.434 61.039 162.434 56.8109V56.818Z" fill="#201F1F"/>
<path d="M234.994 0L230.423 13.0379H253.362L257.933 0H234.994Z" fill="#201F1F"/>
<path d="M279.439 94.0509V113.834H207.287V23.3395H277.768V43.1155H232.452V58.3735H272.376V77.506H232.452V94.0509H279.439Z" fill="#201F1F"/>
<path d="M6.44571 92.8913C-2.06427 78.6656 -2.23278 58.7906 6.44571 44.2821C23.564 15.668 68.7189 14.1055 88.098 38.5904L71.9206 53.3251C58.7835 37.3742 42.1919 43.3488 37.642 45.9577C30.5012 50.0445 25.7055 57.8431 25.7055 68.5831C25.7055 77.4777 28.7809 86.2521 37.642 91.2085C41.588 93.4145 58.5378 100.096 71.9206 83.8411L88.098 98.5759C69.1682 122.495 23.9502 122.156 6.44571 92.8913Z" fill="#201F1F"/>
<path d="M727 94.0367V113.813H654.855V23.3182H725.336V43.1013H680.02V58.3522H719.943V77.4848H680.02V94.0367H727Z" fill="#201F1F"/>
<path d="M635.813 23.3182L597.293 113.813H572.261L533.875 23.3182H561.35L585.743 82.2715L610.648 23.3182H635.813Z" fill="#201F1F"/>
<path d="M514.868 23.3182H489.451V113.813H514.868V23.3182Z" fill="#201F1F"/>
<path d="M417.558 43.6174H389.957V23.3182H470.451V43.6174H442.976V113.82H417.558V43.6174Z" fill="#201F1F"/>
<path d="M362.671 31.7887L351.437 64.143L356.092 75.8587H347.358L340.512 95.5145H363.858L371.209 113.813H398.769L362.671 31.7887Z" fill="#201F1F"/>
<path d="M336.201 0H358.845L313.943 129H291.298L336.201 0Z" fill="#40B59D"/>
</g>
<defs>
<clipPath id="clip0_285_4542">
<rect width="727" height="129" fill="white"/>
</clipPath>
</defs>
</svg>
