<?xml version="1.0" encoding="UTF-8" standalone="no"?>
<svg
   xmlns:dc="http://purl.org/dc/elements/1.1/"
   xmlns:cc="http://creativecommons.org/ns#"
   xmlns:rdf="http://www.w3.org/1999/02/22-rdf-syntax-ns#"
   xmlns:svg="http://www.w3.org/2000/svg"
   xmlns="http://www.w3.org/2000/svg"
   xmlns:sodipodi="http://sodipodi.sourceforge.net/DTD/sodipodi-0.dtd"
   xmlns:inkscape="http://www.inkscape.org/namespaces/inkscape"
   version="1.1"
   id="Calque_1"
   x="0px"
   y="0px"
   viewBox="0 0 599.99998 600"
   xml:space="preserve"
   sodipodi:docname="logo_niji.svg"
   width="600"
   height="600"
   inkscape:version="0.92.2 2405546, 2018-03-11"><metadata
   id="metadata76"><rdf:RDF><cc:Work
       rdf:about=""><dc:format>image/svg+xml</dc:format><dc:type
         rdf:resource="http://purl.org/dc/dcmitype/StillImage" /><dc:title></dc:title></cc:Work></rdf:RDF></metadata><defs
   id="defs74" /><sodipodi:namedview
   pagecolor="#ffffff"
   bordercolor="#666666"
   borderopacity="1"
   objecttolerance="10"
   gridtolerance="10"
   guidetolerance="10"
   inkscape:pageopacity="0"
   inkscape:pageshadow="2"
   inkscape:window-width="1380"
   inkscape:window-height="931"
   id="namedview72"
   showgrid="false"
   fit-margin-top="0"
   fit-margin-left="0"
   fit-margin-right="0"
   fit-margin-bottom="0"
   inkscape:zoom="0.17890829"
   inkscape:cx="832.82894"
   inkscape:cy="300"
   inkscape:window-x="0"
   inkscape:window-y="27"
   inkscape:window-maximized="0"
   inkscape:current-layer="Calque_1" />
<style
   type="text/css"
   id="style2">
	.st0{fill:#0066FF;}
	.st1{fill:#FFFFFF;}
	.st2{fill:#1D1E1C;}
</style>
<g
   id="XMLID_1_">
	<g
   id="g22">
		<rect
   x="0"
   class="st0"
   width="600"
   height="600"
   id="rect4"
   y="0"
   style="fill:#0066ff" />
		<g
   id="g20">
			<path
   class="st1"
   d="m 172,373.3 h -66.4 v -5.7 c 10.8,0 11.9,-2.7 11.9,-15.9 v -75.8 c 0,-13.2 -1.1,-15.9 -11.9,-15.9 v -5.7 h 54.5 v 20.5 c 5.4,-11.6 19.4,-23.2 36.4,-23.2 24.8,0 38.3,17.5 38.3,39.1 v 61 c 0,13.2 1.1,15.9 11.9,15.9 v 5.7 h -66.4 v -5.7 c 10.8,0 11.9,-2.7 11.9,-15.9 v -55.9 c 0,-18.1 -7.3,-25.1 -17.5,-25.1 -5.7,0 -11.3,3.5 -14.6,10.8 v 70.2 c 0,13.2 1.3,15.9 11.9,15.9 z"
   id="path6"
   inkscape:connector-curvature="0"
   style="fill:#ffffff" />
			<path
   class="st1"
   d="m 264,260 v -5.7 h 54.5 v 97.4 c 0,13.2 1.3,15.9 11.9,15.9 v 5.7 H 264 v -5.7 c 10.8,0 11.9,-2.7 11.9,-15.9 V 275.9 C 275.9,262.7 274.8,260 264,260 Z"
   id="path8"
   inkscape:connector-curvature="0"
   style="fill:#ffffff" />
			<path
   class="st1"
   d="M 357.9,275.9 C 357.9,262.7 356.6,260 346,260 v -5.7 h 54.5 v 123.6 c 0,34.5 -23.2,49.4 -51.5,49.4 -14.6,0 -24.3,-3.8 -29.4,-8.1 l 2.4,-5.1 c 4.6,3 8.4,4.6 14.8,4.6 12.4,0 21,-8.1 21,-26.7 V 275.9 Z"
   id="path10"
   inkscape:connector-curvature="0"
   style="fill:#ffffff" />
			<path
   class="st1"
   d="m 428,260 v -5.7 h 54.5 v 97.4 c 0,13.2 1.3,15.9 11.9,15.9 v 5.7 H 428 v -5.7 c 10.8,0 11.9,-2.7 11.9,-15.9 V 275.9 C 439.9,262.7 438.8,260 428,260 Z"
   id="path12"
   inkscape:connector-curvature="0"
   style="fill:#ffffff" />
			<circle
   class="st1"
   cx="297.20001"
   cy="195.60001"
   r="22.9"
   id="circle14"
   style="fill:#ffffff" />
			<circle
   class="st1"
   cx="379.20001"
   cy="195.60001"
   r="22.9"
   id="circle16"
   style="fill:#ffffff" />
			<circle
   class="st1"
   cx="461.20001"
   cy="195.60001"
   r="22.9"
   id="circle18"
   style="fill:#ffffff" />
		</g>
	</g>
</g>


</svg>