<?xml version="1.0" encoding="UTF-8" standalone="no"?>
<svg
   xmlns:dc="http://purl.org/dc/elements/1.1/"
   xmlns:cc="http://creativecommons.org/ns#"
   xmlns:rdf="http://www.w3.org/1999/02/22-rdf-syntax-ns#"
   xmlns:svg="http://www.w3.org/2000/svg"
   xmlns="http://www.w3.org/2000/svg"
   xmlns:sodipodi="http://sodipodi.sourceforge.net/DTD/sodipodi-0.dtd"
   xmlns:inkscape="http://www.inkscape.org/namespaces/inkscape"
   width="1540.1801"
   height="610"
   viewBox="0 0 1540.1801 610"
   fill="none"
   version="1.1"
   id="svg36"
   sodipodi:docname="logo_zenika.svg"
   inkscape:version="1.0.2 (e86c870879, 2021-01-15)">
  <metadata
     id="metadata40">
    <rdf:RDF>
      <cc:Work
         rdf:about="">
        <dc:format>image/svg+xml</dc:format>
        <dc:type
           rdf:resource="http://purl.org/dc/dcmitype/StillImage" />
        <dc:title></dc:title>
      </cc:Work>
    </rdf:RDF>
  </metadata>
  <sodipodi:namedview
     pagecolor="#ffffff"
     bordercolor="#666666"
     borderopacity="1"
     objecttolerance="10"
     gridtolerance="10"
     guidetolerance="10"
     inkscape:pageopacity="0"
     inkscape:pageshadow="2"
     inkscape:window-width="640"
     inkscape:window-height="480"
     id="namedview38"
     showgrid="false"
     scale-x="0.1"
     fit-margin-top="100"
     fit-margin-left="100"
     fit-margin-right="100"
     fit-margin-bottom="100"
     inkscape:zoom="0.64085821"
     inkscape:cx="723.15639"
     inkscape:cy="292.74347"
     inkscape:current-layer="svg36"
     lock-margins="true" />
  <defs
     id="defs12">
    <linearGradient
       id="paint0_linear"
       x1="-12.836"
       y1="64.038002"
       x2="48.596001"
       y2="-11.345"
       gradientUnits="userSpaceOnUse"
       gradientTransform="matrix(10,0,0,10,100,100)">
      <stop
         stop-color="#EE2238"
         id="stop2" />
      <stop
         offset="1"
         stop-color="#BF1D67"
         id="stop4" />
    </linearGradient>
    <linearGradient
       id="paint1_linear"
       x1="-11.746"
       y1="49.294998"
       x2="49.706001"
       y2="-26.211"
       gradientUnits="userSpaceOnUse"
       gradientTransform="matrix(10,0,0,10,100,100)">
      <stop
         stop-color="#EE2238"
         id="stop7" />
      <stop
         offset="1"
         stop-color="#BF1D67"
         id="stop9" />
    </linearGradient>
  </defs>
  <path
     d="m 498.1,373.97 a 2.15,2.15 0 0 1 -0.07,0.22 l -0.08,0.22 C 469.5,453.47 393.84,510 305,510 191.78,510 100,418.21 100,305 c 0,-5 0.17,-9.93 0.52,-14.83 l 0.02,-0.17 v -0.03 l 0.1,-0.51 -0.02,0.29 231.87,-42.03 -125.16,125.18 a 31.11,31.11 0 0 0 -4.97,23.3 31.48,31.48 0 0 0 32.47,25.76 l 8.5,-1.55 h 0.02 l 254.76,-46.43 z"
     fill="url(#paint0_linear)"
     id="path14"
     style="fill:url(#paint0_linear);stroke-width:10" />
  <path
     d="m 510,305 a 203.54,203.54 0 0 1 -0.68,16.72 l -0.01,0.2 -222.25,40.51 120.7,-119.5 0.03,-0.02 1.2,-1.2 0.03,-0.03 c 2.55,-2.63 4.61,-5.7 6.11,-9.02 a 31.41,31.41 0 0 0 2.27,-18.63 31.73,31.73 0 0 0 -31.27,-26 h -0.39 l -10.64,1.94 -263.88,48.13 -0.08,0.23 0.1,-0.43 c 0,-0.07 0.04,-0.15 0.06,-0.22 C 139.16,157.53 215.36,100 305,100 c 113.22,0 205,91.78 205,205 z"
     fill="url(#paint1_linear)"
     id="path16"
     style="fill:url(#paint1_linear);stroke-width:10" />
  <g
     transform="matrix(10,0,0,10,100,180)"
     id="g20">
    <path
       d="m 13.3411,24.2179 c -0.1999,0 -0.3999,-0.0193 -0.595,-0.0564 -1.2998,-0.2476 -2.2923,-1.2441 -2.5294,-2.539 -0.1169,-0.6435 -0.0338,-1.2958 0.2403,-1.8868 0.071,-0.1548 0.1556,-0.3039 0.2596,-0.4571 L 23.19,6.80442 0.0405273,10.9988 0.0421399,10.973 C 0.169534,9.22894 0.520271,7.50751 1.08468,5.85703 1.08871,5.84252 1.09435,5.82881 1.1,5.8143 L 1.10725,5.79333 27.5061,0.976543 l 1.0643,-0.19351 0.0419,-8.06e-4 c 0.1862,0 0.3749,0.016125 0.5612,0.049183 1.3102,0.23383 2.3495,1.26588 2.5866,2.56804 0.1161,0.63697 0.037,1.28523 -0.229,1.87463 -0.1516,0.33784 -0.3588,0.64261 -0.6152,0.90788 l -12.15,12.02984 22.1923,-4.0443 -0.0024,0.0258 c -0.1451,1.7803 -0.5225,3.5332 -1.1207,5.2086 l -0.0041,0.0113 -25.486,4.6443 -0.0017,0.0016 -0.0104,8e-4 -0.8466,0.1548 c -0.05,0.0016 -0.0976,0.0032 -0.1452,0.0032 z"
       fill="#ffffff"
       id="path18" />
  </g>
  <path
     d="m 709.574,381.65 h -66.281 l 73.557,-97.802 c 1.597,-2.048 2.396,-4.72 2.396,-8.372 0,-8.195 -4.082,-12.292 -12.245,-12.292 h -88.819 c -8.163,0 -12.244,4.097 -12.244,12.292 0,8.194 4.081,12.292 12.244,12.292 h 66.459 l -73.735,97.801 c -1.597,2.049 -2.395,4.721 -2.395,8.373 0,8.195 4.081,12.292 12.244,12.292 h 88.819 c 8.163,0 12.245,-4.097 12.245,-12.292 0,-8.195 -4.082,-12.292 -12.245,-12.292 z"
     fill="#ffffff"
     id="path22"
     style="stroke-width:10" />
  <path
     d="m 848.436,271.203 c -9.76,-5.968 -21.384,-8.996 -34.871,-8.996 -13.753,0 -25.909,3.118 -36.468,9.264 -10.559,6.146 -18.899,14.696 -24.844,25.652 -6.034,10.867 -8.962,23.515 -8.962,37.767 0,14.163 3.194,26.633 9.494,37.499 6.3,10.867 15.084,19.418 26.353,25.653 11.18,6.146 24.046,9.264 38.42,9.264 7.986,0 16.326,-1.514 25.111,-4.454 8.784,-2.939 16.148,-6.769 22.005,-11.49 2.928,-2.227 4.347,-4.988 4.17,-8.106 -0.178,-3.117 -1.775,-6.057 -4.703,-8.64 -2.218,-1.959 -4.88,-2.85 -7.985,-2.761 -3.017,0.089 -5.857,1.069 -8.43,3.029 -3.46,2.583 -8.074,4.899 -13.664,6.947 -5.679,2.049 -11.18,3.029 -16.504,3.029 -9.938,0 -18.633,-2.138 -26.353,-6.503 -7.631,-4.364 -13.664,-10.243 -18.012,-17.814 -2.928,-4.988 -4.703,-10.511 -5.679,-16.478 h 98.934 c 3.461,0 6.3,-1.069 8.607,-3.296 2.218,-2.138 3.372,-4.899 3.372,-8.195 0,-13.806 -2.573,-25.92 -7.72,-36.519 -5.146,-10.511 -12.599,-18.795 -22.271,-24.852 z M 788.1,291.245 c 7.009,-4.365 15.527,-6.503 25.376,-6.503 8.696,0 16.061,2.049 22.183,6.057 6.034,4.008 10.736,9.442 14.108,16.3 2.307,4.899 3.815,10.244 4.614,16.123 H 767.78 c 0.888,-4.988 2.307,-9.709 4.348,-13.985 3.638,-7.66 8.962,-13.628 15.972,-17.992 z"
     fill="#ffffff"
     id="path24"
     style="stroke-width:10" />
  <path
     d="m 1015.253,269.595 c -9.494,-5.166 -20.231,-7.749 -32.209,-7.749 -11.446,0 -21.828,2.494 -30.967,7.571 -5.058,2.761 -9.405,6.146 -13.309,9.976 v -2.85 c 0,-4.009 -1.243,-7.215 -3.638,-9.709 -2.396,-2.405 -5.679,-3.652 -9.672,-3.652 -3.815,0 -7.01,1.247 -9.494,3.652 -2.485,2.405 -3.816,5.7 -3.816,9.709 v 116.595 c 0,3.831 1.243,7.037 3.816,9.531 2.484,2.494 5.679,3.83 9.494,3.83 3.993,0 7.187,-1.247 9.672,-3.83 2.395,-2.494 3.638,-5.7 3.638,-9.531 v -73.752 c 0,-6.413 1.774,-12.113 5.235,-17.101 3.46,-4.988 8.163,-8.908 14.108,-11.936 5.945,-2.94 12.511,-4.454 19.787,-4.454 7.985,0 15.084,1.514 21.206,4.543 6.122,3.028 11.091,7.749 14.729,13.984 3.638,6.235 5.502,14.341 5.502,24.317 v 64.31 c 0,3.83 1.242,7.037 3.815,9.531 2.484,2.494 5.679,3.83 9.494,3.83 3.815,0 7.01,-1.247 9.494,-3.83 2.485,-2.494 3.816,-5.701 3.816,-9.531 v -64.31 c 0,-14.43 -2.751,-26.633 -8.164,-36.609 -5.59,-9.798 -13.043,-17.369 -22.537,-22.535 z"
     fill="#ffffff"
     id="path26"
     style="stroke-width:10" />
  <path
     d="m 1105.76,263.271 c -3.82,0 -7.014,1.247 -9.498,3.652 -2.485,2.405 -3.816,5.701 -3.816,9.709 v 116.329 c 0,3.83 1.243,7.036 3.816,9.53 2.484,2.495 5.678,3.831 9.498,3.831 3.99,0 7.18,-1.247 9.67,-3.831 2.39,-2.494 3.64,-5.7 3.64,-9.53 V 276.543 c 0,-4.008 -1.25,-7.215 -3.64,-9.709 -2.49,-2.405 -5.68,-3.563 -9.67,-3.563 z"
     fill="#ffffff"
     id="path28"
     style="stroke-width:10" />
  <path
     d="m 1105.75,205.469 c -4.7,0 -8.697,1.692 -12.157,5.077 -3.372,3.385 -5.058,7.482 -5.058,12.114 0,4.631 1.686,8.729 5.058,12.114 3.372,3.384 7.457,5.077 12.157,5.077 4.7,0 8.69,-1.693 12.15,-5.077 3.38,-3.385 5.06,-7.483 5.06,-12.114 0,-4.632 -1.68,-8.729 -5.06,-12.114 -3.37,-3.385 -7.45,-5.077 -12.15,-5.077 z"
     fill="#ffffff"
     id="path30"
     style="stroke-width:10" />
  <path
     d="m 1225.72,325.179 47.82,-42.844 c 2.57,-2.404 3.99,-5.255 4.17,-8.372 0.18,-3.118 -0.97,-6.057 -3.37,-8.64 -2.22,-2.583 -4.97,-4.009 -8.16,-4.187 -3.2,-0.178 -6.13,0.98 -8.7,3.385 l -63.26,56.739 V 214.819 c 0,-3.831 -1.16,-6.948 -3.55,-9.264 -2.31,-2.316 -5.42,-3.563 -9.23,-3.563 -3.82,0 -6.92,1.158 -9.23,3.563 -2.31,2.316 -3.55,5.433 -3.55,9.264 v 178.59 c 0,3.83 1.16,6.947 3.55,9.263 2.31,2.316 5.41,3.563 9.23,3.563 3.81,0 6.92,-1.158 9.23,-3.563 2.3,-2.316 3.55,-5.433 3.55,-9.263 v -39.994 l 12.95,-11.579 49.51,61.549 c 2.22,2.761 5.06,4.275 8.43,4.543 3.37,0.267 6.48,-0.713 9.23,-3.029 2.93,-2.405 4.52,-5.255 4.79,-8.462 0.27,-3.206 -0.71,-6.235 -3.02,-8.996 z"
     fill="#ffffff"
     id="path32"
     style="stroke-width:10" />
  <path
     d="m 1430.51,297.747 c -6.3,-10.956 -14.91,-19.685 -25.65,-26.009 -10.73,-6.324 -22.89,-9.531 -36.47,-9.531 -13.57,0 -25.73,3.207 -36.55,9.531 -10.83,6.324 -19.43,15.053 -25.82,26.009 -6.3,10.956 -9.5,23.337 -9.5,37.143 0,13.806 2.93,26.098 8.7,36.965 5.86,10.867 13.75,19.507 23.87,25.92 10.02,6.324 21.47,9.531 34.16,9.531 12.69,0 24.04,-3.207 34.16,-9.531 6.21,-3.919 11.53,-8.729 16.15,-14.341 v 9.709 c 0,3.83 1.24,7.037 3.81,9.531 2.49,2.494 5.68,3.83 9.5,3.83 3.81,0 7.01,-1.247 9.49,-3.83 2.49,-2.494 3.82,-5.701 3.82,-9.531 v -58.342 c -0.18,-13.717 -3.37,-26.098 -9.67,-37.054 z m -38.42,79.631 c -6.93,4.275 -14.82,6.413 -23.7,6.413 -8.69,0 -16.5,-2.138 -23.6,-6.413 -7.01,-4.276 -12.6,-10.066 -16.68,-17.548 -4.08,-7.393 -6.12,-15.765 -6.12,-24.94 0,-9.442 2.04,-17.814 6.12,-25.207 4.08,-7.393 9.67,-13.272 16.68,-17.548 7.01,-4.275 14.91,-6.413 23.6,-6.413 8.88,0 16.77,2.138 23.7,6.413 6.92,4.276 12.42,10.155 16.41,17.548 3.99,7.393 6.03,15.854 6.03,25.207 0,9.264 -2.04,17.547 -6.03,24.94 -4.08,7.393 -9.49,13.272 -16.41,17.548 z"
     fill="#ffffff"
     id="path34"
     style="stroke-width:10" />
</svg>
