<?xml version="1.0" encoding="UTF-8"?>
<svg id="Calque_1" data-name="Calque 1" xmlns="http://www.w3.org/2000/svg" viewBox="0 0 578.89 142">
  <defs>
    <style>
      .cls-1 {
        fill: #002d5d;
      }
    </style>
  </defs>
  <g>
    <path class="cls-1" d="m130.38,69.97h16.41v56.34h29.51v14.08h-45.93v-70.42Z"/>
    <path class="cls-1" d="m233,129.21h-29.51l-4.45,11.18h-17.35l28.84-70.47h15.43l28.84,70.47h-17.29l-4.5-11.18Zm-23.87-13.98h18.23l-8.54-21.28-.52-2.28h-.1l-.52,2.28-8.54,21.28Z"/>
    <path class="cls-1" d="m319.91,130.5c-1.55,1.59-3.3,3.08-5.23,4.48-1.93,1.4-4.04,2.61-6.32,3.65-2.28,1.04-4.7,1.86-7.28,2.46-2.57.6-5.27.91-8.1.91-3.56,0-6.97-.44-10.25-1.32-3.28-.88-6.34-2.11-9.19-3.7-2.85-1.59-5.44-3.5-7.77-5.75-2.33-2.24-4.33-4.74-6.01-7.48-1.67-2.74-2.97-5.69-3.88-8.83-.91-3.14-1.37-6.42-1.37-9.84s.46-6.7,1.37-9.84c.91-3.14,2.21-6.08,3.88-8.83,1.67-2.74,3.68-5.23,6.01-7.46,2.33-2.23,4.92-4.14,7.77-5.75,2.85-1.61,5.91-2.84,9.19-3.7,3.28-.86,6.7-1.29,10.25-1.29,2.8,0,5.45.28,7.97.85,2.52.57,4.9,1.35,7.15,2.36,2.24,1,4.35,2.21,6.32,3.62,1.97,1.42,3.8,2.97,5.49,4.66l-9.99,10.61c-2.04-2.55-4.54-4.52-7.51-5.9-2.97-1.38-6.11-2.07-9.42-2.07-3.04,0-5.9.58-8.6,1.73-2.69,1.16-5.04,2.75-7.04,4.79-2,2.04-3.58,4.44-4.74,7.22-1.16,2.78-1.73,5.79-1.73,9.04s.58,6.26,1.73,9.04,2.74,5.19,4.74,7.22c2,2.04,4.35,3.63,7.04,4.79,2.69,1.16,5.56,1.73,8.6,1.73,1.62,0,3.23-.18,4.82-.54,1.59-.36,3.12-.89,4.58-1.58,1.47-.69,2.84-1.53,4.12-2.51s2.43-2.1,3.47-3.34l9.94,10.56Z"/>
    <path class="cls-1" d="m355.57,117.46h-10.46v22.94h-16.41v-70.42h30.86c3.69,0,7.09.58,10.2,1.73,3.11,1.16,5.79,2.78,8.05,4.87s4.02,4.59,5.28,7.51c1.26,2.92,1.89,6.15,1.89,9.71,0,2.49-.31,4.82-.93,7.02-.62,2.19-1.5,4.19-2.64,5.98-1.14,1.8-2.52,3.38-4.14,4.76-1.62,1.38-3.43,2.54-5.44,3.47l14.86,25.37h-18.85l-12.27-22.94Zm3.31-14.08c1.35,0,2.61-.23,3.78-.7s2.2-1.11,3.08-1.94c.88-.83,1.57-1.83,2.07-3s.75-2.49.75-3.94-.25-2.72-.75-3.91-1.19-2.22-2.07-3.08c-.88-.86-1.91-1.54-3.08-2.02s-2.43-.72-3.78-.72h-13.77v19.31h13.77Z"/>
    <path class="cls-1" d="m393.79,105.08c0-3.42.46-6.7,1.37-9.84.91-3.14,2.21-6.08,3.88-8.83,1.67-2.74,3.68-5.23,6.01-7.46,2.33-2.23,4.92-4.14,7.77-5.75,2.85-1.61,5.91-2.84,9.19-3.7,3.28-.86,6.7-1.29,10.25-1.29s6.92.43,10.2,1.29c3.28.86,6.35,2.1,9.22,3.7,2.87,1.61,5.47,3.52,7.82,5.75,2.35,2.23,4.36,4.71,6.03,7.46,1.67,2.74,2.97,5.69,3.88,8.83.91,3.14,1.37,6.42,1.37,9.84s-.46,6.7-1.37,9.84c-.91,3.14-2.21,6.08-3.88,8.83-1.67,2.74-3.69,5.24-6.03,7.48s-4.95,4.16-7.82,5.75c-2.87,1.59-5.94,2.82-9.22,3.7-3.28.88-6.68,1.32-10.2,1.32s-6.97-.44-10.25-1.32c-3.28-.88-6.34-2.11-9.19-3.7-2.85-1.59-5.44-3.5-7.77-5.75s-4.33-4.74-6.01-7.48c-1.67-2.74-2.97-5.69-3.88-8.83-.91-3.14-1.37-6.42-1.37-9.84Zm16.36.05c0,3.24.58,6.26,1.73,9.04,1.16,2.78,2.74,5.19,4.74,7.22,2,2.04,4.35,3.63,7.04,4.79,2.69,1.16,5.56,1.73,8.6,1.73s6.01-.58,8.7-1.73,5.03-2.75,7.02-4.79c1.98-2.04,3.56-4.44,4.71-7.22,1.16-2.78,1.73-5.79,1.73-9.04s-.58-6.26-1.73-9.04c-1.16-2.78-2.73-5.19-4.71-7.22-1.98-2.04-4.32-3.63-7.02-4.79-2.69-1.16-5.59-1.73-8.7-1.73s-5.9.58-8.6,1.73c-2.69,1.16-5.04,2.75-7.04,4.79-2,2.04-3.58,4.44-4.74,7.22-1.16,2.78-1.73,5.79-1.73,9.04Z"/>
    <path class="cls-1" d="m481.64,69.97h16.41v70.42h-16.41v-70.42Z"/>
    <path class="cls-1" d="m542.85,91.57l14.19-21.59h19.26l-23.2,33.45,25.79,36.97h-19.31l-16.72-25.27-16.67,25.27h-19.37l25.79-36.97-23.2-33.45h19.26l14.19,21.59Z"/>
  </g>
  <g>
    <path class="cls-1" d="m68.83,65.91c-.59.19-1.2.33-1.84.4,1.08,5.77,3.45,13.16,8.63,19.19,1.46,1.7,4.33,4.59,7.16,4.91,2.72.29,8.38-.73,12.99-6.26,0,0-18.74.7-26.94-18.23Z"/>
    <path class="cls-1" d="m73.7,62.25c-.37.54-.79,1.04-1.26,1.5,4.62,4.21,11.58,9.08,20.31,10.7,2.38.44,6.77.93,9.51-.71,2.62-1.58,7.03-6.26,7.66-14,0,0-16.67,13.48-36.22,2.52Z"/>
    <path class="cls-1" d="m107.14,29.71s-6.57,23.22-31.9,26.7c.01.21.03.43.03.64,0,.42-.04.82-.09,1.22,6.86.54,16.64.09,25.9-4.65,2.41-1.23,6.65-3.78,8.06-7.01,1.34-3.09,2.33-9.99-2-16.91Z"/>
    <path class="cls-1" d="m98.16,19.24c-.76-3.49-4.23-9.95-12.47-12.83,0,0,9.04,24.57-12.54,44.72.36.44.69.92.96,1.42,6.58-4.08,15.69-11.24,21.26-22.01,1.38-2.66,3.56-7.65,2.78-11.31Z"/>
    <path class="cls-1" d="m68.64,48.14c.54.16,1.06.38,1.55.63,3.41-7.81,7.41-20.41,5.51-33.72-.45-3.16-1.66-8.82-4.66-11.35-2.88-2.42-10.07-5.5-19.26-2.35,0,0,24.02,14.78,16.86,46.8Z"/>
    <path class="cls-1" d="m64.8,47.82c-1.82-8.84-6.19-22.44-16.49-32.52-2.4-2.34-7.05-6.28-11.34-6.38-4.11-.09-12.48,2.18-18.72,11.01,0,0,31.08-3.83,44.82,28.27.56-.18,1.13-.31,1.73-.38Z"/>
    <path class="cls-1" d="m59.51,50.35c-7.18-6.2-19.78-14.84-35.55-16.36-3.63-.35-10.27-.51-14.18,2.29C6.05,38.98,0,46.52,0,58.13,0,58.13,25.55,33.77,58.29,51.78c.36-.52.77-1,1.22-1.43Z"/>
    <path class="cls-1" d="m56.65,57.05c0-.41.04-.81.09-1.2-10.28-.43-27.37.67-42.74,10.21-3.46,2.15-9.51,6.5-11.23,11.48-1.63,4.78-2.28,15.18,5.05,24.91,0,0,7.56-38.09,48.87-44.72-.02-.23-.03-.45-.03-.68Z"/>
    <path class="cls-1" d="m58.98,63.2c-.39-.45-.74-.93-1.04-1.44-9.42,6.41-24.64,19.04-32.58,37.93-1.74,4.14-4.4,11.86-2.79,17.2,1.56,5.1,7.55,14.27,20.26,17.49,0,0-17.57-37.57,16.16-71.17Z"/>
    <path class="cls-1" d="m63.92,66.14c-.58-.13-1.14-.31-1.67-.54-4.42,11.54-10.46,32.91-5.5,54.63,1.06,4.64,3.56,12.91,8.37,16.3,4.62,3.23,15.77,6.88,29.17,1,0,0-39.88-19.88-30.37-71.4Z"/>
  </g>
</svg>