<?xml version="1.0" encoding="utf-8"?>
<!-- Generator: Adobe Illustrator 22.0.1, SVG Export Plug-In . SVG Version: 6.00 Build 0)  -->
<svg version="1.1" id="Calque_1" xmlns="http://www.w3.org/2000/svg" xmlns:xlink="http://www.w3.org/1999/xlink" x="0px" y="0px"
	 viewBox="0 0 346 98" style="enable-background:new 0 0 346 98;" xml:space="preserve">
<style type="text/css">
	.st0{fill:#5A5A5A;}
	.st1{fill:url(#SVGID_1_);}
	.st2{fill:url(#SVGID_2_);}
</style>
<g>
	<path class="st0" d="M112.2,34.4v28.2c0,4.8-0.4,8.8-3,12.4c-2.7,3.7-7.5,5.6-12.9,5.6c-2.1,0-7.1-1.4-7.1-1.4s-0.1-2.8-0.1-4.4
		c0-2,0-6.1,0-6.1l2.9,0.1c0,0,0.6,4,0.7,4.7c0.4,2.2,2.1,5.2,4.1,5.2c5.2,0,6.2-5,6.2-14.3V37.6c0-5.8-0.3-7.9-7.1-8.1v-2.2
		c3.6,0.2,7.7,0.3,11.8,0.3c3.8,0,7.8-0.2,11.5-0.3v2.2C114.8,29.7,112.2,30.9,112.2,34.4z"/>
	<path class="st0" d="M154.2,78.8c-15.2,3.3-29.6-5.4-32.6-19.6c-3.3-15.2,6.6-28.7,22.2-32c15.2-3.3,29.3,5,32.5,19.9
		C179.7,62.1,169.9,75.5,154.2,78.8z M144.5,29.4c-10.3,2.2-15,11.5-11.7,27.3c3.1,14.5,11.7,21.9,21.4,19.8
		c10.3-2.2,14.4-11.3,11.1-26.9C162.2,34.6,153.8,27.4,144.5,29.4z"/>
	<path class="st0" d="M228.6,42v13.1c0,6.1-0.4,10.7-1.5,13.8c-2.6,6.9-8.9,10.3-18.6,10.3s-16.2-2.4-19.5-7.7
		c-1.7-2.7-1.9-6.4-1.9-11.6V35c0-4.8-3.1-5.3-7.1-5.5v-2.2c3.7,0.2,7.7,0.3,11.8,0.3c4,0,8-0.2,11.8-0.3v2.2
		c-4.1,0.2-7.1,0.7-7.1,5.5V60c0,10.3,3.1,16.3,14.7,16.3c5.8,0,10.5-2.4,12.9-6.4c2.1-3.4,2.4-8.5,2.4-14.8V41.7
		c0-10.2-0.8-11.6-8-12.4v-2c2.9,0.2,6,0.3,8.8,0.3c2.9,0,6.1-0.3,8.7-0.3v2.1C230.4,30.1,228.6,29.7,228.6,42z"/>
	<path class="st0" d="M286.4,34.8c-2,4.2-7.1,20.2-17.9,44.6h-2.8l-17.1-42.1c-2.4-6.1-3-7.7-8.7-7.9v-2.2c3.7,0.2,7.7,0.3,11.7,0.3
		s7.9-0.2,11.8-0.3v2.2c-3.3,0.2-6,0.5-6,3.1c0,1.2,0.4,2.7,0.8,3.9l12.1,31.7c7.7-18.6,12.4-30.7,12.4-35c0-3.3-2.8-3.4-6-3.6v-2.2
		c2.8,0.2,6.1,0.3,8.8,0.3c2.8,0,5.6-0.3,8.2-0.3v2.2C290.3,29.9,288.6,30.4,286.4,34.8z"/>
	<path class="st0" d="M337.8,78.5c-4.8-0.1-9.5-0.2-14-0.2h-14.7c-0.6,0-1.3,0-1.8,0c-3.4,0-7,0-10.3,0.2v-2.2
		c4-0.2,7.1-0.6,7.1-5.5V35c0-4.8-3.1-5.3-7.1-5.5v-2.2c4.8,0.2,8.7,0.3,11.7,0.3h12.8c4.8,0,9.8-0.2,14.7-0.3v11.8h-1.8
		c-2-9.2-4.5-9.3-16.9-9.3c-0.2,0-0.3,0-0.5,0c-3.3,0-3.5,0.1-3.5,1.9c0,0.3,0,0.8,0,1.3v17.6c9.8-0.1,11.2-2.2,12.2-9.5h1.7v20.2
		h-1.6c-0.9-5.8-2.6-8.4-10.1-8.4h-2.1v13c0,8.6,0.2,10.3,9.9,10.3c8.5,0,11.9-2.9,12.8-10.3h2.2L337.8,78.5z"/>
	<path class="st0" d="M34.9,19.7c9.9,2.5,6.2,21,3.1,29.2c-3.3,8.2-13.5,21.7-22.2,19.7s-9.8-15.8-2.8-30.9
		C20,22.5,29.1,18.2,34.9,19.7z"/>
	
		<linearGradient id="SVGID_1_" gradientUnits="userSpaceOnUse" x1="-180.371" y1="409.2756" x2="-158.6184" y2="409.2756" gradientTransform="matrix(2.4102 0 0 -2.4102 438.5858 1038.7158)">
		<stop  offset="0" style="stop-color:#E21D23"/>
		<stop  offset="0.1965" style="stop-color:#DE1D22"/>
		<stop  offset="0.3777" style="stop-color:#D31D20"/>
		<stop  offset="0.5528" style="stop-color:#C01D1D"/>
		<stop  offset="0.7241" style="stop-color:#A71B19"/>
		<stop  offset="0.8913" style="stop-color:#891913"/>
		<stop  offset="1" style="stop-color:#73160E"/>
	</linearGradient>
	<path class="st1" d="M4.4,63.3c1.2-0.4,5.6,13.4,13.2,11.3c7.6-2.2,19.3-11.7,27.3-27.3c9.7-19,10.4-28.4,11.2-28.4
		S55,44,43.8,62.7c-11.3,18.6-19.3,23-25.3,23S7.2,76,6.1,73C5,70,2.8,63.7,4.4,63.3z"/>
	
		<linearGradient id="SVGID_2_" gradientUnits="userSpaceOnUse" x1="-168.8516" y1="410.6451" x2="-146.6569" y2="410.6451" gradientTransform="matrix(2.4102 0 0 -2.4102 438.5858 1038.7158)">
		<stop  offset="0" style="stop-color:#E21D23"/>
		<stop  offset="0.1965" style="stop-color:#DE1D22"/>
		<stop  offset="0.3777" style="stop-color:#D31D20"/>
		<stop  offset="0.5528" style="stop-color:#C01D1D"/>
		<stop  offset="0.7241" style="stop-color:#A71B19"/>
		<stop  offset="0.8913" style="stop-color:#891913"/>
		<stop  offset="1" style="stop-color:#73160E"/>
	</linearGradient>
	<path class="st2" d="M32.1,69.1c1.2-0.4,6.5,13,14.1,10.9c7.6-2.2,15.2-9.9,23.2-25.6C79.2,35.4,84.1,6.5,85,6.5s-1.5,38.8-13.4,62
		c-9.9,19.4-19.3,23-25.3,23s-11.3-9.6-12.4-12.6C32.8,75.8,30.6,69.5,32.1,69.1z"/>
</g>
</svg>
