<svg xmlns="http://www.w3.org/2000/svg" viewBox="0 0 249.46 46.43"><defs><style>.cls-1{fill:#fc766a;}.cls-2{fill:#243252;}.cls-3{fill:#fff;}</style></defs><title>DM-2coul</title><g id="Calque_2"><g id="Calque_1-2"><path class="cls-1" d="M57.52,31.49V15.57a1.87,1.87,0,0,1,2.07-2.07h6c5.07,0,8.45,3.16,8.45,7.9v4.26c0,4.74-3.38,7.89-8.45,7.89h-6A1.86,1.86,0,0,1,57.52,31.49Zm7.82-2a3.82,3.82,0,0,0,4-4.11V21.65a3.82,3.82,0,0,0-4-4.11H62.26v12Z"/><path class="cls-1" d="M91.1,31.54a1.83,1.83,0,0,1-2.06,2H78.52a1.86,1.86,0,0,1-2.07-2.06V15.57a1.87,1.87,0,0,1,2.07-2.07H88.78a1.84,1.84,0,0,1,2.07,2,1.84,1.84,0,0,1-2.07,2H81.19v3.81h7.09a1.83,1.83,0,0,1,2.07,2,1.84,1.84,0,0,1-2.07,2H81.19v4.14H89A1.83,1.83,0,0,1,91.1,31.54Z"/><path class="cls-1" d="M109.23,16.35l-4.31,14c-.71,2.27-2,3.33-3.88,3.33h-.43c-1.84,0-3.21-1.11-3.89-3.33l-4.33-14a2.09,2.09,0,0,1,1.53-2.9A2.06,2.06,0,0,1,96.8,15l4,14,4-13.95a2.07,2.07,0,0,1,2.87-1.64A2.12,2.12,0,0,1,109.23,16.35Z"/><path class="cls-2" d="M141.52,20.69V32.14a1.53,1.53,0,1,1-3.05,0v-11a5.14,5.14,0,1,0-10.28,0v11a1.41,1.41,0,0,1-1.53,1.6,1.44,1.44,0,0,1-1.52-1.6v-11a5.13,5.13,0,1,0-10.25,0v11a1.53,1.53,0,1,1-3,0V14.84a1.36,1.36,0,0,1,1.42-1.56c.92,0,1.42.56,1.45,1.56v.92a7.49,7.49,0,0,1,6-2.59,7.14,7.14,0,0,1,6.53,3.51A7.49,7.49,0,0,1,134,13.17,7.11,7.11,0,0,1,141.52,20.69Z"/><path class="cls-2" d="M161.21,20.23V32.14c0,1-.5,1.6-1.38,1.6a1.42,1.42,0,0,1-1.49-1.56V30.9a9.07,9.07,0,0,1-7.17,2.94c-3.9,0-6.52-2.16-6.52-5.39V27.28c0-3.15,2.45-5.21,6.13-5.21h7.38V20.55c0-2.81-2.06-4.69-5.14-4.69a5.92,5.92,0,0,0-5,2.49,1.25,1.25,0,0,1-1.35.35c-1.09-.28-1.48-1.2-1.09-1.88,1.24-2.37,4.07-3.65,7.48-3.65C158,13.17,161.21,16,161.21,20.23Zm-3.05,5.88V24.55h-6.77c-2.24,0-3.69,1.1-3.69,2.91v.71c0,1.84,1.67,3.08,4.15,3.08C155.64,31.25,158.16,29.2,158.16,26.11Z"/><path class="cls-2" d="M164.61,25.47v-3.9c0-5.07,3.47-8.4,8.65-8.4a7.84,7.84,0,0,1,7.34,4.18,1.27,1.27,0,0,1-.85,1.78,1.42,1.42,0,0,1-1.7-.46,5.45,5.45,0,0,0-4.79-2.81c-3.37,0-5.6,2.34-5.6,5.82v3.65c0,3.48,2.23,5.82,5.63,5.82a5.58,5.58,0,0,0,4.83-2.63,1.27,1.27,0,0,1,1.63-.46,1.25,1.25,0,0,1,.92,1.71c-1.17,2.69-4.15,4.07-7.38,4.07C168.08,33.84,164.61,30.48,164.61,25.47Z"/><path class="cls-2" d="M200.63,20.86V32.14a1.4,1.4,0,0,1-1.52,1.6,1.44,1.44,0,0,1-1.53-1.6V21.29a5.3,5.3,0,1,0-10.6,0V32.14a1.53,1.53,0,1,1-3,0V6.64a1.53,1.53,0,1,1,3,0v9a7.73,7.73,0,0,1,6-2.48A7.27,7.27,0,0,1,200.63,20.86Z"/><path class="cls-2" d="M204.81,32.14V14.84a1.53,1.53,0,1,1,3.05,0v17.3a1.53,1.53,0,1,1-3.05,0Z"/><path class="cls-2" d="M228.86,20.86V32.14a1.41,1.41,0,0,1-1.52,1.6,1.44,1.44,0,0,1-1.53-1.6V21.29a5.3,5.3,0,1,0-10.6,0V32.14a1.53,1.53,0,1,1-3.05,0V14.84a1.36,1.36,0,0,1,1.42-1.56c.92,0,1.41.56,1.45,1.56v1a7.64,7.64,0,0,1,6.14-2.69A7.27,7.27,0,0,1,228.86,20.86Z"/><path class="cls-2" d="M249.46,21.61v1.6a1.21,1.21,0,0,1-1.32,1.34H235.31v.82A5.41,5.41,0,0,0,241,31.15a6.34,6.34,0,0,0,5.35-2.55,1.22,1.22,0,0,1,1.39-.36c1.13.28,1.49,1.21,1.06,1.88-1.24,2.38-4.18,3.72-7.8,3.72-5.25,0-8.72-3.36-8.72-8.47V21.61c0-5.07,3.44-8.44,8.61-8.44S249.46,16.54,249.46,21.61Zm-3.05,0c0-3.47-2.2-5.78-5.54-5.78s-5.56,2.31-5.56,5.78v.43h11.1Z"/><circle class="cls-2" cx="23.22" cy="23.22" r="23.22"/><path class="cls-3" d="M33.42,14.67H39a1.86,1.86,0,0,1,1.86,1.86V31.38a0,0,0,0,1,0,0H39a5.57,5.57,0,0,1-5.57-5.57V14.67A0,0,0,0,1,33.42,14.67Z" transform="translate(74.28 46.05) rotate(-180)"/><path class="cls-3" d="M24.14,14.67h5.57a1.86,1.86,0,0,1,1.86,1.86V31.38a0,0,0,0,1,0,0H29.72a5.57,5.57,0,0,1-5.57-5.57V14.67A0,0,0,0,1,24.14,14.67Z" transform="translate(55.72 46.05) rotate(-180)"/><path class="cls-1" d="M22.3,23a8.3,8.3,0,0,0-8.24-8.35H5.58V29.52a1.87,1.87,0,0,0,1.86,1.86h6.63A8.29,8.29,0,0,0,22.3,23Zm-12.07,6.5A2.79,2.79,0,1,1,13,26.74,2.78,2.78,0,0,1,10.23,29.52Z"/><path class="cls-3" d="M33.42,14.67H39a1.86,1.86,0,0,1,1.86,1.86V31.38a0,0,0,0,1,0,0H39a5.57,5.57,0,0,1-5.57-5.57V14.67A0,0,0,0,1,33.42,14.67Z" transform="translate(74.28 46.05) rotate(-180)"/><path class="cls-3" d="M24.14,14.67h5.57a1.86,1.86,0,0,1,1.86,1.86V31.38a0,0,0,0,1,0,0H29.72a5.57,5.57,0,0,1-5.57-5.57V14.67A0,0,0,0,1,24.14,14.67Z" transform="translate(55.72 46.05) rotate(-180)"/><path class="cls-1" d="M22.3,23a8.3,8.3,0,0,0-8.24-8.35H5.58V29.52a1.87,1.87,0,0,0,1.86,1.86h6.63A8.29,8.29,0,0,0,22.3,23Zm-12.07,6.5A2.79,2.79,0,1,1,13,26.74,2.78,2.78,0,0,1,10.23,29.52Z"/><circle class="cls-2" cx="206.34" cy="9.37" r="1.52"/></g></g></svg>