<?xml version="1.0" encoding="UTF-8" standalone="no"?>
<!-- Generator: Adobe Illustrator 18.1.1, SVG Export Plug-In . SVG Version: 6.00 Build 0)  -->

<svg
   xmlns:dc="http://purl.org/dc/elements/1.1/"
   xmlns:cc="http://creativecommons.org/ns#"
   xmlns:rdf="http://www.w3.org/1999/02/22-rdf-syntax-ns#"
   xmlns:svg="http://www.w3.org/2000/svg"
   xmlns="http://www.w3.org/2000/svg"
   xmlns:sodipodi="http://sodipodi.sourceforge.net/DTD/sodipodi-0.dtd"
   xmlns:inkscape="http://www.inkscape.org/namespaces/inkscape"
   version="1.1"
   id="Logo_vertical"
   x="0px"
   y="0px"
   viewBox="0 0 1480.3211 677.3"
   xml:space="preserve"
   sodipodi:docname="logo_wijin.svg"
   width="1480.321"
   height="677.29999"
   inkscape:version="0.92.1 r15371"><metadata
     id="metadata6713"><rdf:RDF><cc:Work
         rdf:about=""><dc:format>image/svg+xml</dc:format><dc:type
           rdf:resource="http://purl.org/dc/dcmitype/StillImage" /><dc:title></dc:title></cc:Work></rdf:RDF></metadata><defs
     id="defs6711" /><sodipodi:namedview
     pagecolor="#ffffff"
     bordercolor="#666666"
     borderopacity="1"
     objecttolerance="10"
     gridtolerance="10"
     guidetolerance="10"
     inkscape:pageopacity="0"
     inkscape:pageshadow="2"
     inkscape:window-width="1920"
     inkscape:window-height="1145"
     id="namedview6709"
     showgrid="false"
     fit-margin-top="0"
     fit-margin-left="0"
     fit-margin-right="0"
     fit-margin-bottom="0"
     inkscape:zoom="0.6968847"
     inkscape:cx="665.29083"
     inkscape:cy="451.65499"
     inkscape:window-x="0"
     inkscape:window-y="27"
     inkscape:window-maximized="1"
     inkscape:current-layer="layer1" /><style
     type="text/css"
     id="style6612">
	.st0{fill:#FFFFFF;}
	.st1{fill:#81DC64;}
	.st2{fill:#51C42C;}
	.st3{fill:#F94151;}
	.st4{fill:#E4071A;}
	.st5{fill:#004D8C;}
	.st6{fill:url(#SVGID_1_);}
	.st7{fill:url(#SVGID_2_);}
</style><g
     inkscape:groupmode="layer"
     id="layer1"
     inkscape:label="Layer 1"><polygon
       style="fill:#ffffff"
       class="st0"
       points="293.3,0 0,169.3 0,508 293.3,677.3 586.6,508 586.6,169.3 "
       id="polygon6614" /><g
       id="g6620"><polygon
         class="st1"
         points="293.3,97.9 293.3,44.3 476.9,150.4 476.9,203.9 "
         id="polygon6616"
         style="fill:#81dc64" /><polygon
         class="st2"
         points="109.7,203.9 109.7,150.4 293.3,44.3 293.3,97.9 "
         id="polygon6618"
         style="fill:#51c42c" /></g><g
       id="g6626"><polygon
         class="st3"
         points="475.9,474.3 522.3,501.1 293.3,633.3 293.3,579.8 "
         id="polygon6622"
         style="fill:#f94151" /><polygon
         class="st4"
         points="293.3,579.8 293.2,633.2 61,499.3 107.1,472.7 "
         id="polygon6624"
         style="fill:#e4071a" /></g><g
       id="g6706"><polygon
         class="st5"
         points="293.3,338.7 293.3,285.2 548.1,432.5 548.1,485.8 "
         id="polygon6628"
         style="fill:#004d8c" /><linearGradient
         id="SVGID_1_"
         gradientUnits="userSpaceOnUse"
         x1="38.442299"
         y1="118.9889"
         x2="293.28229"
         y2="118.9889"
         gradientTransform="matrix(1,0,0,-1,0,504.5084)"><stop
           offset="0"
           style="stop-color:#FFFFFF"
           id="stop6630" /><stop
           offset="0"
           style="stop-color:#F6FDFF"
           id="stop6632" /><stop
           offset="0"
           style="stop-color:#C8F1FD"
           id="stop6634" /><stop
           offset="0"
           style="stop-color:#9DE6FB"
           id="stop6636" /><stop
           offset="0"
           style="stop-color:#77DCF9"
           id="stop6638" /><stop
           offset="0"
           style="stop-color:#57D3F8"
           id="stop6640" /><stop
           offset="0"
           style="stop-color:#3BCCF7"
           id="stop6642" /><stop
           offset="0"
           style="stop-color:#25C7F6"
           id="stop6644" /><stop
           offset="0"
           style="stop-color:#14C2F5"
           id="stop6646" /><stop
           offset="0"
           style="stop-color:#09BFF4"
           id="stop6648" /><stop
           offset="0"
           style="stop-color:#02BDF4"
           id="stop6650" /><stop
           offset="0"
           style="stop-color:#00BDF4"
           id="stop6652" /><stop
           offset="0.2654"
           style="stop-color:#00BAF2"
           id="stop6654" /><stop
           offset="0.4363"
           style="stop-color:#00B2EC"
           id="stop6656" /><stop
           offset="0.5805"
           style="stop-color:#00A3E1"
           id="stop6658" /><stop
           offset="0.7091"
           style="stop-color:#018ED2"
           id="stop6660" /><stop
           offset="0.8129"
           style="stop-color:#0177C1"
           id="stop6662" /></linearGradient><polygon
         class="st6"
         points="38.4,485.8 38.4,432.5 293.3,285.2 293.3,338.7 "
         id="polygon6665"
         style="fill:url(#SVGID_1_)" /><polygon
         class="st5"
         points="38.4,191.5 84.5,164.9 84.5,405.9 38.4,432.5 "
         id="polygon6667"
         style="fill:#004d8c" /><linearGradient
         id="SVGID_2_"
         gradientUnits="userSpaceOnUse"
         x1="525.10858"
         y1="72.043999"
         x2="525.10858"
         y2="339.5849"
         gradientTransform="matrix(1,0,0,-1,0,504.5084)"><stop
           offset="0"
           style="stop-color:#FFFFFF"
           id="stop6669" /><stop
           offset="0"
           style="stop-color:#F6FDFF"
           id="stop6671" /><stop
           offset="0"
           style="stop-color:#C8F1FD"
           id="stop6673" /><stop
           offset="0"
           style="stop-color:#9DE6FB"
           id="stop6675" /><stop
           offset="0"
           style="stop-color:#77DCF9"
           id="stop6677" /><stop
           offset="0"
           style="stop-color:#57D3F8"
           id="stop6679" /><stop
           offset="0"
           style="stop-color:#3BCCF7"
           id="stop6681" /><stop
           offset="0"
           style="stop-color:#25C7F6"
           id="stop6683" /><stop
           offset="0"
           style="stop-color:#14C2F5"
           id="stop6685" /><stop
           offset="0"
           style="stop-color:#09BFF4"
           id="stop6687" /><stop
           offset="0"
           style="stop-color:#02BDF4"
           id="stop6689" /><stop
           offset="0"
           style="stop-color:#00BDF4"
           id="stop6691" /><stop
           offset="0.2654"
           style="stop-color:#00BAF2"
           id="stop6693" /><stop
           offset="0.4363"
           style="stop-color:#00B2EC"
           id="stop6695" /><stop
           offset="0.5805"
           style="stop-color:#00A3E1"
           id="stop6697" /><stop
           offset="0.7091"
           style="stop-color:#018ED2"
           id="stop6699" /><stop
           offset="0.8129"
           style="stop-color:#0177C1"
           id="stop6701" /></linearGradient><polygon
         class="st7"
         points="548.1,432.5 502.1,405.9 502.1,164.9 548.1,191.4 "
         id="polygon6704"
         style="fill:url(#SVGID_2_)" /></g><g
       aria-label="Wijin"
       style="font-style:normal;font-variant:normal;font-weight:300;font-stretch:normal;font-size:360px;line-height:125%;font-family:Roboto;-inkscape-font-specification:'Roboto, Light';font-variant-ligatures:normal;font-variant-caps:normal;font-variant-numeric:normal;font-feature-settings:normal;text-align:start;writing-mode:lr-tb;text-anchor:start;fill:#717171;fill-opacity:1"
       id="text7260"><path
         d="m 822.37189,401.58411 7.91015,39.72656 9.66797,-37.96875 55.54688,-188.61328 h 19.51172 l 54.84375,188.61328 9.49218,38.32031 8.4375,-40.07812 46.23046,-186.85547 h 22.1484 l -65.56636,255.9375 h -20.74218 l -58.00782,-200.21485 -6.5039,-25.3125 -6.32813,25.3125 -59.41406,200.21485 h -20.74219 l -65.39062,-255.9375 h 22.14843 z"
         id="path7378"
         inkscape:connector-curvature="0" /><path
         d="m 1116.4539,470.66614 h -21.0937 V 280.47083 h 21.0937 z m -24.7851,-245.21485 q 0,-5.97656 3.8671,-10.01953 3.8672,-4.21875 10.5469,-4.21875 6.6797,0 10.5469,4.21875 4.043,4.04297 4.043,10.01953 0,5.97657 -4.043,10.01954 -3.8672,4.04296 -10.5469,4.04296 -6.6797,0 -10.5469,-4.04296 -3.8671,-4.04297 -3.8671,-10.01954 z"
         id="path7380"
         inkscape:connector-curvature="0" /><path
         d="m 1196.4344,280.47083 v 212.87109 q 0,26.36719 -12.6563,40.25391 -12.6562,13.88671 -37.2656,13.88671 -9.4922,0 -18.457,-3.33984 l 0.3515,-17.40234 q 7.7344,2.28515 15.8204,2.28515 31.289,0 31.289,-36.03515 V 280.47083 Z m -10.3711,-69.25782 q 6.8555,0 10.7226,4.21875 3.8672,4.04297 3.8672,10.01953 0,5.97657 -3.8672,10.01954 -3.8671,4.04296 -10.7226,4.04296 -6.6797,0 -10.5469,-4.04296 -3.6914,-4.04297 -3.6914,-10.01954 0,-5.97656 3.6914,-10.01953 3.8672,-4.21875 10.5469,-4.21875 z"
         id="path7382"
         inkscape:connector-curvature="0" /><path
         d="m 1279.5789,470.66614 h -21.0937 V 280.47083 h 21.0937 z m -24.7851,-245.21485 q 0,-5.97656 3.8671,-10.01953 3.8672,-4.21875 10.5469,-4.21875 6.6797,0 10.5469,4.21875 4.043,4.04297 4.043,10.01953 0,5.97657 -4.043,10.01954 -3.8672,4.04296 -10.5469,4.04296 -6.6797,0 -10.5469,-4.04296 -3.8671,-4.04297 -3.8671,-10.01954 z"
         id="path7384"
         inkscape:connector-curvature="0" /><path
         d="m 1356.9227,280.47083 0.7031,32.51953 q 10.7226,-17.57813 26.7187,-26.71875 15.9961,-9.31641 35.3321,-9.31641 30.5859,0 45.5273,17.22656 14.9414,17.22657 15.1172,51.67969 v 124.80469 h -20.918 V 345.68567 q -0.1757,-25.48828 -10.8984,-37.96875 -10.5469,-12.48047 -33.9258,-12.48047 -19.5117,0 -34.6289,12.30469 -14.9414,12.1289 -22.1484,32.87109 v 130.25391 h -20.918 V 280.47083 Z"
         id="path7386"
         inkscape:connector-curvature="0" /></g></g></svg>