<?xml version="1.0" encoding="UTF-8"?>
<svg id="Calque_1" data-name="Calque 1" xmlns="http://www.w3.org/2000/svg" xmlns:xlink="http://www.w3.org/1999/xlink" viewBox="0 0 172.28 149.63">
  <defs>
    <style>
      .cls-1 {
        fill: url(#Dégradé_sans_nom_3);
      }

      .cls-1, .cls-2, .cls-3, .cls-4, .cls-5, .cls-6, .cls-7, .cls-8, .cls-9, .cls-10, .cls-11, .cls-12 {
        stroke-width: 0px;
      }

      .cls-2 {
        fill: url(#Dégradé_sans_nom_10-6);
      }

      .cls-13 {
        isolation: isolate;
      }

      .cls-3 {
        fill: url(#Dégradé_sans_nom_10-4);
      }

      .cls-4 {
        fill: url(#Dégradé_sans_nom_10-7);
      }

      .cls-5 {
        fill: url(#Dégradé_sans_nom_10-5);
      }

      .cls-6 {
        fill: url(#Dégradé_sans_nom_10-2);
      }

      .cls-7 {
        fill: #006da3;
      }

      .cls-8 {
        fill: url(#Dégradé_sans_nom_3-2);
      }

      .cls-9 {
        fill: url(#Dégradé_sans_nom_2);
      }

      .cls-10 {
        fill: #e20c7b;
      }

      .cls-11 {
        fill: url(#Dégradé_sans_nom_10);
      }

      .cls-12 {
        fill: url(#Dégradé_sans_nom_10-3);
      }
    </style>
    <linearGradient id="Dégradé_sans_nom_3" data-name="Dégradé sans nom 3" x1="38.67" y1="101.34" x2="69.11" y2="101.34" gradientTransform="translate(0 147.49) scale(1 -1)" gradientUnits="userSpaceOnUse">
      <stop offset="0" stop-color="#69c8f3"/>
      <stop offset=".25" stop-color="#47a8d7"/>
      <stop offset=".58" stop-color="#2083b7"/>
      <stop offset=".84" stop-color="#096ca3"/>
      <stop offset="1" stop-color="#00649c"/>
    </linearGradient>
    <linearGradient id="Dégradé_sans_nom_2" data-name="Dégradé sans nom 2" x1="39.37" y1="124" x2="39.37" y2="67.73" gradientTransform="translate(0 147.49) scale(1 -1)" gradientUnits="userSpaceOnUse">
      <stop offset="0" stop-color="#69c8f3"/>
      <stop offset=".04" stop-color="#56b6e3"/>
      <stop offset=".11" stop-color="#3b9dcd"/>
      <stop offset=".19" stop-color="#2588bb"/>
      <stop offset=".28" stop-color="#1478ad"/>
      <stop offset=".39" stop-color="#096ca3"/>
      <stop offset=".55" stop-color="#02669e"/>
      <stop offset="1" stop-color="#00649c"/>
    </linearGradient>
    <linearGradient id="Dégradé_sans_nom_3-2" data-name="Dégradé sans nom 3" x1="69.28" y1="78.68" x2="69.28" y2="138.17" xlink:href="#Dégradé_sans_nom_3"/>
    <linearGradient id="Dégradé_sans_nom_10" data-name="Dégradé sans nom 10" x1="14.65" y1="99.42" x2="27.38" y2="152.38" gradientTransform="translate(0 147.49) scale(1 -1)" gradientUnits="userSpaceOnUse">
      <stop offset="0" stop-color="#006da3"/>
      <stop offset="1" stop-color="#e20c7b"/>
    </linearGradient>
    <linearGradient id="Dégradé_sans_nom_10-2" data-name="Dégradé sans nom 10" x1="13.32" y1="99.74" x2="26.05" y2="152.7" gradientTransform="translate(-89.91 82.96) rotate(54.07) scale(1 -1)" xlink:href="#Dégradé_sans_nom_10"/>
    <linearGradient id="Dégradé_sans_nom_10-3" data-name="Dégradé sans nom 10" x1="29.58" y1="95.83" x2="42.31" y2="148.79" xlink:href="#Dégradé_sans_nom_10"/>
    <linearGradient id="Dégradé_sans_nom_10-4" data-name="Dégradé sans nom 10" x1="8.52" y1="100.89" x2="21.25" y2="153.85" xlink:href="#Dégradé_sans_nom_10"/>
    <linearGradient id="Dégradé_sans_nom_10-5" data-name="Dégradé sans nom 10" x1="-.01" y1="102.94" x2="12.71" y2="155.9" xlink:href="#Dégradé_sans_nom_10"/>
    <linearGradient id="Dégradé_sans_nom_10-6" data-name="Dégradé sans nom 10" x1="27.25" y1="96.39" x2="39.98" y2="149.35" xlink:href="#Dégradé_sans_nom_10"/>
    <linearGradient id="Dégradé_sans_nom_10-7" data-name="Dégradé sans nom 10" x1="18.11" y1="98.59" x2="30.85" y2="151.55" xlink:href="#Dégradé_sans_nom_10"/>
  </defs>
  <g class="cls-13">
    <path class="cls-7" d="M110.97,51.05c0,1.59-.2,3.23-.6,4.91h-23.11c.57,2.08,1.67,3.69,3.29,4.81,1.62,1.13,3.62,1.69,6.01,1.69,3.23,0,6.29-1.11,9.17-3.32l3.72,6.11c-3.9,3.28-8.28,4.91-13.15,4.91-5.18,0-9.47-1.65-12.88-4.95-3.41-3.3-5.11-7.38-5.11-12.25s1.65-8.9,4.95-12.22c3.3-3.32,7.38-4.98,12.25-4.98,4.56,0,8.28,1.46,11.16,4.38,2.88,2.92,4.32,6.55,4.32,10.89ZM95.17,43.02c-1.9,0-3.56.6-4.98,1.79-1.42,1.2-2.39,2.81-2.92,4.85h15.01c-.04-2.04-.75-3.65-2.12-4.85-1.37-1.2-3.03-1.79-4.98-1.79Z"/>
    <path class="cls-7" d="M131.76,35.78c4.87,0,9.03,1.65,12.49,4.95,3.45,3.3,5.18,7.36,5.18,12.19s-1.73,8.9-5.18,12.22c-3.45,3.32-7.64,4.98-12.55,4.98s-9.06-1.65-12.45-4.95c-3.39-3.3-5.08-7.38-5.08-12.25s1.7-8.89,5.11-12.19c3.41-3.3,7.57-4.95,12.49-4.95ZM131.76,43.95c-2.48,0-4.52.85-6.11,2.56-1.59,1.71-2.39,3.86-2.39,6.48s.8,4.75,2.39,6.41,3.63,2.49,6.11,2.49,4.46-.84,6.08-2.52c1.62-1.68,2.42-3.81,2.42-6.38s-.81-4.72-2.42-6.44c-1.62-1.73-3.64-2.59-6.08-2.59Z"/>
  </g>
  <path class="cls-1" d="M55.42,24.17c-.14-.39-.5-.66-.92-.68h-15.3c-.27-.02-.51.18-.54.45,0,.08,0,.16.03.23l13.65,43.96c.14.39.5.66.92.68h15.31c.27.02.51-.17.53-.44,0-.08,0-.16-.04-.24l-13.65-43.96Z"/>
  <path class="cls-9" d="M54.77,24c.27-.27.18-.51-.21-.51h-15.31c-.45.02-.88.2-1.22.5l-14.05,13.94c-.27.27-.18.49.2.49h15.89c.45-.02.89-.2,1.22-.51l13.49-13.92Z"/>
  <path class="cls-8" d="M69.47,68.12c-.13.39-.48.67-.9.68h-15.31c-.28.02-.53-.19-.55-.48,0-.07,0-.14.03-.21l16.35-58.12c.13-.39.49-.66.9-.68h15.31c.28-.03.52.18.54.45,0,.08,0,.15-.03.22l-16.34,58.12Z"/>
  <polygon class="cls-11" points="27.26 50.33 10.29 37.82 10.26 37.65 6.16 16.25 25.71 16.25 40.48 4.89 41.01 5.57 26.01 17.11 7.2 17.11 11.08 37.33 27.77 49.64 27.26 50.33"/>
  <rect class="cls-6" x="5.37" y="26.7" width="25.82" height=".86" transform="translate(-14.42 26.01) rotate(-54.07)"/>
  <circle class="cls-12" cx="40.74" cy="5.23" r="5.23"/>
  <circle class="cls-3" cx="10.69" cy="37.57" r="5.23"/>
  <circle class="cls-5" cx="6.68" cy="16.68" r="6.41"/>
  <circle class="cls-2" cx="27.52" cy="49.98" r="3.25"/>
  <circle class="cls-4" cx="25.86" cy="16.68" r="3.25"/>
  <g class="cls-13">
    <path class="cls-10" d="M64.83,72.78h8.97v44.63h-2.99l-25.37-27.1v26.3h-8.97v-44.63h2.92l25.44,26.9v-26.1Z"/>
  </g>
  <g class="cls-13">
    <path class="cls-10" d="M110.85,83.74v18.4c0,4.56-1.43,8.25-4.28,11.06s-6.45,4.22-10.79,4.22-8.07-1.39-10.92-4.18-4.28-6.49-4.28-11.09v-18.4h8.96v19.13c0,1.9.59,3.43,1.76,4.58,1.17,1.15,2.67,1.73,4.48,1.73s3.18-.58,4.35-1.73c1.17-1.15,1.76-2.68,1.76-4.58v-19.13h8.96Z"/>
    <path class="cls-10" d="M155.74,83.01c3.85,0,6.88,1.21,9.1,3.62,2.21,2.41,3.32,5.61,3.32,9.6v20.39h-8.97v-19.13c0-1.95-.53-3.5-1.59-4.65-1.06-1.15-2.48-1.73-4.25-1.73s-3.22.58-4.35,1.73c-1.13,1.15-1.69,2.63-1.69,4.45v19.33h-8.96v-19.13c0-1.95-.53-3.5-1.59-4.65-1.06-1.15-2.48-1.73-4.25-1.73s-3.28.58-4.38,1.73c-1.11,1.15-1.66,2.7-1.66,4.65v19.13h-8.97v-32.87h8.24v2.92c2.35-2.43,5.45-3.65,9.3-3.65,4.43,0,7.68,1.57,9.76,4.71,2.7-3.14,6.35-4.71,10.96-4.71Z"/>
  </g>
  <g class="cls-13">
    <path class="cls-7" d="M19.24,122.34v19.9h-4.07v-8.59H6.36v8.59H2.29v-19.9h4.07v7.63h8.81v-7.63h4.07Z"/>
  </g>
  <g class="cls-13">
    <path class="cls-7" d="M36.06,127.32v8.35c0,2.07-.65,3.75-1.95,5.02s-2.93,1.92-4.9,1.92-3.66-.63-4.96-1.9-1.95-2.95-1.95-5.04v-8.35h4.07v8.69c0,.86.27,1.56.8,2.08.53.52,1.21.78,2.04.78s1.44-.26,1.98-.78c.53-.52.8-1.22.8-2.08v-8.69h4.07Z"/>
    <path class="cls-7" d="M56.42,126.99c1.75,0,3.13.55,4.13,1.64,1,1.1,1.51,2.55,1.51,4.36v9.26h-4.07v-8.69c0-.88-.24-1.59-.72-2.11s-1.13-.78-1.93-.78-1.46.26-1.98.78-.77,1.2-.77,2.02v8.78h-4.07v-8.69c0-.88-.24-1.59-.72-2.11s-1.13-.78-1.93-.78-1.49.26-1.99.78c-.5.52-.75,1.23-.75,2.11v8.69h-4.07v-14.93h3.74v1.33c1.07-1.11,2.47-1.66,4.22-1.66,2.01,0,3.49.71,4.43,2.14,1.23-1.43,2.88-2.14,4.98-2.14Z"/>
    <path class="cls-7" d="M71.17,126.99c1.95,0,3.5.55,4.66,1.64,1.16,1.1,1.73,2.68,1.73,4.75v8.87h-3.74v-1.45c-1.15,1.21-2.66,1.81-4.55,1.81-1.59,0-2.85-.42-3.77-1.25-.92-.83-1.39-1.9-1.39-3.21s.51-2.41,1.52-3.18c1.02-.77,2.39-1.16,4.12-1.16h3.74v-.66c0-.82-.24-1.47-.71-1.93-.47-.46-1.16-.69-2.07-.69-1.33,0-2.64.68-3.95,2.05l-2.11-2.5c1.73-2.05,3.9-3.08,6.51-3.08ZM70.35,139.62c.88,0,1.63-.28,2.23-.83.6-.55.9-1.26.9-2.13v-.18h-3.2c-1.39,0-2.08.5-2.08,1.51,0,.5.2.9.59,1.19.39.29.91.44,1.55.44Z"/>
    <path class="cls-7" d="M88.69,126.99c1.73,0,3.1.55,4.1,1.64,1.01,1.1,1.51,2.55,1.51,4.36v9.26h-4.04v-8.72c0-.86-.26-1.56-.77-2.1-.51-.53-1.18-.8-2-.8s-1.5.27-2.04.8c-.53.53-.8,1.23-.8,2.1v8.72h-4.07v-14.93h3.74v1.36c1.13-1.13,2.58-1.69,4.37-1.69Z"/>
    <path class="cls-7" d="M118.21,122.34v3.68h-9.02v4.98h7.39v3.68h-7.39v7.57h-4.07v-19.9h13.09Z"/>
    <path class="cls-7" d="M120.26,120.08c.5-.48,1.12-.72,1.84-.72s1.34.24,1.85.72.77,1.08.77,1.81-.26,1.3-.77,1.78c-.51.48-1.13.72-1.85.72s-1.34-.24-1.84-.72c-.5-.48-.75-1.08-.75-1.78s.25-1.33.75-1.81ZM124.15,127.32v14.93h-4.07v-14.93h4.07Z"/>
    <path class="cls-7" d="M135.13,127.14c.5,0,.94.06,1.33.18v3.59h-1.09c-1.23,0-2.2.33-2.92.98-.72.65-1.09,1.62-1.09,2.91v7.45h-4.07v-14.93h3.74v1.81c1.03-1.33,2.39-1.99,4.1-1.99Z"/>
    <path class="cls-7" d="M143.15,126.96c2.23,0,4.02.75,5.37,2.26l-2.05,2.5c-1.01-.95-2.12-1.42-3.35-1.42-1.07,0-1.6.35-1.6,1.06,0,.28.12.52.35.71.23.19.64.4,1.22.62l1.45.6c1.45.58,2.51,1.21,3.18,1.88.67.67,1.01,1.56,1.01,2.67,0,1.49-.55,2.65-1.64,3.5-1.1.84-2.49,1.27-4.18,1.27-2.65,0-4.71-.97-6.18-2.9l2.05-2.47c1.31,1.35,2.7,2.02,4.19,2.02.54,0,1-.11,1.36-.32.36-.21.54-.52.54-.92,0-.32-.12-.57-.35-.74-.23-.17-.63-.38-1.19-.62l-1.6-.66c-1.37-.56-2.39-1.19-3.06-1.87s-1.01-1.58-1.01-2.68c0-1.41.51-2.51,1.52-3.3,1.01-.79,2.34-1.19,3.97-1.19Z"/>
    <path class="cls-7" d="M158.56,138.96c.24,0,.88-.04,1.93-.12v3.41c-.96.24-1.9.36-2.8.36-1.89,0-3.36-.47-4.4-1.4-1.05-.94-1.57-2.34-1.57-4.21v-6.24h-2.35v-3.44h2.35v-3.77h4.07v3.77h4.22v3.44h-4.22v5.88c0,.84.22,1.44.66,1.79s1.15.53,2.11.53Z"/>
    <path class="cls-7" d="M165.8,137c.78,0,1.44.27,1.98.81.53.54.8,1.21.8,1.99s-.27,1.47-.8,2c-.53.53-1.19.8-1.98.8-.82,0-1.5-.27-2.04-.8-.53-.53-.8-1.2-.8-2s.27-1.45.8-1.99c.53-.54,1.21-.81,2.04-.81ZM168.15,122.34l-.75,12.61h-3.32l-.78-12.61h4.86Z"/>
  </g>
</svg>