<?xml version="1.0" encoding="utf-8"?>
<!-- Generator: Adobe Illustrator 22.0.1, SVG Export Plug-In . SVG Version: 6.00 Build 0)  -->
<svg version="1.1" id="Calque_1" xmlns="http://www.w3.org/2000/svg" xmlns:xlink="http://www.w3.org/1999/xlink" x="0px" y="0px"
	 viewBox="0 0 631.3 634.9" style="enable-background:new 0 0 631.3 634.9;" xml:space="preserve">
<style type="text/css">
	.st0{fill:#17A3DD;}
	.st1{fill:#3E4243;}
</style>
<g>
	<g>
		<g>
			<path class="st0" d="M488.4,373.3c-0.9-1-1.8-1.5-2.6-1.6c-1.8-0.1-4,2-5.9,3.7l-5.1,4.5c-40.8,36.5-89.4,54.8-148.6,55.7l0,0
				l-0.1,0c-2-0.2-4.4-0.4-7-0.6c-7.1-0.5-16-1.2-25-2.8c-55.8-9.8-104.6-40.4-137.4-86.3c-32.9-45.9-46.1-102-37.3-157.9
				c7.6-48.5,30.6-90.5,68.2-125c2.2-2,4.5-4.3,4.6-6.3c0-0.9-0.5-1.9-1.5-3c-0.9-1-1.8-1.4-2.7-1.4c-1.8,0-4.1,1.8-6.3,3.8
				C107.9,122.6,86.7,230.6,130,319c27.4,55.8,77.1,98.1,136.6,115.9c60.1,18.1,123.1,10.5,177.3-21.3c10.5-6.1,20.3-14,29.7-21.6
				c3.7-3,7.5-6,11.3-8.9c1.2-0.9,4.8-3.7,5-6.3C490,375.7,489.5,374.6,488.4,373.3z"/>
		</g>
	</g>
	<g>
		<path class="st1" d="M141.2,552.7l-39-53.7c-0.8-1.1-2.1-1.5-3.4-1.1c-1.3,0.4-2.2,1.5-2.2,2.9v64.5h6.1v-55l39,53.7
			c0.8,1.1,2.1,1.5,3.4,1.1c1.3-0.4,2.1-1.5,2.1-2.9l0.1-61.4v-3.1h-6.1L141.2,552.7z"/>
		<path class="st1" d="M161.7,500.7v61.4c0,1.8,1.3,3.1,3.1,3.1h45.9v-6.1h-42.8v-24.6h31.4v-6.1h-31.4v-24.6h42.8v-6.1h-45.9
			C163,497.7,161.7,499,161.7,500.7z"/>
		<path class="st1" d="M247.6,497.7c-16.6,0-30,15.2-30,33.8c0,18.6,13.5,33.8,30,33.8c16.6,0,30.1-15.1,30.1-33.8
			C277.6,512.8,264.2,497.7,247.6,497.7z M247.6,559.1c-13.2,0-23.9-12.4-23.9-27.6s10.7-27.6,23.9-27.6c13.2,0,23.9,12.4,23.9,27.6
			S260.8,559.1,247.6,559.1z"/>
		<path class="st1" d="M349.3,528.5L349.3,528.5l-0.5-0.2c-9.3-3.5-18-6.8-18-12.2c0-6.8,7.3-12.3,16.4-12.3c9,0,16.4,5.5,16.4,12.3
			v3.1h6.1v-3.1c0-10.2-10.1-18.4-22.5-18.4c-12.4,0-22.5,8.3-22.5,18.4c0.1,9.8,11.6,14.1,22.7,18.3c9.3,3.5,18.2,6.8,18.2,12.4
			c0,6.7-8.4,12.3-18.3,12.3c-10.1,0-18.3-5.5-18.3-12.3v-3.1h-6.1v3.1c0,10.2,11,18.4,24.5,18.4c13.3,0,24.5-8.4,24.5-18.4
			C371.7,537,360.4,532.6,349.3,528.5z"/>
		<path class="st1" d="M406.7,497.7c-16.6,0-30,15.2-30,33.8c0,18.6,13.5,33.8,30,33.8c16.6,0,30.1-15.1,30.1-33.8
			C436.7,512.8,423.3,497.7,406.7,497.7z M406.7,559.1c-13.2,0-23.9-12.4-23.9-27.6s10.7-27.6,23.9-27.6c13.2,0,23.9,12.4,23.9,27.6
			S419.9,559.1,406.7,559.1z"/>
		<path class="st1" d="M447.3,500.7v64.5h6.1v-30.7h27v-6.1h-27v-24.6h37.2v-6.1h-40.3C448.7,497.7,447.3,499,447.3,500.7z"/>
		<polygon class="st1" points="493.7,497.7 493.7,503.8 517,503.8 517,565.2 523.2,565.2 523.2,503.8 546.4,503.8 546.4,497.7 		"/>
		<rect x="298" y="470.7" class="st1" width="5.3" height="112.2"/>
	</g>
	<path class="st0" d="M305.3,170.2h-8.9v4.3h0c0,0,0,0.1,0,0.1l-0.2,119.3L207.7,172c-1.1-1.5-3-2.1-4.9-1.5
		c-1.9,0.6-3.1,2.3-3.1,4.1v133.1v4.5h4.5h0h4.4v-4.4c0,0,0,0,0,0V188.4l88.5,121.9c1.1,1.5,3,2.1,4.9,1.5c1.9-0.6,3.1-2.2,3.1-4.1
		l0.2-133.1c0-0.1,0-0.1,0-0.1h0V170.2z"/>
	<path class="st0" d="M386.9,238c-20.8-7.8-40.5-15.2-40.5-28.5c0-15.9,16.9-28.8,37.7-28.8c17.6,0,32.3,9.2,36.4,21.7
		c0.3,1.2,0.9,3.6,1.1,6.4c0.1,1.7,0.2,3.6,0.2,5c0,0,0,0,0,0c0,0,0,0,0,0v0.8h8.9v-0.6c0,0,0,0,0-0.1l0-5.3
		c-0.6-20.4-21.2-36.9-46.5-36.9c-25.7,0-46.6,16.9-46.6,37.7c0.1,19.8,24.3,28.8,47.7,37.6c21,7.8,40.8,15.3,40.8,29
		c0,15.6-19.2,28.8-41.9,28.8c-23.1,0-41.9-12.9-41.9-28.8v-4.5v-0.8h-8.9v0.8v4.5c0,20.8,22.8,37.7,50.8,37.7
		c27.6,0,50.8-17.3,50.8-37.7C435,256.1,410.5,246.9,386.9,238z"/>
</g>
</svg>
