<?xml version="1.0" encoding="UTF-8" standalone="no"?>
<svg
   xmlns:dc="http://purl.org/dc/elements/1.1/"
   xmlns:cc="http://creativecommons.org/ns#"
   xmlns:rdf="http://www.w3.org/1999/02/22-rdf-syntax-ns#"
   xmlns:svg="http://www.w3.org/2000/svg"
   xmlns="http://www.w3.org/2000/svg"
   version="1.1"
   id="svg2"
   xml:space="preserve"
   width="960.81177"
   height="171.47414"
   viewBox="0 0 960.81165 171.47414"><metadata
     id="metadata8"><rdf:RDF><cc:Work
         rdf:about=""><dc:format>image/svg+xml</dc:format><dc:type
           rdf:resource="http://purl.org/dc/dcmitype/StillImage" /><dc:title></dc:title></cc:Work></rdf:RDF></metadata><defs
     id="defs6"><clipPath
       clipPathUnits="userSpaceOnUse"
       id="clipPath18"><path
         d="M 0,240.945 H 850.394 V 0 H 0 Z"
         id="path16" /></clipPath><clipPath
       clipPathUnits="userSpaceOnUse"
       id="clipPath26"><path
         d="m 142.927,181.025 h 63.495 v -74.069 h -63.495 z"
         id="path24" /></clipPath><clipPath
       clipPathUnits="userSpaceOnUse"
       id="clipPath42"><path
         d="m 193.77,180.489 h 11.814 V 141.558 H 193.77 Z"
         id="path40" /></clipPath><clipPath
       clipPathUnits="userSpaceOnUse"
       id="clipPath58"><path
         d="m 563.277,181.025 h 63.496 v -74.069 h -63.496 z"
         id="path56" /></clipPath><clipPath
       clipPathUnits="userSpaceOnUse"
       id="clipPath74"><path
         d="m 614.118,180.489 h 11.817 v -38.931 h -11.817 z"
         id="path72" /></clipPath><clipPath
       clipPathUnits="userSpaceOnUse"
       id="clipPath90"><path
         d="M 68.6421,180.656 H 128.128 V 168.425 H 68.6421 Z"
         id="path88" /></clipPath><clipPath
       clipPathUnits="userSpaceOnUse"
       id="clipPath106"><path
         d="M 68.6426,120.597 H 128.128 V 108.366 H 68.6426 Z"
         id="path104" /></clipPath><clipPath
       clipPathUnits="userSpaceOnUse"
       id="clipPath122"><path
         d="m 457.96,180.806 h 11.915 V 108.484 H 457.96 Z"
         id="path120" /></clipPath><clipPath
       clipPathUnits="userSpaceOnUse"
       id="clipPath138"><path
         d="m 713.19,180.765 h 68.561 V 142.722 H 713.19 Z"
         id="path136" /></clipPath><clipPath
       clipPathUnits="userSpaceOnUse"
       id="clipPath154"><path
         d="m 740.964,135.399 h 11.793 v -26.825 h -11.793 z"
         id="path152" /></clipPath><clipPath
       clipPathUnits="userSpaceOnUse"
       id="clipPath170"><path
         d="m 376.338,180.669 h 62.724 v -27.186 h -62.724 z"
         id="path168" /></clipPath><clipPath
       clipPathUnits="userSpaceOnUse"
       id="clipPath186"><path
         d="m 376.302,149.569 h 62.191 v -41.017 h -62.191 z"
         id="path184" /></clipPath><clipPath
       clipPathUnits="userSpaceOnUse"
       id="clipPath202"><path
         d="m 642.966,180.777 h 61.513 v -27.276 h -61.513 z"
         id="path200" /></clipPath><clipPath
       clipPathUnits="userSpaceOnUse"
       id="clipPath218"><path
         d="m 642.954,136.228 h 61.524 v -27.73 h -61.524 z"
         id="path216" /></clipPath><clipPath
       clipPathUnits="userSpaceOnUse"
       id="clipPath234"><path
         d="m 298.499,180.754 h 62.543 v -73.191 h -62.543 z"
         id="path232" /></clipPath><clipPath
       clipPathUnits="userSpaceOnUse"
       id="clipPath250"><path
         d="M 68.7832,151.008 H 116 V 138.53 H 68.7832 Z"
         id="path248" /></clipPath><clipPath
       clipPathUnits="userSpaceOnUse"
       id="clipPath266"><path
         d="m 224.583,180.656 h 59.484 v -12.231 h -59.484 z"
         id="path264" /></clipPath><clipPath
       clipPathUnits="userSpaceOnUse"
       id="clipPath282"><path
         d="m 224.583,120.597 h 59.485 v -12.231 h -59.485 z"
         id="path280" /></clipPath><clipPath
       clipPathUnits="userSpaceOnUse"
       id="clipPath298"><path
         d="m 224.574,151.008 h 47.217 V 138.53 h -47.217 z"
         id="path296" /></clipPath><clipPath
       clipPathUnits="userSpaceOnUse"
       id="clipPath314"><path
         d="M 488.524,180.656 H 548.01 V 168.425 H 488.524 Z"
         id="path312" /></clipPath><clipPath
       clipPathUnits="userSpaceOnUse"
       id="clipPath330"><path
         d="M 488.524,120.597 H 548.01 V 108.366 H 488.524 Z"
         id="path328" /></clipPath><clipPath
       clipPathUnits="userSpaceOnUse"
       id="clipPath346"><path
         d="m 488.517,151.008 h 47.215 V 138.53 h -47.215 z"
         id="path344" /></clipPath><clipPath
       clipPathUnits="userSpaceOnUse"
       id="clipPath362"><path
         d="M 68.6514,81.7012 H 770.896 V 59.9199 H 68.6514 Z"
         id="path360" /></clipPath></defs><g
     id="g10"
     transform="matrix(1.3333333,0,0,-1.3333333,-86.523114,246.36706)"><path
       d="m 154.9937,155.5293 v -37.927 c 0,-0.092 -0.124,-9.237 -10.826,-9.237 h -1.241 v 65.56 c 0,6.6 4.621,7.042 4.668,7.046 l 0.571,0.054 51.943,-51.882 c 0.122,-0.125 11.029,-11.725 3.895,-21.057 l -0.868,-1.13 z"
       style="fill:#009fe3;fill-opacity:1;fill-rule:nonzero;stroke:none"
       id="path28" /><path
       d="m 204.25,141.6611 c -0.105,0.008 -10.48,0.91 -10.48,12.078 v 17.419 c 0,6.879 5.183,9.331 10.033,9.331 0.404,0 0.641,-0.02 0.641,-0.02 l 1.14,-0.097 v -38.815 z"
       style="fill:#009fe3;fill-opacity:1;fill-rule:nonzero;stroke:none"
       id="path44" /><path
       d="m 575.3442,155.5293 v -37.927 c 0,-0.092 -0.124,-9.237 -10.826,-9.237 h -1.241 v 65.56 c 0,6.6 4.621,7.042 4.668,7.046 l 0.571,0.054 51.942,-51.882 c 0.122,-0.125 11.03,-11.725 3.896,-21.057 l -0.869,-1.13 z"
       style="fill:#009fe3;fill-opacity:1;fill-rule:nonzero;stroke:none"
       id="path60" /><path
       d="m 624.6001,141.6611 c -0.104,0.008 -10.482,0.91 -10.482,12.078 v 17.419 c 0,6.879 5.183,9.331 10.035,9.331 0.404,0 0.641,-0.02 0.641,-0.02 l 1.141,-0.097 v -38.815 z"
       style="fill:#009fe3;fill-opacity:1;fill-rule:nonzero;stroke:none"
       id="path76" /><path
       d="m 68.7979,168.4248 -0.12,1.11 c -0.019,0.195 -0.468,4.794 2.45,8.044 1.831,2.042 4.526,3.077 8.006,3.077 h 48.737 l 0.169,-1.043 c 0.07,-0.456 0.601,-4.498 -2.095,-7.665 -1.989,-2.337 -5.153,-3.523 -9.405,-3.523 z"
       style="fill:#009fe3;fill-opacity:1;fill-rule:nonzero;stroke:none"
       id="path92" /><path
       d="m 79.1343,108.3662 c -3.48,0 -6.176,1.034 -8.007,3.076 -2.917,3.25 -2.468,7.85 -2.449,8.043 l 0.12,1.111 h 47.741 c 4.253,0 7.417,-1.185 9.406,-3.523 2.695,-3.166 2.165,-7.207 2.096,-7.658 l -0.171,-1.049 z"
       style="fill:#009fe3;fill-opacity:1;fill-rule:nonzero;stroke:none"
       id="path108" /><path
       d="m 457.9604,108.4844 v 64.001 c 0,6.582 6.982,8.32 10.674,8.32 h 1.241 v -63.357 c 0,-8.861 -10.567,-8.964 -10.675,-8.964 z"
       style="fill:#009fe3;fill-opacity:1;fill-rule:nonzero;stroke:none"
       id="path124" /><path
       d="m 747.5952,142.7217 c -1.743,0 -3.418,0.736 -4.595,2.021 l -29.81,32.444 1.035,0.832 c 2.271,1.822 4.721,2.746 7.279,2.746 3.733,0 6.755,-1.992 8.225,-3.178 l 17.86,-19.402 17.484,19.268 c 1.558,1.277 4.618,3.312 8.368,3.312 2.558,0 5.008,-0.924 7.279,-2.746 l 1.031,-0.828 -29.556,-32.447 c -1.181,-1.286 -2.856,-2.022 -4.6,-2.022"
       style="fill:#009fe3;fill-opacity:1;fill-rule:nonzero;stroke:none"
       id="path140" /><path
       d="m 740.9644,108.5742 v 17.487 c 0,8.857 9.45,9.291 10.526,9.312 l 1.267,0.026 v -19.142 c 0,-6.077 -6.903,-7.683 -10.553,-7.683 z"
       style="fill:#009fe3;fill-opacity:1;fill-rule:nonzero;stroke:none"
       id="path156" /><path
       d="m 382.3345,153.4834 c -2.452,0 -4.368,0.693 -4.896,0.906 l -1.1,0.444 0.389,1.117 c 5.188,15.015 20.078,24.719 37.937,24.719 h 24.398 v -1.245 c 0,-0.109 -0.104,-11.037 -9.087,-11.037 h -15.311 c -9.931,0 -18.436,-3.883 -23.339,-10.653 -2.358,-2.793 -5.457,-4.251 -8.991,-4.251"
       style="fill:#009fe3;fill-opacity:1;fill-rule:nonzero;stroke:none"
       id="path172" /><path
       d="m 414.6631,108.5518 c -17.41,0 -32.669,10.143 -37.972,25.234 l -0.389,1.114 1.091,0.447 c 0.378,0.156 2.398,0.934 4.96,0.934 3.661,0 6.831,-1.549 9.169,-4.478 5.151,-6.876 13.797,-10.972 23.141,-10.972 h 11.56 v 19.168 c 0,9.302 9.838,9.571 10.958,9.571 h 1.171 l 0.141,-1.168 -0.028,-39.85 z"
       style="fill:#009fe3;fill-opacity:1;fill-rule:nonzero;stroke:none"
       id="path188" /><path
       d="m 648.9263,153.501 c -2.321,0 -4.165,0.621 -4.85,0.889 l -1.11,0.433 0.386,1.125 c 5.168,15.083 20.086,24.829 38.008,24.829 h 23.1 l 0.018,-1.223 c 0.004,-0.215 0.072,-5.366 -3.114,-8.604 -1.608,-1.635 -3.725,-2.463 -6.291,-2.463 h -13.713 c -9.793,0 -18.239,-3.781 -23.171,-10.378 -2.978,-3.811 -6.681,-4.608 -9.263,-4.608"
       style="fill:#009fe3;fill-opacity:1;fill-rule:nonzero;stroke:none"
       id="path204" /><path
       d="m 681.3599,108.498 c -17.432,0 -32.707,10.155 -38.013,25.269 l -0.393,1.127 1.112,0.437 c 0.53,0.211 2.456,0.896 4.862,0.896 2.595,0 6.313,-0.804 9.281,-4.63 0.335,-0.432 0.57,-0.653 0.71,-0.762 5.351,-6.323 13.71,-10.046 22.441,-10.046 h 13.714 c 9.297,0 9.404,-10.938 9.404,-11.048 v -1.243 z"
       style="fill:#009fe3;fill-opacity:1;fill-rule:nonzero;stroke:none"
       id="path220" /><path
       d="m 298.5215,139.0576 v 0.704 c 0,0.107 0.13,10.636 11.419,10.636 l 32.102,-0.006 c 2.214,0 3.878,0.533 4.946,1.586 1.446,1.428 2.179,4.028 2.179,7.728 0,8.805 -5.069,9.043 -7.234,9.145 -0.233,0.012 -0.4,0.02 -0.529,0.034 l -31.16,-0.009 c -11.355,0 -11.71,10.5 -11.712,10.608 l -0.034,1.27 h 43.249 c 0.148,0 0.295,-0.007 0.442,-0.016 5.669,-0.428 18.853,-3.334 18.853,-21.032 0,-6.991 -1.919,-12.433 -5.708,-16.177 -3.366,-3.326 -7.886,-5.012 -13.433,-5.012 l -17.697,0.002 24.64,-14.865 c 6.289,-3.479 4.131,-11.885 2.766,-14.828 l -0.575,-1.262 z"
       style="fill:#009fe3;fill-opacity:1;fill-rule:nonzero;stroke:none"
       id="path236" /><path
       d="m 73.8145,138.5303 c -2.774,0 -5.031,2.258 -5.031,5.032 v 2.412 c 0,2.775 2.257,5.034 5.031,5.034 l 42.002,-0.007 0.128,-1.094 c 0.026,-0.196 0.572,-4.914 -2.423,-8.283 -1.827,-2.053 -4.514,-3.094 -7.988,-3.094 z"
       style="fill:#009fe3;fill-opacity:1;fill-rule:nonzero;stroke:none"
       id="path252" /><path
       d="m 224.7393,168.4248 -0.12,1.11 c -0.019,0.195 -0.468,4.794 2.45,8.044 1.831,2.042 4.526,3.077 8.006,3.077 h 48.734 l 0.169,-1.043 c 0.071,-0.456 0.601,-4.5 -2.092,-7.665 -1.989,-2.337 -5.153,-3.523 -9.406,-3.523 z"
       style="fill:#009fe3;fill-opacity:1;fill-rule:nonzero;stroke:none"
       id="path268" /><path
       d="m 235.0757,108.3662 c -3.48,0 -6.176,1.034 -8.007,3.076 -2.918,3.25 -2.469,7.85 -2.45,8.043 l 0.121,1.111 h 47.741 c 4.253,0 7.416,-1.185 9.406,-3.523 2.693,-3.164 2.163,-7.207 2.094,-7.658 l -0.171,-1.049 z"
       style="fill:#009fe3;fill-opacity:1;fill-rule:nonzero;stroke:none"
       id="path284" /><path
       d="m 229.6055,138.5303 c -2.774,0 -5.031,2.258 -5.031,5.032 v 2.412 c 0,2.775 2.257,5.034 5.031,5.034 l 42.002,-0.007 0.129,-1.094 c 0.025,-0.196 0.571,-4.914 -2.424,-8.283 -1.827,-2.053 -4.514,-3.094 -7.988,-3.094 z"
       style="fill:#009fe3;fill-opacity:1;fill-rule:nonzero;stroke:none"
       id="path300" /><path
       d="m 488.6792,168.4248 -0.119,1.11 c -0.02,0.195 -0.469,4.794 2.449,8.044 1.833,2.042 4.528,3.077 8.007,3.077 h 48.736 l 0.169,-1.043 c 0.071,-0.456 0.601,-4.499 -2.093,-7.664 -1.989,-2.337 -5.153,-3.524 -9.407,-3.524 z"
       style="fill:#009fe3;fill-opacity:1;fill-rule:nonzero;stroke:none"
       id="path316" /><path
       d="m 499.0161,108.3662 c -3.479,0 -6.174,1.034 -8.007,3.076 -2.918,3.25 -2.469,7.85 -2.449,8.043 l 0.119,1.111 h 47.742 c 4.254,0 7.418,-1.185 9.408,-3.523 2.693,-3.166 2.163,-7.207 2.094,-7.658 l -0.171,-1.049 z"
       style="fill:#009fe3;fill-opacity:1;fill-rule:nonzero;stroke:none"
       id="path332" /><path
       d="m 493.5464,138.5303 c -2.772,0 -5.029,2.258 -5.029,5.032 v 2.412 c 0,2.775 2.257,5.034 5.029,5.034 l 42.002,-0.007 0.128,-1.094 c 0.026,-0.196 0.573,-4.916 -2.424,-8.283 -1.824,-2.053 -4.511,-3.094 -7.985,-3.094 z"
       style="fill:#009fe3;fill-opacity:1;fill-rule:nonzero;stroke:none"
       id="path348" /><path
       d="m 68.6514,81.1738 h 13.379 v -2.635 h -10.568 v -6.177 h 9.836 v -2.634 h -9.836 v -6.646 h 11.095 v -2.635 h -13.906 z"
       style="fill:#009fe3;fill-opacity:1;fill-rule:nonzero;stroke:none"
       id="path364" /><path
       d="m 87.709,81.1738 h 3.688 l 11.418,-17.038 h 0.059 v 17.038 h 2.81 v -20.727 h -3.572 L 90.578,77.4858 H 90.52 v -17.039 h -2.811 z"
       style="fill:#009fe3;fill-opacity:1;fill-rule:nonzero;stroke:none"
       id="path368" /><path
       d="m 112.1826,81.1738 h 13.379 v -2.635 h -10.568 v -6.177 h 9.836 v -2.634 h -9.836 v -6.646 h 11.095 v -2.635 h -13.906 z"
       style="fill:#009fe3;fill-opacity:1;fill-rule:nonzero;stroke:none"
       id="path372" /><path
       d="m 134.0513,72.04 h 3.688 c 0.547,0 1.088,0.044 1.625,0.132 0.537,0.088 1.015,0.249 1.435,0.483 0.419,0.235 0.756,0.571 1.01,1.01 0.253,0.439 0.38,1.01 0.38,1.713 0,0.702 -0.127,1.273 -0.38,1.712 -0.254,0.439 -0.591,0.776 -1.01,1.011 -0.42,0.233 -0.898,0.394 -1.435,0.482 -0.537,0.088 -1.078,0.132 -1.625,0.132 h -3.688 z m -2.811,9.134 h 7.29 c 1.327,0 2.42,-0.181 3.279,-0.541 0.858,-0.362 1.537,-0.821 2.034,-1.376 0.498,-0.557 0.844,-1.182 1.04,-1.874 0.194,-0.693 0.293,-1.362 0.293,-2.005 0,-0.664 -0.118,-1.303 -0.352,-1.918 -0.234,-0.614 -0.571,-1.171 -1.01,-1.669 -0.439,-0.497 -0.976,-0.917 -1.61,-1.259 -0.634,-0.342 -1.342,-0.552 -2.122,-0.629 l 5.884,-9.456 h -3.513 l -5.27,9.134 h -3.132 v -9.134 h -2.811 z"
       style="fill:#009fe3;fill-opacity:1;fill-rule:nonzero;stroke:none"
       id="path376" /><path
       d="M 167.9512,72.04 V 61.823 c -0.508,-0.312 -1.083,-0.586 -1.727,-0.819 -0.644,-0.235 -1.313,-0.435 -2.005,-0.601 -0.693,-0.166 -1.396,-0.288 -2.108,-0.366 -0.713,-0.077 -1.381,-0.117 -2.006,-0.117 -1.756,0 -3.322,0.293 -4.698,0.879 -1.376,0.585 -2.538,1.376 -3.484,2.371 -0.947,0.995 -1.669,2.151 -2.166,3.469 -0.498,1.317 -0.747,2.708 -0.747,4.172 0,1.541 0.268,2.976 0.805,4.303 0.537,1.327 1.278,2.479 2.225,3.454 0.947,0.976 2.083,1.743 3.411,2.298 1.327,0.557 2.781,0.835 4.362,0.835 1.912,0 3.473,-0.239 4.683,-0.718 1.21,-0.478 2.226,-1.136 3.045,-1.975 l -1.99,-2.137 c -0.86,0.819 -1.767,1.39 -2.723,1.712 -0.957,0.322 -1.961,0.483 -3.015,0.483 -1.191,0 -2.265,-0.219 -3.221,-0.659 -0.956,-0.438 -1.776,-1.029 -2.459,-1.77 -0.683,-0.743 -1.21,-1.616 -1.58,-2.62 -0.372,-1.006 -0.557,-2.075 -0.557,-3.206 0,-1.171 0.205,-2.259 0.615,-3.264 0.41,-1.006 0.976,-1.879 1.698,-2.62 0.722,-0.742 1.571,-1.324 2.547,-1.742 0.975,-0.42 2.039,-0.63 3.191,-0.63 0.995,0 1.937,0.092 2.825,0.278 0.888,0.186 1.644,0.454 2.268,0.806 v 5.766 h -4.596 v 2.635 z"
       style="fill:#009fe3;fill-opacity:1;fill-rule:nonzero;stroke:none"
       id="path380" /><path
       d="m 179.1343,69.2881 -7.846,11.886 h 3.601 l 5.65,-9.105 5.826,9.105 h 3.425 l -7.846,-11.886 v -8.841 h -2.81 z"
       style="fill:#009fe3;fill-opacity:1;fill-rule:nonzero;stroke:none"
       id="path384" /><path
       id="path388"
       style="fill:#009fe3;fill-opacity:1;fill-rule:nonzero;stroke:none"
       d="m 202.643,81.174 h 2.811 V 60.447 h -2.811 z" /><path
       d="m 211.9521,81.1738 h 3.688 l 11.418,-17.038 h 0.059 v 17.038 h 2.81 v -20.727 h -3.572 l -11.534,17.039 h -0.058 v -17.039 h -2.811 z"
       style="fill:#009fe3;fill-opacity:1;fill-rule:nonzero;stroke:none"
       id="path390" /><path
       d="m 240.7583,78.5391 h -6.674 v 2.635 h 16.159 v -2.635 h -6.674 v -18.092 h -2.811 z"
       style="fill:#009fe3;fill-opacity:1;fill-rule:nonzero;stroke:none"
       id="path394" /><path
       d="m 254.4004,81.1738 h 13.379 v -2.635 h -10.568 v -6.177 h 9.836 v -2.634 h -9.836 v -6.646 h 11.095 v -2.635 h -13.906 z"
       style="fill:#009fe3;fill-opacity:1;fill-rule:nonzero;stroke:none"
       id="path398" /><path
       d="m 273.458,81.1738 h 2.811 v -18.092 h 9.514 v -2.635 h -12.325 z"
       style="fill:#009fe3;fill-opacity:1;fill-rule:nonzero;stroke:none"
       id="path402" /><path
       d="m 289.8232,81.1738 h 2.811 v -18.092 h 9.514 v -2.635 h -12.325 z"
       style="fill:#009fe3;fill-opacity:1;fill-rule:nonzero;stroke:none"
       id="path406" /><path
       id="path410"
       style="fill:#009fe3;fill-opacity:1;fill-rule:nonzero;stroke:none"
       d="m 306.188,81.174 h 2.811 V 60.447 h -2.811 z" /><path
       d="M 333.1504,72.04 V 61.823 c -0.508,-0.312 -1.083,-0.586 -1.727,-0.819 -0.644,-0.235 -1.313,-0.435 -2.005,-0.601 -0.693,-0.166 -1.396,-0.288 -2.108,-0.366 -0.713,-0.077 -1.381,-0.117 -2.006,-0.117 -1.756,0 -3.322,0.293 -4.698,0.879 -1.376,0.585 -2.538,1.376 -3.484,2.371 -0.947,0.995 -1.669,2.151 -2.166,3.469 -0.498,1.317 -0.747,2.708 -0.747,4.172 0,1.541 0.268,2.976 0.805,4.303 0.537,1.327 1.278,2.479 2.225,3.454 0.947,0.976 2.083,1.743 3.411,2.298 1.327,0.557 2.781,0.835 4.362,0.835 1.912,0 3.473,-0.239 4.683,-0.718 1.21,-0.478 2.226,-1.136 3.045,-1.975 l -1.99,-2.137 c -0.86,0.819 -1.767,1.39 -2.723,1.712 -0.957,0.322 -1.961,0.483 -3.015,0.483 -1.191,0 -2.265,-0.219 -3.221,-0.659 -0.956,-0.438 -1.776,-1.029 -2.459,-1.77 -0.683,-0.743 -1.21,-1.616 -1.58,-2.62 -0.372,-1.006 -0.557,-2.075 -0.557,-3.206 0,-1.171 0.205,-2.259 0.615,-3.264 0.41,-1.006 0.976,-1.879 1.698,-2.62 0.722,-0.742 1.571,-1.324 2.547,-1.742 0.975,-0.42 2.039,-0.63 3.191,-0.63 0.995,0 1.937,0.092 2.825,0.278 0.888,0.186 1.644,0.454 2.268,0.806 v 5.766 h -4.596 v 2.635 z"
       style="fill:#009fe3;fill-opacity:1;fill-rule:nonzero;stroke:none"
       id="path412" /><path
       d="m 339.4443,81.1738 h 13.379 v -2.635 h -10.568 v -6.177 h 9.836 v -2.634 h -9.836 v -6.646 h 11.095 v -2.635 h -13.906 z"
       style="fill:#009fe3;fill-opacity:1;fill-rule:nonzero;stroke:none"
       id="path416" /><path
       d="m 358.5024,81.1738 h 3.688 l 11.418,-17.038 h 0.059 v 17.038 h 2.81 v -20.727 h -3.572 l -11.534,17.039 h -0.058 v -17.039 h -2.811 z"
       style="fill:#009fe3;fill-opacity:1;fill-rule:nonzero;stroke:none"
       id="path420" /><path
       d="m 397.4087,76.6953 c -0.585,0.761 -1.328,1.347 -2.225,1.756 -0.898,0.41 -1.825,0.615 -2.781,0.615 -1.171,0 -2.23,-0.22 -3.177,-0.659 -0.946,-0.439 -1.756,-1.039 -2.429,-1.8 -0.674,-0.762 -1.196,-1.654 -1.566,-2.679 -0.371,-1.024 -0.557,-2.123 -0.557,-3.294 0,-1.092 0.176,-2.127 0.527,-3.102 0.352,-0.977 0.859,-1.835 1.522,-2.576 0.664,-0.742 1.474,-1.328 2.431,-1.757 0.955,-0.43 2.039,-0.645 3.249,-0.645 1.19,0 2.235,0.245 3.132,0.733 0.898,0.487 1.659,1.171 2.284,2.049 l 2.371,-1.786 c -0.156,-0.215 -0.429,-0.522 -0.82,-0.922 -0.39,-0.401 -0.907,-0.8 -1.551,-1.201 -0.644,-0.4 -1.42,-0.751 -2.327,-1.053 -0.908,-0.303 -1.958,-0.454 -3.147,-0.454 -1.64,0 -3.119,0.312 -4.436,0.937 -1.317,0.624 -2.439,1.443 -3.366,2.459 -0.927,1.015 -1.635,2.161 -2.123,3.44 -0.488,1.278 -0.732,2.571 -0.732,3.878 0,1.601 0.264,3.08 0.791,4.436 0.527,1.356 1.263,2.527 2.21,3.513 0.947,0.985 2.083,1.752 3.41,2.298 1.328,0.546 2.791,0.82 4.392,0.82 1.366,0 2.708,-0.264 4.025,-0.791 1.317,-0.527 2.395,-1.337 3.235,-2.43 z"
       style="fill:#009fe3;fill-opacity:1;fill-rule:nonzero;stroke:none"
       id="path424" /><path
       d="m 404.7563,81.1738 h 13.378 v -2.635 h -10.568 v -6.177 h 9.837 v -2.634 h -9.837 v -6.646 h 11.096 v -2.635 h -13.906 z"
       style="fill:#009fe3;fill-opacity:1;fill-rule:nonzero;stroke:none"
       id="path428" /><path
       d="m 433.1235,81.1738 h 13.027 v -2.635 h -10.216 v -6.499 h 9.514 v -2.635 h -9.514 v -8.958 h -2.811 z"
       style="fill:#009fe3;fill-opacity:1;fill-rule:nonzero;stroke:none"
       id="path432" /><path
       d="m 460.6118,62.5547 c 1.19,0 2.264,0.22 3.22,0.659 0.956,0.44 1.776,1.029 2.459,1.772 0.683,0.741 1.21,1.614 1.581,2.62 0.371,1.005 0.556,2.073 0.556,3.205 0,1.132 -0.185,2.2 -0.556,3.206 -0.371,1.005 -0.898,1.878 -1.581,2.62 -0.683,0.741 -1.503,1.332 -2.459,1.771 -0.956,0.439 -2.03,0.659 -3.22,0.659 -1.191,0 -2.265,-0.22 -3.221,-0.659 -0.956,-0.439 -1.776,-1.03 -2.459,-1.771 -0.683,-0.742 -1.21,-1.615 -1.581,-2.62 -0.371,-1.006 -0.555,-2.074 -0.555,-3.206 0,-1.132 0.184,-2.2 0.555,-3.205 0.371,-1.006 0.898,-1.879 1.581,-2.62 0.683,-0.743 1.503,-1.332 2.459,-1.772 0.956,-0.439 2.03,-0.659 3.221,-0.659 m 0,-2.635 c -1.581,0 -3.035,0.279 -4.362,0.835 -1.327,0.556 -2.464,1.321 -3.41,2.298 -0.948,0.976 -1.689,2.127 -2.226,3.454 -0.537,1.327 -0.805,2.762 -0.805,4.304 0,1.542 0.268,2.976 0.805,4.304 0.537,1.327 1.278,2.478 2.226,3.454 0.946,0.975 2.083,1.742 3.41,2.298 1.327,0.556 2.781,0.834 4.362,0.834 1.581,0 3.034,-0.278 4.361,-0.834 1.327,-0.556 2.464,-1.323 3.411,-2.298 0.947,-0.976 1.688,-2.127 2.225,-3.454 0.537,-1.328 0.806,-2.762 0.806,-4.304 0,-1.542 -0.269,-2.977 -0.806,-4.304 -0.537,-1.327 -1.278,-2.478 -2.225,-3.454 -0.947,-0.977 -2.084,-1.742 -3.411,-2.298 -1.327,-0.556 -2.78,-0.835 -4.361,-0.835"
       style="fill:#009fe3;fill-opacity:1;fill-rule:nonzero;stroke:none"
       id="path436" /><path
       d="m 479.4351,72.04 h 3.688 c 0.546,0 1.088,0.044 1.625,0.132 0.537,0.088 1.015,0.249 1.435,0.483 0.419,0.235 0.756,0.571 1.01,1.01 0.253,0.439 0.381,1.01 0.381,1.713 0,0.702 -0.128,1.273 -0.381,1.712 -0.254,0.439 -0.591,0.776 -1.01,1.011 -0.42,0.233 -0.898,0.394 -1.435,0.482 -0.537,0.088 -1.079,0.132 -1.625,0.132 h -3.688 z m -2.811,9.134 h 7.29 c 1.327,0 2.419,-0.181 3.279,-0.541 0.858,-0.362 1.537,-0.821 2.034,-1.376 0.498,-0.557 0.845,-1.182 1.04,-1.874 0.194,-0.693 0.292,-1.362 0.292,-2.005 0,-0.664 -0.117,-1.303 -0.351,-1.918 -0.234,-0.614 -0.571,-1.171 -1.01,-1.669 -0.439,-0.497 -0.976,-0.917 -1.61,-1.259 -0.634,-0.342 -1.342,-0.552 -2.123,-0.629 l 5.885,-9.456 h -3.514 l -5.269,9.134 h -3.132 v -9.134 h -2.811 z"
       style="fill:#009fe3;fill-opacity:1;fill-rule:nonzero;stroke:none"
       id="path440" /><path
       d="m 504.7876,81.1738 h 4.187 l 6.586,-15.691 h 0.118 l 6.528,15.691 h 4.186 v -20.727 h -2.81 v 17.039 h -0.059 l -6.997,-17.039 h -1.873 l -6.997,17.039 h -0.058 v -17.039 h -2.811 z"
       style="fill:#009fe3;fill-opacity:1;fill-rule:nonzero;stroke:none"
       id="path444" /><path
       d="m 544.2212,68.0293 -3.864,9.515 h -0.059 l -3.923,-9.515 z m -5.035,13.145 h 2.547 l 8.87,-20.727 h -3.278 l -2.08,5.123 h -9.865 l -2.05,-5.123 h -3.278 z"
       style="fill:#009fe3;fill-opacity:1;fill-rule:nonzero;stroke:none"
       id="path448" /><path
       d="m 554.4673,81.1738 h 3.688 l 11.418,-17.038 h 0.058 v 17.038 h 2.811 v -20.727 h -3.572 l -11.534,17.039 h -0.058 v -17.039 h -2.811 z"
       style="fill:#009fe3;fill-opacity:1;fill-rule:nonzero;stroke:none"
       id="path452" /><path
       d="m 581.3706,81.1738 v -12.705 c 0,-0.645 0.088,-1.313 0.264,-2.006 0.175,-0.692 0.468,-1.332 0.878,-1.917 0.41,-0.586 0.946,-1.064 1.61,-1.434 0.663,-0.372 1.483,-0.557 2.459,-0.557 0.976,0 1.796,0.185 2.459,0.557 0.663,0.37 1.2,0.848 1.61,1.434 0.41,0.585 0.703,1.225 0.878,1.917 0.176,0.693 0.264,1.361 0.264,2.006 v 12.705 h 2.81 v -13.145 c 0,-1.209 -0.205,-2.307 -0.614,-3.292 -0.41,-0.987 -0.976,-1.84 -1.698,-2.562 -0.723,-0.723 -1.571,-1.278 -2.547,-1.669 -0.977,-0.391 -2.03,-0.586 -3.162,-0.586 -1.132,0 -2.186,0.195 -3.161,0.586 -0.977,0.391 -1.825,0.946 -2.547,1.669 -0.723,0.722 -1.289,1.575 -1.698,2.562 -0.41,0.985 -0.616,2.083 -0.616,3.292 v 13.145 z"
       style="fill:#009fe3;fill-opacity:1;fill-rule:nonzero;stroke:none"
       id="path456" /><path
       d="m 600.7212,81.1738 h 13.027 v -2.635 h -10.216 v -6.499 h 9.514 v -2.635 h -9.514 v -8.958 h -2.811 z"
       style="fill:#009fe3;fill-opacity:1;fill-rule:nonzero;stroke:none"
       id="path460" /><path
       d="m 628.6196,68.0293 -3.864,9.515 h -0.059 l -3.923,-9.515 z m -5.035,13.145 h 2.547 l 8.87,-20.727 h -3.278 l -2.08,5.123 h -9.865 l -2.05,-5.123 h -3.278 z"
       style="fill:#009fe3;fill-opacity:1;fill-rule:nonzero;stroke:none"
       id="path464" /><path
       d="m 653.2983,76.6953 c -0.586,0.761 -1.327,1.347 -2.225,1.756 -0.898,0.41 -1.825,0.615 -2.781,0.615 -1.171,0 -2.23,-0.22 -3.177,-0.659 -0.946,-0.439 -1.755,-1.039 -2.429,-1.8 -0.673,-0.762 -1.196,-1.654 -1.567,-2.679 -0.371,-1.024 -0.555,-2.123 -0.555,-3.294 0,-1.092 0.175,-2.127 0.526,-3.102 0.352,-0.977 0.858,-1.835 1.522,-2.576 0.664,-0.742 1.474,-1.328 2.43,-1.757 0.956,-0.43 2.039,-0.645 3.25,-0.645 1.191,0 2.235,0.245 3.132,0.733 0.897,0.487 1.659,1.171 2.284,2.049 l 2.371,-1.786 c -0.156,-0.215 -0.429,-0.522 -0.819,-0.922 -0.391,-0.401 -0.908,-0.8 -1.552,-1.201 -0.644,-0.4 -1.42,-0.751 -2.328,-1.053 -0.907,-0.303 -1.956,-0.454 -3.146,-0.454 -1.64,0 -3.119,0.312 -4.436,0.937 -1.317,0.624 -2.439,1.443 -3.366,2.459 -0.928,1.015 -1.635,2.161 -2.123,3.44 -0.488,1.278 -0.732,2.571 -0.732,3.878 0,1.601 0.264,3.08 0.79,4.436 0.528,1.356 1.264,2.527 2.211,3.513 0.947,0.985 2.083,1.752 3.41,2.298 1.328,0.546 2.791,0.82 4.392,0.82 1.365,0 2.708,-0.264 4.025,-0.791 1.318,-0.527 2.396,-1.337 3.235,-2.43 z"
       style="fill:#009fe3;fill-opacity:1;fill-rule:nonzero;stroke:none"
       id="path468" /><path
       d="m 664.98,78.5391 h -6.675 v 2.635 h 16.159 v -2.635 h -6.673 v -18.092 h -2.811 z"
       style="fill:#009fe3;fill-opacity:1;fill-rule:nonzero;stroke:none"
       id="path472" /><path
       d="m 681.0513,81.1738 v -12.705 c 0,-0.645 0.088,-1.313 0.264,-2.006 0.175,-0.692 0.468,-1.332 0.878,-1.917 0.41,-0.586 0.946,-1.064 1.61,-1.434 0.663,-0.372 1.483,-0.557 2.459,-0.557 0.976,0 1.796,0.185 2.459,0.557 0.663,0.37 1.2,0.848 1.61,1.434 0.41,0.585 0.703,1.225 0.878,1.917 0.176,0.693 0.264,1.361 0.264,2.006 v 12.705 h 2.81 v -13.145 c 0,-1.209 -0.205,-2.307 -0.614,-3.292 -0.41,-0.987 -0.976,-1.84 -1.698,-2.562 -0.723,-0.723 -1.571,-1.278 -2.547,-1.669 -0.977,-0.391 -2.03,-0.586 -3.162,-0.586 -1.132,0 -2.186,0.195 -3.161,0.586 -0.977,0.391 -1.825,0.946 -2.547,1.669 -0.723,0.722 -1.289,1.575 -1.698,2.562 -0.41,0.985 -0.616,2.083 -0.616,3.292 v 13.145 z"
       style="fill:#009fe3;fill-opacity:1;fill-rule:nonzero;stroke:none"
       id="path476" /><path
       d="m 703.2124,72.04 h 3.688 c 0.546,0 1.088,0.044 1.625,0.132 0.537,0.088 1.015,0.249 1.435,0.483 0.419,0.235 0.756,0.571 1.01,1.01 0.253,0.439 0.381,1.01 0.381,1.713 0,0.702 -0.128,1.273 -0.381,1.712 -0.254,0.439 -0.591,0.776 -1.01,1.011 -0.42,0.233 -0.898,0.394 -1.435,0.482 -0.537,0.088 -1.079,0.132 -1.625,0.132 h -3.688 z m -2.811,9.134 h 7.29 c 1.327,0 2.419,-0.181 3.279,-0.541 0.858,-0.362 1.537,-0.821 2.034,-1.376 0.498,-0.557 0.845,-1.182 1.04,-1.874 0.194,-0.693 0.292,-1.362 0.292,-2.005 0,-0.664 -0.117,-1.303 -0.351,-1.918 -0.234,-0.614 -0.571,-1.171 -1.01,-1.669 -0.439,-0.497 -0.976,-0.917 -1.61,-1.259 -0.634,-0.342 -1.342,-0.552 -2.123,-0.629 l 5.885,-9.456 h -3.514 l -5.269,9.134 h -3.132 v -9.134 h -2.811 z"
       style="fill:#009fe3;fill-opacity:1;fill-rule:nonzero;stroke:none"
       id="path480" /><path
       id="path484"
       style="fill:#009fe3;fill-opacity:1;fill-rule:nonzero;stroke:none"
       d="m 719.459,81.174 h 2.811 V 60.447 h -2.811 z" /><path
       d="m 728.769,81.1738 h 3.688 l 11.418,-17.038 h 0.058 v 17.038 h 2.811 v -20.727 h -3.572 l -11.534,17.039 h -0.058 v -17.039 h -2.811 z"
       style="fill:#009fe3;fill-opacity:1;fill-rule:nonzero;stroke:none"
       id="path486" /><path
       d="M 770.896,72.04 V 61.823 c -0.508,-0.312 -1.084,-0.586 -1.728,-0.819 -0.644,-0.235 -1.312,-0.435 -2.005,-0.601 -0.693,-0.166 -1.396,-0.288 -2.108,-0.366 -0.713,-0.077 -1.381,-0.117 -2.005,-0.117 -1.757,0 -3.323,0.293 -4.699,0.879 -1.376,0.585 -2.537,1.376 -3.483,2.371 -0.948,0.995 -1.669,2.151 -2.167,3.469 -0.497,1.317 -0.746,2.708 -0.746,4.172 0,1.541 0.267,2.976 0.804,4.303 0.537,1.327 1.279,2.479 2.226,3.454 0.946,0.976 2.083,1.743 3.41,2.298 1.327,0.557 2.781,0.835 4.362,0.835 1.912,0 3.474,-0.239 4.684,-0.718 1.21,-0.478 2.226,-1.136 3.045,-1.975 l -1.991,-2.137 c -0.859,0.819 -1.767,1.39 -2.723,1.712 -0.956,0.322 -1.961,0.483 -3.015,0.483 -1.191,0 -2.264,-0.219 -3.22,-0.659 -0.956,-0.438 -1.777,-1.029 -2.459,-1.77 -0.684,-0.743 -1.21,-1.616 -1.581,-2.62 -0.372,-1.006 -0.556,-2.075 -0.556,-3.206 0,-1.171 0.205,-2.259 0.614,-3.264 0.41,-1.006 0.976,-1.879 1.698,-2.62 0.722,-0.742 1.571,-1.324 2.547,-1.742 0.976,-0.42 2.039,-0.63 3.192,-0.63 0.995,0 1.936,0.092 2.824,0.278 0.889,0.186 1.644,0.454 2.269,0.806 v 5.766 h -4.596 v 2.635 z"
       style="fill:#009fe3;fill-opacity:1;fill-rule:nonzero;stroke:none"
       id="path490" /></g></svg>